<?xml version="1.0" encoding="UTF-8"?>
<svg width="15px" height="15px" viewBox="0 0 15 15" version="1.1" xmlns="http://www.w3.org/2000/svg" xmlns:xlink="http://www.w3.org/1999/xlink">
    <!-- Generator: sketchtool 50.2 (55047) - http://www.bohemiancoding.com/sketch -->
    <title>82AC7A01-4ED7-44CB-9CB1-9ACF36CDB18F</title>
    <desc>Created with sketchtool.</desc>
    <defs></defs>
    <g id="Symbols" stroke="none" stroke-width="1" fill="none" fill-rule="evenodd">
        <g id="close" fill="#CD333A" fill-rule="nonzero">
            <g id="Group-6">
                <g id="No">
                    <g id="Group">
                        <path d="M1.51869159,14.9766355 C1.07009346,14.9766355 0.771028037,14.8271028 0.471962617,14.5280374 C-0.126168224,13.9299065 -0.126168224,13.0327103 0.471962617,12.4345794 L12.4345794,0.471962617 C13.0327103,-0.126168224 13.9299065,-0.126168224 14.5280374,0.471962617 C15.1261682,1.07009346 15.1261682,1.96728972 14.5280374,2.56542056 L2.56542056,14.5280374 C2.26635514,14.8271028 1.96728972,14.9766355 1.51869159,14.9766355 Z" id="Shape"></path>
                        <path d="M13.4813084,14.9766355 C13.0327103,14.9766355 12.7336449,14.8271028 12.4345794,14.5280374 L0.471962617,2.56542056 C-0.126168224,1.96728972 -0.126168224,1.07009346 0.471962617,0.471962617 C1.07009346,-0.126168224 1.96728972,-0.126168224 2.56542056,0.471962617 L14.5280374,12.4345794 C15.1261682,13.0327103 15.1261682,13.9299065 14.5280374,14.5280374 C14.228972,14.8271028 13.9299065,14.9766355 13.4813084,14.9766355 Z" id="Shape"></path>
                    </g>
                </g>
            </g>
        </g>
    </g>
</svg>