<?xml version="1.0" encoding="UTF-8"?>
<svg width="539px" height="653px" viewBox="0 0 539 653" version="1.1" xmlns="http://www.w3.org/2000/svg" xmlns:xlink="http://www.w3.org/1999/xlink">
    <!-- Generator: sketchtool 50.2 (55047) - http://www.bohemiancoding.com/sketch -->
    <title>3393DA6F-A1CA-4B22-9649-CFAFA4878C6E</title>
    <desc>Created with sketchtool.</desc>
    <defs></defs>
    <g id="Symbols" stroke="none" stroke-width="1" fill="none" fill-rule="evenodd">
        <g id="il/fox_faild" fill-rule="nonzero">
            <g id="Group-2">
                <g id="fox_faild">
                    <g id="Layer_3" transform="translate(0.000000, 105.000000)">
                        <polygon id="Shape" fill="#6A2E17" points="307.8 480.6 305.8 325.5 340.4 269.2 340.4 480.6"></polygon>
                        <polygon id="Shape" fill="#6A2E17" points="262.2 461.9 221.9 280.4 271 310.5 302.1 460.6"></polygon>
                        <polygon id="Shape" stroke="#F6851F" fill="#F6851F" stroke-linecap="round" stroke-linejoin="round" points="344 225.3 301.6 256.6 340.4 269.2"></polygon>
                        <polygon id="Shape" stroke="#CD6328" fill="#CD6328" stroke-linecap="round" stroke-linejoin="round" points="261.4 0.4 340.4 204.1 340.4 269.2 305.8 325.5 304.8 255.3 304.7 231.6 292.1 260.4 275.4 328 271 310.5 221.9 280.4 226.9 300.7 252.2 411.9 393.7 395.6 442.8 433.2 308.8 499.5 336 534.6 218.1 547.1 112.3 510.8 0.9 350.5 106.1 116.4 197.4 54.3"></polygon>
                        <polygon id="Shape" stroke="#CD6328" fill="#CD6328" stroke-linecap="round" stroke-linejoin="round" points="273.4 267.9 271 310.5 277.6 333 293.9 256.6"></polygon>
                        <polygon id="Shape" stroke="#CD6328" fill="#CD6328" opacity="0.46" stroke-linecap="round" stroke-linejoin="round" points="252.2 117.7 245.1 216.6 252.2 242.3 205.8 210 196.2 166.4"></polygon>
                        <polygon id="Shape" stroke="#F6851F" fill="#F6851F" stroke-linecap="round" stroke-linejoin="round" points="271 59.9 241.4 23.1 168.7 73.9 196.2 166.4 252.2 117.7"></polygon>
                        <polygon id="Shape" fill="#E6CFC0" points="377.8 34 252.2 41.8 245.1 216.6 271 310.5 273.4 267.9 348.1 237.9 357.3 177.7 383.7 166.4 376.2 90.1 383.7 61.6"></polygon>
                        <polygon id="Shape" stroke="#E37725" fill="#E37725" stroke-linecap="round" stroke-linejoin="round" points="301.6 256.6 305.8 325.5 340.4 269.2"></polygon>
                        <polygon id="Shape" stroke="#E37725" fill="#E37725" stroke-linecap="round" stroke-linejoin="round" points="106.1 116.4 117.3 157.7 196.2 166.4"></polygon>
                        <polygon id="Shape" stroke="#E37725" fill="#E37725" stroke-linecap="round" stroke-linejoin="round" points="215.7 255.4 189.9 261.6 168.7 226.6 106.1 236.6 196.2 166.4"></polygon>
                        <polygon id="Shape" stroke="#F6851F" fill="#F6851F" stroke-linecap="round" stroke-linejoin="round" points="252.2 242.3 205.8 210 221.9 280.4 271 310.5"></polygon>
                        <polygon id="Shape" stroke="#CD6328" fill="#CD6328" stroke-linecap="round" stroke-linejoin="round" points="54.7 247.3 144.9 364.3 205.8 310.5 168.7 226.6"></polygon>
                        <polygon id="Shape" stroke="#E37725" fill="#E37725" stroke-linecap="round" stroke-linejoin="round" points="205.8 310.5 144.9 364.3 179.3 404.4"></polygon>
                        <polygon id="Shape" stroke="#CD6328" fill="#CD6328" stroke-linecap="round" stroke-linejoin="round" points="252.2 411.9 205.8 411.9 179.3 404.4 205.8 310.5 221.9 280.4"></polygon>
                        <polygon id="Shape" fill="#E6CFC0" points="221.9 280.4 205.8 310.5 189.9 261.6 215.7 255.4"></polygon>
                        <polygon id="Shape" stroke="#E37725" fill="#E37725" stroke-linecap="round" stroke-linejoin="round" points="54.7 247.3 0.9 350.5 144.9 364.3"></polygon>
                        <polygon id="Shape" stroke="#CD6328" fill="#CD6328" stroke-linecap="round" stroke-linejoin="round" points="144.9 364.3 0.9 350.5 54.7 435.7"></polygon>
                        <polygon id="Shape" stroke="#CD6328" fill="#CD6328" stroke-linecap="round" stroke-linejoin="round" points="308.8 499.5 393.7 395.6 442.8 433.2"></polygon>
                    </g>
                    <g id="Group" transform="translate(54.000000, 469.000000)">
                        <polygon id="Shape" stroke="#F6851F" fill="#F6851F" stroke-linecap="round" stroke-linejoin="round" points="0.7 71.7 90.9 0.3 161.7 47.9 12.1 80.3"></polygon>
                        <polygon id="Shape" stroke="#E37725" fill="#E37725" stroke-linecap="round" stroke-linejoin="round" points="161.7 47.9 12.1 80.3 91.2 99.2"></polygon>
                        <polygon id="Shape" stroke="#E37725" fill="#E37725" stroke-linecap="round" stroke-linejoin="round" points="100.3 161.2 58.3 146.8 91.2 99.2 142.2 109.2"></polygon>
                        <polygon id="Shape" stroke="#E37725" fill="#E37725" stroke-linecap="round" stroke-linejoin="round" points="164.1 183.1 100.3 161.2 142.2 109.2 254.8 135.5"></polygon>
                        <polygon id="Shape" fill="#E6CFC0" points="422.6 40.3 339.7 31.6 388.8 69.2 254.8 135.5 282 170.6 388.8 161.2 484 14.1"></polygon>
                        <polygon id="Shape" stroke="#C1AE9E" fill="#C1AE9E" stroke-linecap="round" stroke-linejoin="round" points="484 14.1 422.6 40.3 339.7 31.6 388.8 69.2 441.1 80.3"></polygon>
                        <polygon id="Shape" stroke="#F6851F" fill="#F6851F" stroke-linecap="round" stroke-linejoin="round" points="339.7 31.6 161.7 47.9 91.2 99.2 142.2 109.2 388.8 69.2"></polygon>
                    </g>
                    <g id="Group" transform="translate(221.000000, 0.000000)">
                        <g id="Shape">
                            <polygon fill="#CD6328" points="120.3 16.9 210 26.8 199.8 8.3"></polygon>
                            <polygon fill="#763E1A" points="213.6 39.5 225 79.2 210 26.8 120.3 16.9"></polygon>
                            <polygon stroke="#CD6328" fill="#CD6328" stroke-linecap="round" stroke-linejoin="round" points="50 92.4 20.4 128.1 48.9 186.6 93.4 123.2"></polygon>
                            <polygon stroke="#F6851F" fill="#F6851F" stroke-linecap="round" stroke-linejoin="round" points="190.5 138.8 177.8 81.5 148.4 38.8 113.8 47.9 57.4 123.2"></polygon>
                            <path d="M144.1,176.9 C144.8,174.2 159.2,135.2 159.2,135.2 L57.4,123.2 L35.5,203.9 L144.1,176.9 Z" fill="#DF6B26"></path>
                            <polygon fill="#F47A20" points="190.5 138.8 144.1 176.9 159.2 135.2"></polygon>
                            <polygon fill="#DF6B26" points="272.4 170.8 140.6 178.9 190.5 138.8"></polygon>
                            <polyline fill="#DF6B26" points="107.6 56.2 124.4 35.4 196.9 21.6 169.1 7.3 117.4 0.9 0.9 65"></polyline>
                            <polygon fill="#DF6B26" points="193.2 109.9 190.5 138.8 177.8 81.5"></polygon>
                            <polygon fill="#F47A20" points="266.9 169.3 190.5 138.8 193.2 109.9"></polygon>
                            <polygon fill="#DF6B26" points="235.4 93.6 231.1 109.6 224.3 95.4 220.8 81.7"></polygon>
                            <polygon fill="#F6851F" points="266.9 169.3 273.9 164.2 230.8 107.6 227.2 87.1 212.9 38.7 208.2 33.3 196.9 21.6 217.3 94.9"></polygon>
                            <polygon fill="#CD6328" points="177.8 81.5 215.3 87.8 211.4 124.3 193.2 109.9"></polygon>
                            <polygon fill="#243447" points="211.4 124.3 204.9 102.5 190.8 108.4"></polygon>
                            <polygon fill="#DF6B26" points="266.9 169.3 211.4 124.3 215.3 87.8"></polygon>
                            <polygon fill="#DF6B26" points="177.8 81.5 150.5 41.9 196.9 21.6 215.3 87.8"></polygon>
                            <polygon fill="#171717" points="289.3 177.8 290.7 172.7 273.9 164.2 266.9 169.3 259.9 195.3 273.1 191.9"></polygon>
                            <polygon fill="#C1AE9E" points="273.1 191.9 245 209.6 145.6 185 141.1 178.5 235.7 201.8 260.8 192"></polygon>
                            <polygon fill="#DF6B26" points="57.4 123.2 37.4 56.8 110.7 52.4"></polygon>
                            <polygon fill="#D6C0B3" points="141.1 178.5 235.7 201.8 260.8 192 266.4 171.4"></polygon>
                            <polygon fill="#763E1A" points="0.9 65 136.8 31.9 196.9 21.6 150.5 41.9 100.1 56.5"></polygon>
                        </g>
                        <polygon id="Shape" fill="#F6851F" points="159.2 28.8 117.4 0.9 119.9 36.3"></polygon>
                        <polygon id="Shape" fill="#E37525" points="196.9 21.6 159.2 1 117.4 0.9 159.2 28.8"></polygon>
                    </g>
                </g>
            </g>
        </g>
    </g>
</svg>