<svg xmlns="http://www.w3.org/2000/svg" xmlns:xlink="http://www.w3.org/1999/xlink" width="260" height="190" viewBox="0 0 260 190">
    <defs>
        <rect id="b" width="1000" height="299" y="58" rx="4"/>
        <filter id="a" width="101.7%" height="106%" x="-.8%" y="-1.5%" filterUnits="objectBoundingBox">
            <feOffset dx="1" dy="5" in="SourceAlpha" result="shadowOffsetOuter1"/>
            <feGaussianBlur in="shadowOffsetOuter1" result="shadowBlurOuter1" stdDeviation="2"/>
            <feColorMatrix in="shadowBlurOuter1" values="0 0 0 0 0 0 0 0 0 0 0 0 0 0 0 0 0 0 0.144842618 0"/>
        </filter>
    </defs>
    <g fill="none" fill-rule="evenodd">
        <path fill="#EFF3F6" d="M-301-296H980v3000H-301z"/>
        <g transform="translate(-78 -112)">
            <use fill="#000" filter="url(#a)" xlink:href="#b"/>
            <use fill="#FFF" xlink:href="#b"/>
        </g>
        <g transform="translate(-2 -1)">
            <path d="M0 0h264v190H0z"/>
            <path fill="#438CEF" fill-rule="nonzero" d="M72.869 167.006h52.821v17.698h-20.369c-1.208 0-2.071 1.031-2.071 2.062s1.036 2.062 2.071 2.062h67.84c1.208 0 2.071-1.03 2.071-2.062 0-1.03-1.036-2.062-2.071-2.062h-20.37v-17.698h52.822c3.28 0 5.87-2.75 5.87-6.186V73.186c0-.344 0-.86-.173-1.203-.173-.687-.346-1.375-.691-1.89-1.036-1.718-2.934-2.921-5.006-2.921H72.87c-2.071 0-3.97 1.203-5.006 2.921-.345.515-.518 1.203-.69 1.89 0 .344-.173.86-.173 1.203v87.634c0 3.436 2.762 6.186 5.869 6.186zm0-4.296c-.863 0-1.554-.86-1.554-1.89v-14.778h135.852v14.778c0 1.03-.69 1.89-1.554 1.89H72.87zm132.744-91.414c.863 0 1.554.859 1.554 1.89v68.56H71.315v-68.56c0-1.031.691-1.89 1.554-1.89h132.744z"/>
            <path fill="#FFF" d="M129 167h21v18h-21zM97 77h84V61H97z"/>
            <g fill="#438CEF" fill-rule="nonzero">
                <path d="M112.98 55.868l.053.002h32.117c1.191 0 2.156-.779 2.156-1.74 0-.96-.965-1.739-2.156-1.739h-32.117c-1.19 0-2.155.779-2.155 1.74 0 .946.937 1.714 2.103 1.737zM110.878 64.565c0 .96.962 1.74 2.15 1.74h52.944c1.188 0 2.15-.78 2.15-1.74s-.962-1.739-2.15-1.739h-52.944c-1.188 0-2.15.778-2.15 1.74zM165.972 73.26h-52.944c-.56 0-1.07.176-1.453.46-.428.318-.697.773-.697 1.28 0 .96.962 1.74 2.15 1.74h52.944c1.188 0 2.15-.78 2.15-1.74 0-.507-.27-.962-.697-1.28a2.439 2.439 0 0 0-1.453-.46zM165.972 83.696h-52.944c-1.188 0-2.15.778-2.15 1.739 0 .96.962 1.739 2.15 1.739h52.944c1.188 0 2.15-.779 2.15-1.74 0-.96-.962-1.738-2.15-1.738zM165.972 94.13h-52.944c-.56 0-1.07.176-1.453.46-.428.318-.697.772-.697 1.28 0 .96.962 1.739 2.15 1.739h52.944c1.188 0 2.15-.78 2.15-1.74 0-.507-.27-.961-.697-1.279a2.439 2.439 0 0 0-1.453-.46zM165.972 104.565h-52.944c-1.188 0-2.15.779-2.15 1.739 0 .96.962 1.74 2.15 1.74h52.944c1.188 0 2.15-.78 2.15-1.74s-.962-1.739-2.15-1.739zM165.972 116.74h-52.944c-1.188 0-2.15.778-2.15 1.738s.962 1.74 2.15 1.74h52.944c1.188 0 2.15-.78 2.15-1.74s-.962-1.739-2.15-1.739zM165.972 127.174h-52.944c-.56 0-1.07.175-1.453.46-.428.318-.697.772-.697 1.279 0 .96.962 1.74 2.15 1.74h52.944c1.188 0 2.15-.78 2.15-1.74 0-.507-.27-.961-.697-1.28a2.44 2.44 0 0 0-1.453-.46z"/>
                <path d="M181.212 50.464l-3.406-3.093-8.987-8.162-4.043-3.672a2.09 2.09 0 0 0-1.283-.537H102.66C99.54 35 97 37.562 97 40.712v108.576c0 3.15 2.54 5.712 5.66 5.712h73.68c3.121 0 5.66-2.563 5.66-5.712V52.018a2.115 2.115 0 0 0-.788-1.554zm-15.742-8.596l8.958 8.136h-8.958v-8.136zm12.336 107.42c0 .829-.657 1.503-1.465 1.503h-73.68c-.81 0-1.467-.674-1.467-1.503V40.712c0-.829.658-1.503 1.466-1.503h58.603v12.91a2.11 2.11 0 0 0 2.104 2.116h14.44v95.053z"/>
            </g>
            <path fill="#FFF" d="M90 162h98v-16H90z"/>
            <circle cx="86.5" cy="10.5" r="8.5" fill="#CBCBCB" opacity=".4"/>
            <circle cx="192.5" cy="25.5" r="3.5" fill="#D8D8D8" opacity=".4"/>
            <circle cx="252.5" cy="114.5" r="8.5" fill="#CBCBCB" opacity=".4"/>
            <circle cx="31" cy="118" r="6" fill="#D8D8D8" opacity=".4"/>
            <circle cx="10" cy="181" r="7" fill="#D8D8D8" opacity=".4"/>
            <circle cx="55" cy="172" r="4" fill="#CBCBCB" opacity=".4"/>
        </g>
    </g>
</svg>
