<?xml version="1.0" encoding="UTF-8"?>
<svg width="16px" height="13px" viewBox="0 0 16 13" version="1.1" xmlns="http://www.w3.org/2000/svg" xmlns:xlink="http://www.w3.org/1999/xlink">
    <!-- Generator: sketchtool 50.2 (55047) - http://www.bohemiancoding.com/sketch -->
    <title>4C7CD178-E296-4BC0-9368-BF704B3B2954</title>
    <desc>Created with sketchtool.</desc>
    <defs></defs>
    <g id="Symbols" stroke="none" stroke-width="1" fill="none" fill-rule="evenodd">
        <g id="ic/arrow_fund" transform="translate(2.000000, -1.000000)" fill="#FFFFFF">
            <g id="arrow">
                <g id="Group-5">
                    <path d="M6.99124482,14.4747411 L6.99124482,3.03951006 L10.8999217,6.92291041 C11.0857698,7.11170296 11.3593987,7.18669988 11.6163869,7.11928106 C11.8733752,7.05186225 12.0740696,6.85243042 12.1418818,6.59709213 C12.209694,6.34175383 12.1341606,6.06990773 11.9441064,5.88529489 L6.77487559,0.749492419 C6.48650647,0.46307463 6.01906009,0.46307463 5.73069097,0.749492419 L0.561460203,5.88529489 C0.422692563,6.02275152 0.344819034,6.20950882 0.345090972,6.40419436 C0.345154737,6.70089399 0.525074357,6.96835056 0.800976837,7.08188402 C1.07687932,7.19541749 1.39444906,7.13267706 1.60564482,6.92291041 L5.51432174,3.03951006 L5.51432174,14.4747411 C5.51432174,14.8799447 5.84494223,15.2084272 6.25278328,15.2084272 C6.66062433,15.2084272 6.99124482,14.8799447 6.99124482,14.4747411 Z" id="Shape" fill-rule="nonzero" transform="translate(6.255714, 7.871553) rotate(89.542153) translate(-6.255714, -7.871553) "></path>
                </g>
            </g>
        </g>
    </g>
</svg>