<svg xmlns="http://www.w3.org/2000/svg" width="13" height="15" viewBox="0 0 13 15">
    <g fill="none" fill-rule="evenodd">
        <rect width="646" height="83" x=".5" y="17.5" stroke="#757BF8" rx="4" transform="translate(-387 -66.833)"/>
        <path d="M-1 0h15v15H-1z"/>
        <path fill="#A19F9F" fill-rule="nonzero" d="M9 .625H1.5c-.688 0-1.25.563-1.25 1.25v8.75H1.5v-8.75H9V.625zm-.625 2.5l3.75 3.75v6.25c0 .688-.563 1.25-1.25 1.25H3.994a1.248 1.248 0 0 1-1.244-1.25l.006-8.75c0-.688.557-1.25 1.244-1.25h4.375zM7.75 7.5h3.438L7.75 4.062V7.5z"/>
    </g>
</svg>
