<?xml version="1.0" encoding="UTF-8"?>
<svg width="17px" height="18px" viewBox="0 0 17 18" version="1.1" xmlns="http://www.w3.org/2000/svg" xmlns:xlink="http://www.w3.org/1999/xlink">
    <!-- Generator: sketchtool 50.2 (55047) - http://www.bohemiancoding.com/sketch -->
    <title>E7138810-F5A2-4A27-A386-7C0A8E68086E</title>
    <desc>Created with sketchtool.</desc>
    <defs></defs>
    <g id="Register" stroke="none" stroke-width="1" fill="none" fill-rule="evenodd">
        <g id="New-register" transform="translate(-414.000000, -759.000000)" fill="#438CEF">
            <g id="Group-5" transform="translate(414.000000, 642.000000)">
                <g id="Group-4" transform="translate(0.000000, 117.609756)">
                    <g id="ic_plus">
                        <path d="M8.49420961,0.0854434783 C3.80287773,0.0854434783 0,3.8720087 0,8.54272174 C0,13.2136565 3.80287773,17 8.49420961,17 C13.1849476,17 16.9884192,13.2136565 16.9884192,8.54272174 C16.9878253,3.8720087 13.1849476,0.0854434783 8.49420961,0.0854434783 Z M8.49420961,15.4142696 C4.68234934,15.4142696 1.59258079,12.3379348 1.59258079,8.54272174 C1.59258079,4.74743478 4.68234934,1.6716913 8.49420961,1.6716913 C12.305476,1.6716913 15.3958384,4.74743478 15.3958384,8.54272174 C15.3958384,12.3379348 12.305476,15.4142696 8.49420961,15.4142696 Z M11.6895415,7.4856913 L9.55526201,7.4856913 L9.55526201,5.37111304 C9.55526201,5.07945217 9.31748472,4.8427087 9.02455022,4.8427087 L7.96268122,4.8427087 C7.66922707,4.8427087 7.43196943,5.07945217 7.43196943,5.37111304 L7.43196943,7.4856913 L5.30934498,7.4856913 C5.01529694,7.4856913 4.77744541,7.72243478 4.77744541,8.01402174 L4.77744541,9.07134783 C4.77744541,9.36352609 5.01529694,9.59967826 5.30934498,9.59967826 L7.43256332,9.59967826 L7.43256332,11.7093783 C7.43256332,12.0010391 7.66974672,12.237487 7.96327511,12.237487 L9.0251441,12.237487 C9.3180786,12.237487 9.5558559,12.0010391 9.5558559,11.7093783 L9.5558559,9.59967826 L11.6901354,9.59967826 C11.9841834,9.59967826 12.2219607,9.36352609 12.2219607,9.07134783 L12.2219607,8.01402174 C12.2216638,7.72273043 11.9832926,7.4856913 11.6895415,7.4856913 Z" id="plus"></path>
                    </g>
                </g>
            </g>
        </g>
    </g>
</svg>