<?xml version="1.0" encoding="UTF-8" standalone="no"?>
<svg width="212px" height="213px" viewBox="0 0 212 213" version="1.1" xmlns="http://www.w3.org/2000/svg" xmlns:xlink="http://www.w3.org/1999/xlink" xmlns:sketch="http://www.bohemiancoding.com/sketch/ns">
    <!-- Generator: Sketch 3.3.3 (12072) - http://www.bohemiancoding.com/sketch -->
    <title>Imported Layers Copy</title>
    <desc>Created with Sketch.</desc>
    <defs></defs>
    <g id="Github-avatars" stroke="none" stroke-width="1" fill="none" fill-rule="evenodd" sketch:type="MSPage">
        <g id="github-graphene" sketch:type="MSArtboardGroup" transform="translate(-103.000000, -105.000000)">
            <g id="Imported-Layers-Copy" sketch:type="MSLayerGroup" transform="translate(105.000000, 104.500000)">
                <g id="Imported-Layers" sketch:type="MSShapeGroup">
                    <path d="M29.5987018,32.5421228 C12.067193,50.6362982 0.998947368,75.0123509 0.0883157895,101.97593 L43.8615614,101.97593 C44.7240702,87.0874737 50.906,73.639 60.5305614,63.4739825 L29.5987018,32.5421228" id="Fill-1" fill="#8AC2D5"></path>
                    <path d="M0.0327894737,106.91407 C0.377052632,134.199702 11.1232456,158.96814 28.4955789,177.451 L59.4422456,146.504333 C49.9657544,135.965439 44.1095789,122.124579 43.7801228,106.91407 L0.0327894737,106.91407" id="Fill-2" fill="#77BCD3"></path>
                    <path d="M102.523263,0.640403509 C75.6818421,1.26229825 51.342807,11.9418596 33.1153684,29.0772807 L64.0620351,60.0202456 C74.3381053,50.7806667 87.7569649,44.9763158 102.523263,44.3877368 L102.523263,0.640403509" id="Fill-3" fill="#9FC9D7"></path>
                    <path d="M176.869298,29.0772807 C158.64186,11.9418596 134.302825,1.26229825 107.461404,0.640403509 L107.461404,44.3877368 C122.227702,44.9763158 135.646561,50.7806667 145.926333,60.0202456 L176.869298,29.0772807" id="Fill-4" fill="#B2D0DA"></path>
                    <path d="M31.9604211,180.967667 C50.3100175,198.743491 75.1117719,209.870965 102.523263,210.503965 L102.523263,166.756632 C87.1905965,166.149544 73.3164211,159.900982 62.8959825,150.035807 L31.9604211,180.967667" id="Fill-5" fill="#62B5D1"></path>
                    <path d="M178.024246,180.967667 L147.092386,150.035807 C136.671947,159.900982 122.797772,166.149544 107.461404,166.756632 L107.461404,210.503965 C134.872895,209.870965 159.678351,198.743491 178.024246,180.967667" id="Fill-6" fill="#4BB0CF"></path>
                    <path d="M209.985193,83.2450526 L104.992333,83.2450526 L104.992333,121.943193 L163.953877,121.943193 C161.388561,131.17907 156.761368,139.552439 150.523912,146.485825 L181.489088,177.451 C198.865123,158.96814 209.611316,134.199702 209.951877,106.91407 L209.785298,106.91407 L209.985193,105.574035 L209.985193,83.2450526" id="Fill-7" fill="#00587C"></path>
                </g>
            </g>
        </g>
    </g>
</svg>