<svg xmlns="http://www.w3.org/2000/svg" xmlns:xlink="http://www.w3.org/1999/xlink" width="160" height="160" viewBox="0 0 160 160">
    <defs>
        <path id="b" d="M95.236 24.472l60.865 121.73c3.379 6.758.64 14.975-6.118 18.354a13.68 13.68 0 0 1-6.118 1.444H22.135c-7.556 0-13.68-6.125-13.68-13.68 0-2.124.494-4.218 1.444-6.118l60.865-121.73c3.379-6.758 11.596-9.497 18.354-6.118a13.68 13.68 0 0 1 6.118 6.118z"/>
        <filter id="a" width="97.6%" height="98.2%" x="1.8%" y="8.1%" filterUnits="objectBoundingBox">
            <feOffset dx="1" dy="4" in="SourceAlpha" result="shadowOffsetOuter1"/>
            <feGaussianBlur in="shadowOffsetOuter1" result="shadowBlurOuter1" stdDeviation="1.5"/>
            <feColorMatrix in="shadowBlurOuter1" values="0 0 0 0 0 0 0 0 0 0 0 0 0 0 0 0 0 0 0.144842618 0"/>
        </filter>
    </defs>
    <g fill="none" fill-rule="evenodd">
        <g transform="translate(-3 -16)">
            <use fill="#000" filter="url(#a)" xlink:href="#b"/>
            <use fill="#4A90E2" xlink:href="#b"/>
        </g>
        <path fill="#FFF" d="M77 64h11l-3.208 42.003h-4.584L77 64zm.183 48.348h10.634V122H77.183v-9.652z"/>
    </g>
</svg>
