<?xml version="1.0" encoding="utf-8"?>
<!-- Generator: Adobe Illustrator 22.0.1, SVG Export Plug-In . SVG Version: 6.00 Build 0)  -->
<svg version="1.1" id="Layer_1" xmlns="http://www.w3.org/2000/svg" xmlns:xlink="http://www.w3.org/1999/xlink" x="0px" y="0px"
	 viewBox="0 0 1280 1778.5" style="enable-background:new 0 0 1280 1778.5;" xml:space="preserve">
<style type="text/css">
	.st0{fill:#050618;}
	.st1{fill:#FFFFFF;}
</style>
<g id="background">
	<rect x="0.7" y="0" class="st0" width="1280" height="1138.5"/>
	
		<image style="overflow:visible;enable-background:new    ;" width="2000" height="2000" xlink:href="../../cyber search ui/chaingear/backgroud.png"  transform="matrix(0.426 0 0 0.426 216.4709 109.5)">
	</image>
	<rect x="641.3" y="1137.3" class="st0" width="640" height="640"/>
	<rect x="2.1" y="1136" class="st1" width="640" height="640"/>
</g>
<g id="logo_1_">
	<g id="logo_x5F_little">
		<g>
			<g>
				<path class="st0" d="M410.2,1433.6c1.2-7.8,2.3-14.7,3.4-21.6c0.8-5,1.5-10,2.3-15c0.6-3.9,3.8-6.5,7.2-6.1
					c4,0.6,6.4,3.9,5.8,8.1c-3.6,23.1-7.3,46.2-10.6,69.3c-1.3,9.3-2.7,18.5-6.5,27.1c-11.9,26.8-39.6,44-68.3,42.3
					c-33.9-2-61.5-27.3-66.5-60.9c-5.5-37,17.7-71.4,54.2-80.2c29.8-7.1,61.7,6.7,77,33.3C408.7,1431,409.2,1431.9,410.2,1433.6z
					 M347,1524.5c28,0.4,56.5-21.9,57.4-57.3c0.8-32.6-24.8-58.7-57.7-58.8c-31.2-0.1-56.6,25.2-57.1,57.2
					C289.1,1498.1,314.6,1524.1,347,1524.5z"/>
				<path class="st0" d="M353.9,1330.3c-3.1,1.3-5.7,2.5-8.3,3.6c-24.1,10.5-48.2,21-72.2,31.5c-5.6,2.4-11-1-10.4-6.6
					c0.3-3.1,2.4-4.7,5-5.9c16.4-7.1,32.8-14.2,49.1-21.3c20.1-8.7,40.1-17.4,60.2-26.2c26.3-11.5,57,5.8,60.5,34.3
					c2.9,23.5-11.8,44-35,48.8c-24,5-48.6-13.2-51-37.6c-0.6-6.3-0.2-12.5,1.7-18.6C353.6,1331.8,353.7,1331.3,353.9,1330.3z
					 M424.4,1345.4c-0.3-17.3-13.6-30.5-30.4-30.2c-15.8,0.3-29.4,14.4-29.1,30.3c0.3,17.1,13.9,30.6,30.5,30.2
					C411.3,1375.4,424.6,1361.5,424.4,1345.4z"/>
				<path class="st0" d="M242.4,1439.7c6.6,7,12.9,13.7,19.2,20.4c1.3,1.4,2.6,2.7,3.8,4.1c3.2,3.5,3.2,7.2,0.1,10.2
					c-2.8,2.6-6.5,2.3-9.6-1c-10.4-11.1-20.8-22.1-31.1-33.2c-4.7-5-9.7-9.7-13.6-15.3c-15.4-21.8-1.2-51.8,25.4-54.1
					c16.8-1.5,33.1,11.4,35.9,28.2c3.5,20.8-11.1,37.9-28.2,40.3C243.7,1439.2,243.3,1439.4,242.4,1439.7z M218.4,1404.8
					c-0.3,11.3,8.6,21,19.5,21.2c11.8,0.3,21.2-8.7,21.5-20.6c0.3-11.2-8.8-21.1-19.8-21.4C228,1383.7,218.8,1392.7,218.4,1404.8z"
					/>
			</g>
			<g>
				<path class="st0" d="M172.4,1600.4v-17.2c0-6.9,5.1-10.4,15.3-10.4c3.5,0,6.8,0.4,10,1.1v4c-3.6-0.9-6.9-1.3-9.9-1.3
					c-1.5,0-2.7,0.1-3.8,0.3c-1.1,0.2-2.1,0.5-3.1,0.9c-2.2,0.9-3.2,2.8-3.2,5.5v17c0,4.2,3.5,6.3,10.4,6.3c3,0,6.3-0.4,9.9-1.3v4.1
					c-3.2,0.7-6.6,1.1-10.2,1.1C177.5,1610.3,172.4,1607,172.4,1600.4z"/>
				<path class="st0" d="M205.1,1573.4h5.4v15.7h19.3v-15.7h5.4v36.3h-5.4v-16.9h-19.3v16.9h-5.4V1573.4z"/>
				<path class="st0" d="M255.2,1573.4h6.3l14.1,36.3h-5.7l-4.1-11h-15.6l-4.1,11h-5.4L255.2,1573.4z M264.5,1594.9l-6.2-16.4h-0.5
					l-6.2,16.4H264.5z"/>
				<path class="st0" d="M281.1,1573.4h5.4v36.3h-5.4V1573.4z"/>
				<path class="st0" d="M296,1573.4h6.6l19.8,30v-30h4.8v36.3h-6.5l-19.8-30.5v30.5H296V1573.4z"/>
				<path class="st0" d="M347.5,1610c-1.3-0.1-2.7-0.4-4.2-0.8c-1.6-0.4-3-1-4.1-1.7s-2-1.6-2.7-2.8c-0.7-1.3-1.1-2.7-1.1-4.3v-17.2
					c0-2.1,0.5-3.9,1.6-5.4s2.6-2.6,4.5-3.2c1.8-0.6,3.6-1.1,5.2-1.4c1.7-0.3,3.5-0.4,5.4-0.4c4.6,0,8.8,0.3,12.5,0.9v4.2
					c-1.4-0.3-3.4-0.6-6.1-0.9c-2.6-0.3-4.7-0.4-6.4-0.4c-7.7,0-11.5,2.2-11.5,6.6v17.1c0,1.2,0.4,2.2,1.1,3.1s1.7,1.5,3,2
					c1.2,0.4,2.4,0.8,3.6,0.9c1.2,0.2,2.5,0.3,4,0.3c2.5,0,5.2-0.3,8-1v-12.7h-8.5v-3.8h13.5v19.5c-4.9,1.1-9.3,1.7-13.4,1.7
					C350.3,1610.3,348.8,1610.2,347.5,1610z"/>
				<path class="st0" d="M373.7,1573.4h24.4v3.8h-19v11.9h17.1v3.8h-17.1v13h19.5v3.8h-25v-36.3L373.7,1573.4L373.7,1573.4z"/>
				<path class="st0" d="M416.8,1573.4h6.3l14.1,36.3h-5.7l-4.1-11h-15.6l-4.1,11h-5.4L416.8,1573.4z M426,1594.9l-6.2-16.4h-0.5
					l-6.2,16.4H426z"/>
				<path class="st0" d="M442.7,1573.4h12.8c3.2,0,5.7,0.2,7.5,0.6s3.1,1.1,4,2.1c0.8,1,1.3,2.5,1.3,4.4v6.3c0,2.2-0.9,3.8-2.7,5
					c-1.8,1.2-4,1.8-6.7,1.8l11.6,16.2h-6.7l-10.4-15.5h-5.3v15.5h-5.4L442.7,1573.4L442.7,1573.4z M455.2,1590.6
					c2.7,0,4.6-0.3,5.8-1c1.2-0.7,1.8-1.8,1.8-3.6v-5c0-2.7-2.4-4.1-7.1-4.1h-7.6v13.7H455.2z"/>
			</g>
		</g>
		<g>
			<g>
				<path class="st1" d="M1049.4,1433.8c1.2-7.8,2.3-14.7,3.4-21.6c0.8-5,1.5-10,2.3-15c0.6-3.9,3.8-6.5,7.2-6.1
					c4,0.6,6.4,3.9,5.8,8.1c-3.6,23.1-7.3,46.2-10.6,69.3c-1.3,9.3-2.7,18.5-6.5,27.1c-11.9,26.8-39.6,44-68.3,42.3
					c-33.9-2-61.5-27.3-66.5-60.9c-5.5-37,17.7-71.4,54.2-80.2c29.8-7.1,61.7,6.7,77,33.3
					C1047.8,1431.2,1048.4,1432.1,1049.4,1433.8z M986.2,1524.7c28,0.4,56.5-21.9,57.4-57.3c0.8-32.6-24.8-58.7-57.7-58.8
					c-31.2-0.1-56.6,25.2-57.1,57.2C928.2,1498.4,953.8,1524.4,986.2,1524.7z"/>
				<path class="st1" d="M993,1330.5c-3.1,1.3-5.7,2.5-8.3,3.6c-24.1,10.5-48.2,21-72.2,31.5c-5.6,2.4-11-1-10.4-6.6
					c0.3-3.1,2.4-4.7,5-5.9c16.4-7.1,32.8-14.2,49.1-21.3c20.1-8.7,40.1-17.4,60.2-26.2c26.3-11.5,57,5.8,60.5,34.3
					c2.9,23.5-11.8,44-35,48.8c-24,5-48.6-13.2-51-37.6c-0.6-6.3-0.2-12.5,1.7-18.6C992.8,1332,992.8,1331.5,993,1330.5z
					 M1063.5,1345.7c-0.3-17.3-13.6-30.5-30.4-30.2c-15.8,0.3-29.4,14.4-29.1,30.3c0.3,17.1,13.9,30.6,30.5,30.2
					C1050.5,1375.7,1063.8,1361.8,1063.5,1345.7z"/>
				<path class="st1" d="M881.5,1439.9c6.6,7,12.9,13.7,19.2,20.4c1.3,1.4,2.6,2.7,3.8,4.1c3.2,3.5,3.2,7.2,0.1,10.2
					c-2.8,2.6-6.5,2.3-9.6-1c-10.4-11.1-20.8-22.1-31.1-33.2c-4.7-5-9.7-9.7-13.6-15.3c-15.4-21.8-1.2-51.8,25.4-54.1
					c16.8-1.5,33.1,11.4,35.9,28.2c3.5,20.8-11.1,37.9-28.2,40.3C882.9,1439.4,882.5,1439.6,881.5,1439.9z M857.6,1405.1
					c-0.3,11.3,8.6,21,19.5,21.2c11.8,0.3,21.2-8.7,21.5-20.6c0.3-11.2-8.8-21.1-19.8-21.4C867.1,1384,857.9,1393,857.6,1405.1z"/>
			</g>
			<g>
				<path class="st1" d="M811.5,1600.7v-17.2c0-6.9,5.1-10.4,15.3-10.4c3.5,0,6.8,0.4,10,1.1v4c-3.6-0.9-6.9-1.3-9.9-1.3
					c-1.5,0-2.7,0.1-3.8,0.3c-1.1,0.2-2.1,0.5-3.1,0.9c-2.2,0.9-3.2,2.8-3.2,5.5v17c0,4.2,3.5,6.3,10.4,6.3c3,0,6.3-0.4,9.9-1.3v4.1
					c-3.2,0.7-6.6,1.1-10.2,1.1C816.6,1610.5,811.5,1607.2,811.5,1600.7z"/>
				<path class="st1" d="M844.2,1573.6h5.4v15.7H869v-15.7h5.4v36.3H869V1593h-19.3v16.9h-5.4L844.2,1573.6L844.2,1573.6z"/>
				<path class="st1" d="M894.4,1573.6h6.3l14.1,36.3h-5.7l-4.1-11h-15.6l-4.1,11h-5.4L894.4,1573.6z M903.6,1595.2l-6.2-16.4h-0.5
					l-6.2,16.4H903.6z"/>
				<path class="st1" d="M920.3,1573.6h5.4v36.3h-5.4V1573.6z"/>
				<path class="st1" d="M935.1,1573.6h6.6l19.8,30v-30h4.8v36.3h-6.5l-19.8-30.5v30.5h-4.8L935.1,1573.6L935.1,1573.6z"/>
				<path class="st1" d="M986.7,1610.3c-1.3-0.1-2.7-0.4-4.2-0.8c-1.6-0.4-3-1-4.1-1.7s-2-1.6-2.7-2.8c-0.7-1.3-1.1-2.7-1.1-4.3
					v-17.2c0-2.1,0.5-3.9,1.6-5.4s2.6-2.6,4.5-3.2c1.8-0.6,3.6-1.1,5.2-1.4c1.7-0.3,3.5-0.4,5.4-0.4c4.6,0,8.8,0.3,12.5,0.9v4.2
					c-1.4-0.3-3.4-0.6-6.1-0.9c-2.6-0.3-4.7-0.4-6.4-0.4c-7.7,0-11.5,2.2-11.5,6.6v17.1c0,1.2,0.4,2.2,1.1,3.1c0.7,0.9,1.7,1.5,3,2
					c1.2,0.4,2.4,0.8,3.6,0.9c1.2,0.2,2.5,0.3,4,0.3c2.5,0,5.2-0.3,8-1v-12.7H991v-3.8h13.5v19.5c-4.9,1.1-9.3,1.7-13.4,1.7
					C989.5,1610.5,988,1610.4,986.7,1610.3z"/>
				<path class="st1" d="M1012.9,1573.6h24.4v3.8h-19v11.9h17.1v3.8h-17.1v13h19.5v3.8h-25L1012.9,1573.6L1012.9,1573.6z"/>
				<path class="st1" d="M1055.9,1573.6h6.3l14.1,36.3h-5.7l-4.1-11h-15.6l-4.1,11h-5.4L1055.9,1573.6z M1065.2,1595.2l-6.2-16.4
					h-0.5l-6.2,16.4H1065.2z"/>
				<path class="st1" d="M1081.9,1573.6h12.8c3.2,0,5.7,0.2,7.5,0.6s3.1,1.1,4,2.1c0.8,1,1.3,2.5,1.3,4.4v6.3c0,2.2-0.9,3.8-2.7,5
					c-1.8,1.2-4,1.8-6.7,1.8l11.6,16.2h-6.7l-10.4-15.5h-5.3v15.5h-5.4L1081.9,1573.6L1081.9,1573.6z M1094.4,1590.9
					c2.7,0,4.6-0.3,5.8-1c1.2-0.7,1.8-1.8,1.8-3.6v-5c0-2.7-2.4-4.1-7.1-4.1h-7.6v13.7H1094.4z"/>
			</g>
		</g>
	</g>
	<g id="chaingear">
		<g>
			<path class="st1" d="M487,693.5v-17.2c0-6.9,5.1-10.4,15.3-10.4c3.5,0,6.8,0.4,10,1.1v4c-3.6-0.9-6.9-1.3-9.9-1.3
				c-1.5,0-2.7,0.1-3.8,0.3c-1.1,0.2-2.1,0.5-3.1,0.9c-2.2,0.9-3.2,2.8-3.2,5.5v17c0,4.2,3.5,6.3,10.4,6.3c3,0,6.3-0.4,9.9-1.3v4.1
				c-3.2,0.7-6.6,1.1-10.2,1.1C492.1,703.4,487,700.1,487,693.5z"/>
			<path class="st1" d="M519.7,666.5h5.4v15.7h19.3v-15.7h5.4v36.3h-5.4V686h-19.3v16.9h-5.4V666.5z"/>
			<path class="st1" d="M569.8,666.5h6.3l14.1,36.3h-5.7l-4.1-11h-15.6l-4.1,11h-5.4L569.8,666.5z M579.1,688l-6.2-16.4h-0.5
				l-6.1,16.4H579.1z"/>
			<path class="st1" d="M595.8,666.5h5.4v36.3h-5.4V666.5z"/>
			<path class="st1" d="M610.6,666.5h6.6l19.8,30v-30h4.8v36.3h-6.5l-19.8-30.5v30.5h-4.8L610.6,666.5L610.6,666.5z"/>
			<path class="st1" d="M662.1,703.2c-1.3-0.1-2.7-0.4-4.2-0.8c-1.6-0.4-3-1-4.1-1.7s-2-1.6-2.7-2.8c-0.7-1.3-1.1-2.7-1.1-4.3v-17.2
				c0-2.1,0.5-3.9,1.6-5.4s2.6-2.6,4.5-3.2c1.8-0.6,3.6-1.1,5.2-1.4c1.7-0.3,3.5-0.4,5.4-0.4c4.6,0,8.8,0.3,12.5,0.9v4.2
				c-1.4-0.3-3.4-0.6-6.1-0.9c-2.6-0.3-4.7-0.4-6.4-0.4c-7.7,0-11.5,2.2-11.5,6.6v17.1c0,1.2,0.4,2.2,1.1,3.1c0.7,0.9,1.7,1.5,3,2
				c1.2,0.4,2.4,0.8,3.6,0.9c1.2,0.2,2.5,0.3,4,0.3c2.5,0,5.2-0.3,8-1V686h-8.5v-3.8h13.5v19.5c-4.9,1.1-9.3,1.7-13.4,1.7
				C665,703.4,663.5,703.3,662.1,703.2z"/>
			<path class="st1" d="M688.4,666.5h24.4v3.8h-19v11.9h17.1v3.8h-17.1v13h19.5v3.8h-25L688.4,666.5L688.4,666.5z"/>
			<path class="st1" d="M731.4,666.5h6.3l14.1,36.3h-5.7l-4.1-11h-15.6l-4.1,11h-5.4L731.4,666.5z M740.6,688l-6.2-16.4h-0.5
				l-6.2,16.4H740.6z"/>
			<path class="st1" d="M757.3,666.5h12.8c3.2,0,5.7,0.2,7.5,0.6c1.8,0.4,3.1,1.1,4,2.1c0.8,1,1.3,2.5,1.3,4.4v6.3
				c0,2.2-0.9,3.8-2.7,5s-4,1.8-6.7,1.8l11.6,16.2h-6.7L768,687.4h-5.3v15.5h-5.4V666.5z M769.9,683.7c2.7,0,4.6-0.3,5.8-1
				s1.8-1.8,1.8-3.6v-5c0-2.7-2.4-4.1-7.1-4.1h-7.6v13.7L769.9,683.7L769.9,683.7z"/>
		</g>
		<g>
			<g>
				<path class="st1" d="M724.6,522.6c1.2-7.7,2.3-14.6,3.4-21.5c0.8-5,1.5-10,2.3-14.9c0.6-3.9,3.8-6.5,7.1-6
					c4,0.6,6.4,3.9,5.8,8.1c-3.5,23-7.3,46-10.6,69.1c-1.3,9.3-2.6,18.4-6.5,27.1c-11.9,26.7-39.5,43.9-68.1,42.2
					c-33.8-2-61.3-27.2-66.3-60.8c-5.5-36.9,17.7-71.2,54-79.9c29.7-7.1,61.5,6.6,76.8,33.2C723.1,519.9,723.6,520.9,724.6,522.6z
					 M661.6,613.2c27.9,0.4,56.3-21.8,57.2-57.1c0.8-32.5-24.8-58.5-57.5-58.6c-31.1-0.1-56.4,25.2-57,57
					C603.9,586.9,629.3,612.8,661.6,613.2z"/>
				<path class="st1" d="M668.5,419.5c-3,1.3-5.7,2.4-8.3,3.6c-24,10.5-48,20.9-72,31.4c-5.6,2.4-10.9-1-10.3-6.6
					c0.3-3,2.3-4.7,5-5.8c16.3-7.1,32.7-14.2,49-21.3c20-8.7,40-17.4,60-26.2c26.3-11.5,56.8,5.8,60.3,34.2
					c2.9,23.4-11.8,43.8-34.9,48.6c-23.9,5-48.4-13.2-50.9-37.5c-0.6-6.3-0.2-12.5,1.7-18.5C668.2,421.1,668.3,420.5,668.5,419.5z
					 M738.7,434.7c-0.3-17.2-13.5-30.4-30.3-30.1c-15.7,0.3-29.3,14.4-29,30.2c0.3,17,13.9,30.5,30.4,30.2
					C725.8,464.6,739,450.7,738.7,434.7z"/>
				<path class="st1" d="M557.3,528.6c6.6,7,12.9,13.7,19.1,20.3c1.3,1.4,2.6,2.7,3.8,4.1c3.2,3.5,3.2,7.2,0.1,10.1
					c-2.8,2.6-6.5,2.3-9.6-1c-10.4-11-20.7-22-31-33.1c-4.6-5-9.7-9.7-13.6-15.2c-15.3-21.7-1.2-51.6,25.3-54
					c16.8-1.5,33,11.4,35.8,28.1c3.5,20.7-11.1,37.8-28.1,40.1C558.6,528.1,558.2,528.3,557.3,528.6z M533.4,493.9
					c-0.3,11.2,8.6,20.9,19.5,21.2c11.8,0.3,21.1-8.7,21.4-20.5c0.3-11.2-8.8-21-19.8-21.3C542.9,472.8,533.7,481.8,533.4,493.9z"/>
			</g>
			<g>
				<g>
					<path class="st1" d="M661.8,483.9c-39.2,0-71,32.1-71,71.8s31.8,71.8,71,71.8s71-32.1,71-71.8
						C732.9,516.1,701.1,483.9,661.8,483.9z M661.8,613.3c-31.5,0-57-25.8-57-57.6s25.5-57.6,57-57.6s57,25.8,57,57.6
						S693.3,613.3,661.8,613.3z"/>
				</g>
			</g>
			<g>
				<g>
					<path class="st1" d="M708.9,391.3c-24,0-43.5,19.5-43.5,43.5s19.5,43.5,43.5,43.5s43.5-19.5,43.5-43.5S733,391.3,708.9,391.3z
						 M708.9,464.5c-16.4,0-29.6-13.3-29.6-29.6c0-16.4,13.3-29.6,29.6-29.6c16.4,0,29.6,13.3,29.6,29.6
						C738.6,451.2,725.3,464.5,708.9,464.5z"/>
				</g>
			</g>
			<g>
				<g>
					<path class="st1" d="M553.9,459.7c-19,0-34.4,15.4-34.4,34.4c0,19,15.4,34.4,34.4,34.4s34.4-15.4,34.4-34.4
						C588.3,475.1,572.9,459.7,553.9,459.7z M553.9,514.6c-11.3,0-20.4-9.1-20.4-20.4s9.1-20.4,20.4-20.4s20.4,9.1,20.4,20.4
						C574.3,505.4,565.2,514.6,553.9,514.6z"/>
				</g>
			</g>
		</g>
	</g>
</g>
</svg>
