<svg xmlns="http://www.w3.org/2000/svg" xmlns:xlink="http://www.w3.org/1999/xlink" width="290" height="300" viewBox="0 0 290 300">
    <defs>
        <path id="a" d="M67.196 32.671c.156.76.145 1.553.21 2.333.803 3.85 2.003 7.605 1.909 11.634-.167 7.13-4.33 11.398-11.501 11.42-17.026.055-34.05.082-51.076.118-4.916.012-4.92.004-5.78 4.854-.086.484-.083.984-.122 1.476 2.8 1.305 1.52 3.862 1.825 5.933 2.18 1.601 2.627 3.492 1.136 5.854-1.088 1.724-1.458 3.72-1.055 5.688.749 3.647.53 7.213-.266 10.813-1.015 4.589.74 9.217-.097 13.82.605.332 1.173.78 1.819.98 3.494 1.074 4.073 3.51 3.818 6.845-.598 7.862-.56 15.782-1.387 23.613-.602 5.706-.097 11.43-.936 17.122-.339 2.302-.907 4.962 1.08 7.052v-.02c15.085-.005 30.17-.012 45.256-.02 1.002-1.676 1.18-3.317.805-5.351-.77-4.165-.275-8.451-.62-12.7-.375-4.6-.912-9.235-.795-13.886.12-4.742-.837-9.434-.65-14.196.097-2.536-.844-4.235-4.044-3.879-2.928.327-5.923.07-8.91-.064 6.058-1.348 11.485-3.846 16.193-7.93 6.753-5.861 10.522-13.21 11.067-22.092.273-4.44.054-8.913.054-13.37 0-1.124-.026-2.053 1.574-2.293 4.672-.703 5.71-3.15 3.207-7.143-.137-.22-.18-.5-.272-.77.825-.51 1.664-.456 2.48-.401.257.016.513.033.764.032 10.112-.026 20.225-.086 30.335.036 2.364.028 3.04-.675 3.02-3.022-.11-11.886-.036-23.774-.067-35.662-.006-1.704-.097-3.04 2.353-3.076 2.286-.034 3.483-1.756 3.576-3.981.112-2.668-.046-5.35.05-8.021.069-1.907-1.75-2.54-2.386-3.946C93.32.451 76.88.428 60.438.406c2.256 10.755 4.518 21.508 6.758 32.265z"/>
        <path id="c" d="M72.28.472c.636 1.404 2.457 2.038 2.388 3.945-.098 2.671.06 5.352-.052 8.022-.092 2.224-1.289 3.946-3.574 3.98-2.451.036-2.36 1.372-2.354 3.076.031 11.888-.042 23.776.065 35.662.022 2.347-.653 3.05-3.018 3.022-10.111-.122-20.223-.062-30.334-.036-.252.001-.507-.016-.765-.032-.816-.055-1.655-.109-2.48.401.092.27.136.55.272.77 2.504 3.993 1.465 6.44-3.206 7.143-1.602.24-1.575 1.169-1.575 2.293 0 4.457.219 8.929-.053 13.37-.546 8.88-4.314 16.232-11.068 22.092-4.707 4.085-10.134 6.58-16.193 7.93 2.988.134 5.982.39 8.91.064 3.199-.356 4.141 1.343 4.042 3.879-.185 4.76.773 9.453.652 14.196-.117 4.651.42 9.287.794 13.886.347 4.249-.149 8.535.62 12.7.377 2.034.198 3.675-.805 5.352l30.326.165c.4-.19.799-.38 1.2-.569 1.108-1.061 1.22-2.396 1.133-3.836-.408-6.707-.788-13.417-1.163-20.128-.453-8.097-.789-16.203-1.419-24.287-.143-1.845.466-2.436 1.934-2.99C61.16 105.017 68.78 93.916 68.813 78.19c.014-7.525.014-7.525 7.492-7.614 8.033-.095 12.908-4.12 14.563-12.03.015-.278.026-.558.04-.833.013-6.616.027-13.235.039-19.853l-2.55-.063c-5.197.28-8.531-1.745-9.579-5.82-1.388-5.404 2.197-10.11 7.719-10.122.59-.001 1.178.027 1.767.042.852-.003 1.707-.004 2.56-.005l.045-3.18c-.082-.084-.094-.176-.035-.276-.085-.613-.07-1.096.68-1.396 5.188-2.08 5.182-2.096 5.183-7.64 0-1.29.02-2.577-.005-3.866-.068-3.438-1.651-5.093-5.115-5.11a739.21 739.21 0 0 0-4.183-.012c-5.05 0-10.102.042-15.153.06z"/>
        <path id="e" d="M8.01.193c-.855.001-1.707.002-2.56.005C.466 3.553-.94 7.485 1.19 11.794c.973 1.965 2.949 2.826 4.352 4.305l2.55.06c4.201-.204 7.104-2.097 8.073-6.361.219-.96.678-1.344 1.602-1.337 1.088.009 2.175.01 3.262-.012 3.062-.062 5.185-1.756 5.195-4.127.011-2.376-2.107-4.12-5.167-4.142-1.25-.01-2.5-.013-3.751-.013-3.1 0-6.198.02-9.297.026z"/>
        <path id="g" d="M.122 1.338c.36-.26.38-.536.04-.833-.013.275-.025.555-.04.833z"/>
        <path id="i" d="M.164.959L.288.808.128.683C.07.783.082.875.164.959z"/>
        <path id="k" d="M8.614.156C3.092.168-.493 4.874.896 10.278c1.047 4.074 4.381 6.1 9.578 5.821-1.403-1.48-3.38-2.34-4.352-4.305-2.13-4.31-.725-8.241 4.26-11.596C9.801.183 9.221.156 8.64.156h-.027z"/>
        <path id="m" d="M1.292.369a.44.44 0 0 0-.439.438V45.84c0 .242.197.44.44.44h39.182c4.573 0 8.316-3.74 8.316-8.309V.807c0-.24-.199-.438-.44-.438H1.293z"/>
        <path id="o" d="M8.074.324C4.042.324.741 3.622.741 7.654v12.533c0 17.25 14.123 31.363 31.386 31.363h15.31c17.265 0 31.388-14.113 31.388-31.363V7.653c0-4.031-3.3-7.33-7.334-7.33H8.074z"/>
        <path id="q" d="M3.979.472A3.358 3.358 0 0 0 .627 3.82v9.536a3.36 3.36 0 0 0 3.352 3.35h54.508a3.36 3.36 0 0 0 3.352-3.35V3.82A3.359 3.359 0 0 0 58.487.472H3.98z"/>
        <path id="s" d="M1.412.463A1.25 1.25 0 0 0 .165 1.708a1.25 1.25 0 0 0 1.247 1.247h118.26a1.25 1.25 0 0 0 1.247-1.247 1.25 1.25 0 0 0-1.247-1.245H1.412z"/>
        <path id="u" d="M.932 13.511l15.148 15.14 13.873 29.793 4.56-20.72L16.507.463z"/>
        <path id="w" d="M.258 25.017l.567 32.547 13.682 23.519L1.5 111.096l51.227-12.293 8.398-35.66-11.524-22.265L39.403 23.88 51.031 1.336 22.234.36z"/>
        <path id="y" d="M.798 23.962l1.009 33.572 9.717 15.872 8.501-17.898 8.811-16.678 15.372 14.76 13.149 31.7 5.693-22.633-18.607-36.942L52.037.975 23.425.006z"/>
        <path id="A" d="M6.334 39.313L22.03 26.148 30.16.798.738.005z"/>
        <path id="C" d="M8.651 12.214L.816 25.252l46.359 12.225L38.724.98z"/>
        <path id="E" d="M.816 13.805l11.835-.143L3.611.982z"/>
        <path id="G" d="M.815 23.668l3.838-5.69L7.72 5.907 2.935.982z"/>
        <path id="I" d="M4.456 28.642L.218 35.228l15.839-5 6.505-11.39.679-18.792z"/>
        <path id="K" d="M29.42 20.317L.815 72.987l93.705-49.66L78.423 2.637 34.739.982z"/>
        <path id="M" d="M18.5 8.225l4.155 12.982-3.383 16.378 2.102 15.936-20.558 7.63 60.787-3.802.96-20.636-3.557-14.24 6.91-10.973L22.596.982z"/>
        <path id="O" d="M.816 1.12l4.721 18.603L12.651.983z"/>
        <path id="Q" d="M.816 7.269l22.849 4.562L30.407.981z"/>
        <path id="S" d="M.816 25.112l6.729 4.145 25.82.329L14.138.981z"/>
        <path id="U" d="M.815 23.668l22.434-.03L41.257 3.815 16.095.982z"/>
        <path id="W" d="M.84 8.833L19.13 22.7l2.39 66.026-.216-5.958 7.977 5.958 7.004-67.538L32.775.033z"/>
        <path id="Y" d="M1.404 6.94s-5.011 25.199 6.415 28.066c4.236 1.064 5.449-5.041 3.358-11.484-2.051-6.327.178-23.17.178-23.17L1.404 6.938z"/>
        <path id="aa" d="M1.912 24.508C-.18 30.951 1.035 37.057 5.27 35.992c11.426-2.867 6.705-26.175 6.705-26.175L1.262.578s2.702 17.604.65 23.93z"/>
        <path id="ac" d="M5.218.227v.092c-.13-.031-.26-.057-.393-.057C2.236.262.138 6.36.138 13.88s2.098 13.617 4.687 13.617c.133 0 .264-.026.393-.058v.058H41.32V.227"/>
        <path id="ae" d="M5.218.227v.092c-.13-.031-.26-.057-.393-.057C2.236.262.138 6.36.138 13.88s2.098 13.617 4.687 13.617c.133 0 .264-.026.393-.058v.058H41.32V.227"/>
        <path id="ag" d="M5.218.227v.092c-.13-.031-.26-.057-.393-.057C2.236.262.138 6.36.138 13.88s2.098 13.617 4.687 13.617c.133 0 .264-.026.393-.058v.058H41.32V.227"/>
        <path id="ai" d="M5.218.227v.092c-.13-.031-.26-.057-.393-.057C2.236.262.138 6.36.138 13.88s2.098 13.617 4.687 13.617c.133 0 .264-.026.393-.058v.058H41.32V.227"/>
        <path id="ak" d="M5.218.227v.092c-.13-.031-.26-.057-.393-.057C2.236.262.138 6.36.138 13.88s2.098 13.617 4.687 13.617c.133 0 .264-.026.393-.058v.058H41.32V.227"/>
        <path id="am" d="M5.218.227v.092c-.13-.031-.26-.057-.393-.057C2.236.262.138 6.36.138 13.88s2.098 13.617 4.687 13.617c.133 0 .264-.026.393-.058v.058H41.32V.227"/>
        <path id="ao" d="M5.218.227v.092c-.13-.031-.26-.057-.393-.057C2.236.262.138 6.36.138 13.88s2.098 13.617 4.687 13.617c.133 0 .264-.026.393-.058v.058H41.32V.227"/>
        <path id="aq" d="M5.218.227v.092c-.13-.031-.26-.057-.393-.057C2.236.262.138 6.36.138 13.88s2.098 13.617 4.687 13.617c.133 0 .264-.026.393-.058v.058H41.32V.227"/>
        <path id="as" d="M5.218.227v.092c-.13-.031-.26-.057-.393-.057C2.236.262.138 6.36.138 13.88s2.098 13.617 4.687 13.617c.133 0 .264-.026.393-.058v.058H41.32V.227"/>
        <path id="au" d="M5.218.227v.092c-.13-.031-.26-.057-.393-.057C2.236.262.138 6.36.138 13.88s2.098 13.617 4.687 13.617c.133 0 .264-.026.393-.058v.058H41.32V.227"/>
        <path id="aw" d="M5.218.227v.092c-.13-.031-.26-.057-.393-.057C2.236.262.138 6.36.138 13.88s2.098 13.617 4.687 13.617c.133 0 .264-.026.393-.058v.058H41.32V.227"/>
        <path id="ay" d="M5.218.227v.092c-.13-.031-.26-.057-.393-.057C2.236.262.138 6.36.138 13.88s2.098 13.617 4.687 13.617c.133 0 .264-.026.393-.058v.058H41.32V.227"/>
        <path id="aA" d="M5.218.227v.092c-.13-.031-.26-.057-.393-.057C2.236.262.138 6.36.138 13.88s2.098 13.617 4.687 13.617c.133 0 .264-.026.393-.058v.058H41.32V.227"/>
        <path id="aC" d="M5.218.227v.092c-.13-.031-.26-.057-.393-.057C2.236.262.138 6.36.138 13.88s2.098 13.617 4.687 13.617c.133 0 .264-.026.393-.058v.058H41.32V.227"/>
        <path id="aE" d="M5.218.227v.092c-.13-.031-.26-.057-.393-.057C2.236.262.138 6.36.138 13.88s2.098 13.617 4.687 13.617c.133 0 .264-.026.393-.058v.058H41.32V.227"/>
        <path id="aG" d="M5.218.227v.092c-.13-.031-.26-.057-.393-.057C2.236.262.138 6.36.138 13.88s2.098 13.617 4.687 13.617c.133 0 .264-.026.393-.058v.058H41.32V.227"/>
        <path id="aI" d="M5.218.227v.092c-.13-.031-.26-.057-.393-.057C2.236.262.138 6.36.138 13.88s2.098 13.617 4.687 13.617c.133 0 .264-.026.393-.058v.058H41.32V.227"/>
        <path id="aK" d="M5.218.227v.092c-.13-.031-.26-.057-.393-.057C2.236.262.138 6.36.138 13.88s2.098 13.617 4.687 13.617c.133 0 .264-.026.393-.058v.058H41.32V.227"/>
        <path id="aM" d="M5.218.227v.092c-.13-.031-.26-.057-.393-.057C2.236.262.138 6.36.138 13.88s2.098 13.617 4.687 13.617c.133 0 .264-.026.393-.058v.058H41.32V.227"/>
        <path id="aO" d="M5.218.227v.092c-.13-.031-.26-.057-.393-.057C2.236.262.138 6.36.138 13.88s2.098 13.617 4.687 13.617c.133 0 .264-.026.393-.058v.058H41.32V.227H5.218z"/>
        <path id="aQ" d="M17.981.586L4.065 4.983a3.27 3.27 0 0 0-2.13 2.129l-1.481 4.69c-.776 2.458 1.484 4.78 3.965 4.073l3.83-1.092c.343-.098.668-.25.962-.454l11.568-7.996c2.093-1.445 1.796-4.619-.527-5.629a3.236 3.236 0 0 0-2.27-.118z"/>
        <path id="aS" d="M17.446.65L3.279 4.186a3.242 3.242 0 0 0-1.876 1.288c-1.454 2.078-.05 4.936 2.491 5.073l14.042.759c.053.002.108.004.16.004h.03a3.26 3.26 0 0 0 .866-.122l3.837-1.073c2.486-.696 3.202-3.858 1.255-5.545l-3.712-3.222A3.263 3.263 0 0 0 17.446.65z"/>
    </defs>
    <g fill="none" fill-rule="evenodd">
        <g transform="translate(86.523 123.428)">
            <mask id="b" fill="#fff">
                <use xlink:href="#a"/>
            </mask>
            <path fill="#FEDA3C" d="M-4.095 167.158h121.178V-4.526H-4.095z" mask="url(#b)"/>
        </g>
        <g transform="translate(124.005 123.428)">
            <mask id="d" fill="#fff">
                <use xlink:href="#c"/>
            </mask>
            <path fill="#FCBB29" d="M-4.598 167.283h106.274V-4.52H-4.598z" mask="url(#d)"/>
        </g>
        <g transform="translate(206.86 145.128)">
            <mask id="f" fill="#fff">
                <use xlink:href="#e"/>
            </mask>
            <path fill="#D6DBEA" d="M-4.703 21.091h35.858V-4.765H-4.703z" mask="url(#f)"/>
        </g>
        <g transform="translate(214.75 180.637)">
            <mask id="h" fill="#fff">
                <use xlink:href="#g"/>
            </mask>
            <path fill="#F6D4B2" d="M-4.809 6.27H5.337V-4.427H-4.809z" mask="url(#h)"/>
        </g>
        <g transform="translate(214.75 141.183)">
            <mask id="j" fill="#fff">
                <use xlink:href="#i"/>
            </mask>
            <path fill="#F6D4B2" d="M-4.84 5.89H5.219V-4.25h-10.06z" mask="url(#j)"/>
        </g>
        <g transform="translate(201.927 145.128)">
            <mask id="l" fill="#fff">
                <use xlink:href="#k"/>
            </mask>
            <path fill="#FEDA3C" d="M-4.335 21.057h19.741V-4.776H-4.335z" mask="url(#l)"/>
        </g>
        <path fill="#FEDA3C" d="M145.024 181.546h39.183c4.573 0 8.315-3.74 8.315-8.31v-37.164a.44.44 0 0 0-.438-.44h-47.06a.44.44 0 0 0-.439.44v45.034c0 .242.197.44.44.44"/>
        <g transform="translate(143.732 135.264)">
            <mask id="n" fill="#fff">
                <use xlink:href="#m"/>
            </mask>
            <path fill="#FEDA3C" d="M-4.08 51.213h57.802V-4.564H-4.08z" mask="url(#n)"/>
        </g>
        <g transform="translate(72.714 183.596)">
            <mask id="p" fill="#fff">
                <use xlink:href="#o"/>
            </mask>
            <path fill="#FEDA3C" d="M-4.191 56.482h87.948v-61.09H-4.19z" mask="url(#p)"/>
        </g>
        <g transform="translate(136.827 123.428)">
            <mask id="r" fill="#fff">
                <use xlink:href="#q"/>
            </mask>
            <path fill="#FEDA3C" d="M-4.304 21.638H66.77V-4.46H-4.304z" mask="url(#r)"/>
        </g>
        <path fill="#FCBB29" d="M56.371 288.146h118.26a1.25 1.25 0 0 0 1.247-1.246 1.25 1.25 0 0 0-1.247-1.245H56.371a1.25 1.25 0 0 0-1.246 1.245 1.25 1.25 0 0 0 1.246 1.246"/>
        <g transform="translate(54.96 285.192)">
            <mask id="t" fill="#fff">
                <use xlink:href="#s"/>
            </mask>
            <path fill="#FCBB29" d="M-700.489 889.695H877.693v-2082.214H-700.489z" mask="url(#t)"/>
            <path fill="#FCBB29" d="M-4.766 7.886H125.85V-4.469H-4.766z" mask="url(#t)"/>
        </g>
        <g transform="translate(136.827 86.933)">
            <mask id="v" fill="#fff">
                <use xlink:href="#u"/>
            </mask>
            <path fill="#D6C0B3" d="M29.962 65.42L-14.04 21.541 15.21-7.794l44.004 43.878z" mask="url(#v)"/>
        </g>
        <g transform="translate(110.195 62.273)">
            <mask id="x" fill="#fff">
                <use xlink:href="#w"/>
            </mask>
            <path fill="#F6851B" d="M21.05 137.556l-71.495-71.292 86.54-86.788 71.495 71.292z" mask="url(#x)"/>
        </g>
        <path stroke="#F6851B" d="M111.695 173.37l13.008-30.014-13.682-23.518-.567-32.548 21.976-24.655 28.797.974-11.629 22.544 10.2 16.999 11.523 22.264-8.398 35.66"/>
        <g transform="translate(109.21 62.273)">
            <mask id="z" fill="#fff">
                <use xlink:href="#y"/>
            </mask>
            <path fill="#D7C1B3" d="M39.472 108.238L-26.183 42.77l63.378-63.56 65.655 65.468z" mask="url(#z)"/>
        </g>
        <g transform="translate(131.895 62.273)">
            <mask id="B" fill="#fff">
                <use xlink:href="#A"/>
            </mask>
            <path fill="#E6CFC0" d="M8.227 46.74l-30.732-30.643 37.608-37.718L45.836 9.024z" mask="url(#B)"/>
        </g>
        <g transform="translate(107.236 103.7)">
            <mask id="D" fill="#fff">
                <use xlink:href="#C"/>
            </mask>
            <path fill="#E37725" d="M-4.116 42.409h56.223v-46.36H-4.116z" mask="url(#D)"/>
        </g>
        <g transform="translate(67.782 122.442)">
            <mask id="F" fill="#fff">
                <use xlink:href="#E"/>
            </mask>
            <path fill="#F6851F" d="M-4.116 18.736h21.7V-3.95h-21.7z" mask="url(#F)"/>
        </g>
        <path stroke="#F6851F" stroke-linecap="round" stroke-linejoin="round" d="M71.392 123.424l9.042 12.68-11.836.142z"/>
        <g transform="translate(79.618 136.25)">
            <mask id="H" fill="#fff">
                <use xlink:href="#G"/>
            </mask>
            <path fill="#CD6328" d="M-4.116 28.6h16.768V-3.95H-4.116z" mask="url(#H)"/>
        </g>
        <path stroke="#CD6328" stroke-linecap="round" stroke-linejoin="round" d="M87.338 142.159l-3.067 12.069-3.837 5.691 2.12-22.686z"/>
        <g transform="translate(96.386 100.742)">
            <mask id="J" fill="#fff">
                <use xlink:href="#I"/>
            </mask>
            <path fill="#CD6328" d="M-4.714 40.16h32.887V-4.885H-4.714z" mask="url(#J)"/>
        </g>
        <path stroke="#CD6328" stroke-linecap="round" stroke-linejoin="round" d="M119.627 100.788l-18.783 28.596-4.24 6.586 15.84-5 6.505-11.389z"/>
        <g transform="translate(52.986 73.124)">
            <mask id="L" fill="#fff">
                <use xlink:href="#K"/>
            </mask>
            <path fill="#F6851F" d="M-4.116 77.918L99.452 51.286V-3.95H-4.116z" mask="url(#L)"/>
        </g>
        <path stroke="#F6851F" stroke-linecap="round" stroke-linejoin="round" d="M87.725 74.105l43.685 1.655 16.096 20.69-93.705 49.66 28.606-52.67z"/>
        <g transform="translate(68.768 65.233)">
            <mask id="N" fill="#fff">
                <use xlink:href="#M"/>
            </mask>
            <path fill="#E6CFC0" d="M-4.116 66.081h74.964V-3.95H-4.116z" mask="url(#N)"/>
        </g>
        <g transform="translate(67.782 135.264)">
            <mask id="P" fill="#fff">
                <use xlink:href="#O"/>
            </mask>
            <path fill="#E37725" d="M-4.116 24.654h21.7V-3.95h-21.7z" mask="url(#P)"/>
        </g>
        <path stroke="#E37725" stroke-linecap="round" stroke-linejoin="round" d="M80.434 136.246l-7.115 18.741-4.722-18.602z"/>
        <g transform="translate(117.1 112.578)">
            <mask id="R" fill="#fff">
                <use xlink:href="#Q"/>
            </mask>
            <path fill="#E37725" d="M-4.116 16.763h39.454V-3.95H-4.116z" mask="url(#R)"/>
        </g>
        <path stroke="#E37725" stroke-linecap="round" stroke-linejoin="round" d="M147.506 113.56l-6.74 10.85-22.85-4.563z"/>
        <g transform="translate(104.277 119.483)">
            <mask id="T" fill="#fff">
                <use xlink:href="#S"/>
            </mask>
            <path fill="#E37725" d="M-4.116 34.518h42.414V-3.95H-4.116z" mask="url(#T)"/>
        </g>
        <path stroke="#E37725" stroke-linecap="round" stroke-linejoin="round" d="M105.093 144.595l6.729 4.145 25.82.329-19.228-28.605z"/>
        <g transform="translate(79.618 135.264)">
            <mask id="V" fill="#fff">
                <use xlink:href="#U"/>
            </mask>
            <path fill="#F6851F" d="M-4.116 28.6h50.304V-3.95H-4.116z" mask="url(#V)"/>
        </g>
        <path stroke="#F6851F" stroke-linecap="round" stroke-linejoin="round" d="M95.714 136.246l25.16 2.833-18.007 19.823-22.433.03z"/>
        <path fill="#E4761B" d="M134.684 76.732L148.088 96.3l-16.757 5.647-3.557-14.24z"/>
        <path stroke="#E37725" stroke-linecap="round" stroke-linejoin="round" d="M150.664 161.253l6.706 28.256-41.427-8.949z"/>
        <path fill="#E4761B" d="M80.434 168.484L56.76 195.18l6.744 62.88 8.758.496 3.438-24.79-3.158-45.259z"/>
        <g transform="translate(126.964 174.719)">
            <mask id="X" fill="#fff">
                <use xlink:href="#W"/>
            </mask>
            <path fill="#F6851B" d="M-4.091 93.658h45.31V-4.899h-45.31z" mask="url(#X)"/>
        </g>
        <path fill="#E4761B" d="M148.268 257.487l7.976 5.959 7.005-67.54-3.51-21.154-31.935 8.8 18.29 13.868 2.39 66.026"/>
        <g transform="translate(146.69 245.737)">
            <mask id="Z" fill="#fff">
                <use xlink:href="#Y"/>
            </mask>
            <path fill="#6A2E17" d="M-4.785 40.06H17.11V-4.58H-4.785z" mask="url(#Z)"/>
        </g>
        <g transform="translate(60.877 244.75)">
            <mask id="ab" fill="#fff">
                <use xlink:href="#aa"/>
            </mask>
            <path fill="#6A2E17" d="M-4.022 41.047h21.896V-3.594H-4.022z" mask="url(#ab)"/>
        </g>
        <path fill="#FCFBF5" d="M171.552 203.513c2.402-.818 3.386-2.655 3.614-5.034.497-.51.266-1.421.994-1.805.93 5.276 1.296 6.35 7.709 7.867l-4.104 1.403c-3.045 1.15-3.144 3.993-3.764 6.539-.73.24-.535-.4-.565-.672-.493-4.503-3.24-6.508-7.517-6.84.951-1.133 2.55-.65 3.633-1.458M102.506 252.83c2.403-.817 3.386-2.653 3.615-5.033.496-.51.265-1.42.993-1.805.93 5.276 1.297 6.35 7.709 7.868l-4.103 1.402c-3.045 1.15-3.145 3.993-3.765 6.539-.728.24-.535-.4-.565-.672-.493-4.503-3.239-6.508-7.516-6.84.951-1.133 2.55-.65 3.632-1.458"/>
        <path fill="#F6851B" d="M153.764 110.545l.066 28.125-31.476 12.117z"/>
        <path fill="#E37725" d="M148.088 96.299l5.676 14.247-21.053 27.35-7.891-12.868 6.51-23.082z"/>
        <path fill="#E37725" d="M152.438 108.026l10.812 87.881-17.156 1.512-10.61-7.446-40.549-.676-16.778-18.521z"/>
        <path fill="#CD6328" d="M136.562 190.465l-16.047-5.693-29.885 4.524z"/>
        <path fill="#E37725" d="M144.337 170.971l-63.904-2.486-23.672 26.695 16.494 2.282z"/>
        <path fill="#CD6328" d="M166.665 147.177l-9.175 1.914-19.643-7.971 2.166-7.242 10.858-2.113-7.04-26.096 4.257-9.37 5.676 14.247z"/>
        <path fill="#E2761B" d="M145.42 9.877L114.722 33.45l5.583-13.858z"/>
        <path stroke="#E2761B" stroke-linecap="round" stroke-linejoin="round" d="M145.42 9.877L114.722 33.45l5.583-13.858z"/>
        <path fill="#E4761B" d="M73.948 10.105l30.997 23.604-5.634-14.065z"/>
        <path stroke="#E4761B" stroke-linecap="round" stroke-linejoin="round" d="M73.948 10.105l30.997 23.604-5.634-14.065z"/>
        <path fill="#E4761B" d="M134.938 64.339l-8.082 12.91 17.693 4.905 4.83-17.568z"/>
        <path stroke="#E4761B" stroke-linecap="round" stroke-linejoin="round" d="M134.938 64.339l-8.082 12.91 17.693 4.905 4.83-17.568z"/>
        <path fill="#E4761B" d="M71.346 64.79l5.228 17.573 17.586-5-8.367-12.88z"/>
        <path stroke="#E4761B" stroke-linecap="round" stroke-linejoin="round" d="M71.346 64.79l5.228 17.573 17.586-5-8.367-12.88z"/>
        <path fill="#E4761B" d="M92.78 42.665l-4.855 7.61 17.511.746-.816-19.227z"/>
        <path stroke="#E4761B" stroke-linecap="round" stroke-linejoin="round" d="M92.78 42.665l-4.855 7.61 17.511.746-.816-19.227z"/>
        <path fill="#E4761B" d="M127.386 42.554l-12.262-11.048-.178 19.478 17.45-.837z"/>
        <path stroke="#E4761B" stroke-linecap="round" stroke-linejoin="round" d="M127.386 42.554l-12.262-11.048-.178 19.478 17.45-.837z"/>
        <path fill="#E4761B" d="M94.16 77.363l10.486-5.298-9.188-7.197z"/>
        <path stroke="#E4761B" stroke-linecap="round" stroke-linejoin="round" d="M94.16 77.363l10.486-5.298-9.188-7.197z"/>
        <path fill="#E4761B" d="M116.231 72.06l10.624 5.189-1.624-12.472z"/>
        <path stroke="#E4761B" stroke-linecap="round" stroke-linejoin="round" d="M116.231 72.06l10.624 5.189-1.624-12.472z"/>
        <path fill="#D7C1B3" d="M126.856 77.248l-10.624-5.188.937 7.023-.055 2.942z"/>
        <path stroke="#D7C1B3" stroke-linecap="round" stroke-linejoin="round" d="M126.856 77.248l-10.624-5.188.937 7.023-.055 2.942z"/>
        <path fill="#D7C1B3" d="M94.16 77.363l9.85 4.707-.11-2.971.746-7.034z"/>
        <path stroke="#D7C1B3" stroke-linecap="round" stroke-linejoin="round" d="M94.16 77.363l9.85 4.707-.11-2.971.746-7.034z"/>
        <path fill="#CD6116" d="M94.16 77.363l1.369-12.901-9.734.314z"/>
        <path stroke="#CD6116" stroke-linecap="round" stroke-linejoin="round" d="M94.16 77.363l1.369-12.901-9.734.314z"/>
        <path fill="#CD6116" d="M125.173 64.366l1.683 12.882 8.083-12.616z"/>
        <path stroke="#CD6116" stroke-linecap="round" stroke-linejoin="round" d="M125.173 64.366l1.683 12.882 8.083-12.616z"/>
        <path fill="#CD6116" d="M132.395 50.148l-17.45.836 1.582 9.495 4.246-2.96 6.659-1.16z"/>
        <path fill="#E4751F" d="M87.925 50.275l7.533 14.592-.326-7.286z"/>
        <path stroke="#E4751F" stroke-linecap="round" stroke-linejoin="round" d="M87.925 50.275l7.533 14.592-.326-7.286z"/>
        <path fill="#E4751F" d="M125.326 58.115l-.095 6.661 7.165-14.628zM105.436 51.02l-1.515 9.19 2.185 10.818.305-14.263z"/>
        <path stroke="#E4751F" stroke-linecap="round" stroke-linejoin="round" d="M105.436 51.02l-1.515 9.19 2.185 10.818.305-14.263z"/>
        <path fill="#E4751F" d="M114.945 50.984l-.746 5.731.524 14.276 1.954-10.815z"/>
        <path fill="#F6851B" d="M116.677 60.176l-1.954 10.815 1.508 1.07 9-7.284.217-7.275zM95.122 57.681l.336 7.187 9.188 7.197 1.46-1.037-2.158-10.987z"/>
        <path fill="#C0AD9E" d="M117.114 82.025l.054-2.942-.79-.705-11.737.037-.742.684.111 2.97-9.85-4.706 3.453 2.823 7.029 4.903 11.902-.008 6.936-4.943 3.375-2.89z"/>
        <path fill="#161616" d="M116.231 72.06l-1.508-1.069-8.618.037-1.459 1.036-.747 7.035.742-.684 11.736-.038.791.706z"/>
        <path fill="#763D16" d="M147.028 34.887l2.466-12.978-4.075-12.032-29.657 22.792 11.623 9.885 16.335 4.814 3.545-4.296-1.582-1.116 2.479-2.336-1.927-1.53 2.47-1.943z"/>
        <path stroke="#763D16" stroke-linecap="round" stroke-linejoin="round" d="M147.028 34.887l2.466-12.978-4.075-12.032-29.657 22.792 11.623 9.885 16.335 4.814 3.545-4.296-1.582-1.116 2.479-2.336-1.927-1.53 2.47-1.943z"/>
        <path fill="#763D16" d="M70.16 22.137l2.815 12.96-1.662 1.277 2.523 1.92-1.894 1.523 2.513 2.313-1.53 1.15 3.615 4.286 16.239-4.901 11.368-9.985-30.199-22.574z"/>
        <path stroke="#763D16" stroke-linecap="round" stroke-linejoin="round" d="M70.16 22.137l2.815 12.96-1.662 1.277 2.523 1.92-1.894 1.523 2.513 2.313-1.53 1.15 3.615 4.286 16.239-4.901 11.368-9.985-30.199-22.574z"/>
        <path fill="#F6851B" d="M143.72 47.368l-16.334-4.814 5.01 7.593-7.166 14.63 9.71-.146 14.44-.044z"/>
        <path stroke="#F6851B" stroke-linecap="round" stroke-linejoin="round" d="M143.72 47.368l-16.334-4.814 5.01 7.593-7.166 14.63 9.71-.146 14.44-.044z"/>
        <path fill="#F6851B" d="M92.78 42.665l-16.24 4.9-5.194 17.226 14.448-.015 9.664.092-7.533-14.593z"/>
        <path stroke="#F6851B" stroke-linecap="round" stroke-linejoin="round" d="M92.78 42.665l-16.24 4.9-5.194 17.226 14.448-.015 9.664.092-7.533-14.593z"/>
        <path fill="#F6851B" d="M114.945 50.984l.817-18.315 4.544-13.077-20.995.052 4.836 13.036 1.289 18.341.475 5.788.195 14.219 8.617-.037-.133-14.231z"/>
        <path fill="#CD6116" d="M92.851 55.314l6.725 2.073 4.31 2.081 1.351-8.632-17.481-.752z"/>
        <path fill="#233447" d="M95.122 57.681l-2.27-2.366 6.55 1.48 4.484 2.673.062.573zM125.503 58.12l2.27-2.367-6.55 1.48-4.484 2.674-.062.572z"/>
        <path fill="#E6EAF4" d="M227.427 281.083h41.224v-88.54h-41.224z"/>
        <g>
            <path fill="#D6DBEA" d="M264.164 181.886v-.036h-34.55v.093a1.528 1.528 0 0 0-.376-.057c-2.479 0-4.487 6.097-4.487 13.618 0 7.52 2.008 13.616 4.487 13.616.127 0 .252-.025.376-.057v.057h34.55c2.478 0 4.487-6.095 4.487-13.616s-2.01-13.618-4.487-13.618"/>
            <path fill="#E6EAF4" d="M227.86 178.891v.093a1.67 1.67 0 0 0-.393-.057c-2.59 0-4.688 6.096-4.688 13.617 0 7.521 2.099 13.617 4.688 13.617.132 0 .262-.025.392-.057v.057h36.103v-27.27H227.86z"/>
            <path fill="#D6DBEA" d="M268.65 192.544c0 7.521-2.098 13.618-4.688 13.618s-4.688-6.097-4.688-13.618c0-7.52 2.099-13.618 4.688-13.618 2.59 0 4.689 6.097 4.689 13.618"/>
            <path fill="#B9BDC6" d="M266.678 193.435c0 3.76-1.05 6.808-2.344 6.808-1.294 0-2.345-3.048-2.345-6.808s1.05-6.809 2.345-6.809c1.295 0 2.344 3.048 2.344 6.81"/>
        </g>
        <g>
            <g transform="translate(222.64 178.664)">
                <mask id="ad" fill="#fff">
                    <use xlink:href="#ac"/>
                </mask>
                <path fill="#FFB125" d="M20.241-11.933c6.735 0 12.196 5.46 12.196 12.195s-5.46 12.195-12.196 12.195c-6.735 0-12.194-5.46-12.194-12.195 0-6.736 5.46-12.195 12.194-12.195" mask="url(#ad)"/>
            </g>
            <g transform="translate(222.64 178.664)">
                <mask id="af" fill="#fff">
                    <use xlink:href="#ae"/>
                </mask>
                <path fill="#FEE570" d="M20.241-9.262A9.524 9.524 0 0 1 29.766.262a9.524 9.524 0 0 1-9.525 9.524A9.524 9.524 0 0 1 10.717.262a9.524 9.524 0 0 1 9.524-9.524" mask="url(#af)"/>
            </g>
            <g transform="translate(222.64 178.664)">
                <mask id="ah" fill="#fff">
                    <use xlink:href="#ag"/>
                </mask>
                <path fill="#FEE570" d="M20.241-9.943a.357.357 0 0 1-.357-.357v-.574a.357.357 0 1 1 .714 0v.574c0 .197-.16.357-.357.357" mask="url(#ah)"/>
            </g>
            <g transform="translate(222.64 178.664)">
                <mask id="aj" fill="#fff">
                    <use xlink:href="#ai"/>
                </mask>
                <path fill="#FEE570" d="M20.241 11.756a.357.357 0 0 1-.357-.357v-.574a.357.357 0 1 1 .714 0v.574c0 .197-.16.357-.357.357" mask="url(#aj)"/>
            </g>
            <g transform="translate(222.64 178.664)">
                <mask id="al" fill="#fff">
                    <use xlink:href="#ak"/>
                </mask>
                <path fill="#FEE570" d="M31.378.62h-.574a.358.358 0 0 1 0-.715h.574a.358.358 0 0 1 0 .715" mask="url(#al)"/>
            </g>
            <g transform="translate(222.64 178.664)">
                <mask id="an" fill="#fff">
                    <use xlink:href="#am"/>
                </mask>
                <path fill="#FEE570" d="M9.68.62h-.576a.357.357 0 0 1 0-.715h.575a.358.358 0 0 1 0 .715" mask="url(#an)"/>
            </g>
            <g transform="translate(222.64 178.664)">
                <mask id="ap" fill="#fff">
                    <use xlink:href="#ao"/>
                </mask>
                <path fill="#FEE570" d="M27.71-6.85a.357.357 0 0 1-.252-.61l.405-.405a.357.357 0 1 1 .506.505l-.406.406a.357.357 0 0 1-.253.105" mask="url(#ap)"/>
            </g>
            <g transform="translate(222.64 178.664)">
                <mask id="ar" fill="#fff">
                    <use xlink:href="#aq"/>
                </mask>
                <path fill="#FEE570" d="M12.367 8.494a.358.358 0 0 1-.253-.61l.406-.406a.358.358 0 0 1 .506.505l-.407.407a.353.353 0 0 1-.252.104" mask="url(#ar)"/>
            </g>
            <g transform="translate(222.64 178.664)">
                <mask id="at" fill="#fff">
                    <use xlink:href="#as"/>
                </mask>
                <path fill="#FEE570" d="M28.117 8.494a.357.357 0 0 1-.254-.104l-.405-.407a.358.358 0 0 1 .505-.505l.406.407a.358.358 0 0 1-.252.61" mask="url(#at)"/>
            </g>
            <g transform="translate(222.64 178.664)">
                <mask id="av" fill="#fff">
                    <use xlink:href="#au"/>
                </mask>
                <path fill="#FEE570" d="M12.772-6.85a.357.357 0 0 1-.252-.104l-.406-.406a.356.356 0 0 1 0-.505c.14-.14.365-.14.505 0l.407.405a.36.36 0 0 1 0 .506.361.361 0 0 1-.254.105" mask="url(#av)"/>
            </g>
            <g transform="translate(222.64 178.664)">
                <mask id="ax" fill="#fff">
                    <use xlink:href="#aw"/>
                </mask>
                <path fill="#FEE570" d="M24.484-9.053a.357.357 0 0 1-.326-.501l.23-.526a.358.358 0 1 1 .655.287l-.231.526a.357.357 0 0 1-.328.214" mask="url(#ax)"/>
            </g>
            <g transform="translate(222.64 178.664)">
                <mask id="az" fill="#fff">
                    <use xlink:href="#ay"/>
                </mask>
                <path fill="#FEE570" d="M15.767 10.818a.358.358 0 0 1-.326-.501l.23-.526a.358.358 0 0 1 .654.287l-.23.526a.357.357 0 0 1-.328.214" mask="url(#az)"/>
            </g>
            <g transform="translate(222.64 178.664)">
                <mask id="aB" fill="#fff">
                    <use xlink:href="#aA"/>
                </mask>
                <path fill="#FEE570" d="M30.44 5.093a.369.369 0 0 1-.144-.03l-.526-.23a.358.358 0 0 1 .287-.655l.527.232a.357.357 0 0 1-.144.683" mask="url(#aB)"/>
            </g>
            <g transform="translate(222.64 178.664)">
                <mask id="aD" fill="#fff">
                    <use xlink:href="#aC"/>
                </mask>
                <path fill="#FEE570" d="M10.568-3.624a.373.373 0 0 1-.144-.03L9.9-3.886a.357.357 0 0 1 .288-.654l.525.232a.357.357 0 0 1-.144.684" mask="url(#aD)"/>
            </g>
            <g transform="translate(222.64 178.664)">
                <mask id="aF" fill="#fff">
                    <use xlink:href="#aE"/>
                </mask>
                <path fill="#FEE570" d="M30.082-3.22a.36.36 0 0 1-.334-.227.36.36 0 0 1 .204-.463l.534-.208a.358.358 0 0 1 .26.665l-.534.21a.379.379 0 0 1-.13.023" mask="url(#aF)"/>
            </g>
            <g transform="translate(222.64 178.664)">
                <mask id="aH" fill="#fff">
                    <use xlink:href="#aG"/>
                </mask>
                <path fill="#FEE570" d="M9.866 4.667a.358.358 0 0 1-.13-.69l.536-.208a.357.357 0 1 1 .259.665l-.535.209a.354.354 0 0 1-.13.024" mask="url(#aH)"/>
            </g>
            <g transform="translate(222.64 178.664)">
                <mask id="aJ" fill="#fff">
                    <use xlink:href="#aI"/>
                </mask>
                <path fill="#FEE570" d="M24.29 10.995a.358.358 0 0 1-.334-.228l-.209-.535a.358.358 0 0 1 .666-.259l.21.535a.358.358 0 0 1-.333.487" mask="url(#aJ)"/>
            </g>
            <g transform="translate(222.64 178.664)">
                <mask id="aL" fill="#fff">
                    <use xlink:href="#aK"/>
                </mask>
                <path fill="#FEE570" d="M16.403-9.22a.358.358 0 0 1-.334-.228l-.209-.535a.358.358 0 0 1 .667-.26l.208.535a.358.358 0 0 1-.332.487" mask="url(#aL)"/>
            </g>
            <g transform="translate(222.64 178.664)">
                <mask id="aN" fill="#fff">
                    <use xlink:href="#aM"/>
                </mask>
                <path fill="#F4D451" d="M26.976 6.996c3.72-3.72 3.72-9.75 0-13.468L13.506 6.996a9.525 9.525 0 0 0 13.47 0" mask="url(#aN)"/>
            </g>
            <g transform="translate(222.64 178.664)">
                <mask id="aP" fill="#fff">
                    <use xlink:href="#aO"/>
                </mask>
                <path fill="#FF901D" d="M22.65 2.734c0 1.454-.71 2.095-1.91 2.095h-2.112V.436h2.112c1.2 0 1.91.54 1.91 2.028v.27zm-4.022-7.081h1.978c1.064 0 1.74.49 1.74 1.623 0 1.149-.558 1.74-1.707 1.74h-2.011v-3.363zm4.073 4.073c.878-.389 1.436-1.335 1.436-2.737 0-1.774-.889-2.527-2.088-2.796h.043v-.788a.789.789 0 0 0-1.577 0v.66h-.862v-.66a.79.79 0 0 0-1.577 0v.66h-1.201a.834.834 0 0 0-.021 1.665v9.022a.833.833 0 0 0 .021 1.666h1.201v.701a.788.788 0 1 0 1.577 0v-.7h.862v.7a.789.789 0 0 0 1.577 0V6.33h-.08c1.42-.283 2.429-1.292 2.429-3.46v-.321c0-1.725-.693-2.418-1.74-2.823z" mask="url(#aP)"/>
            </g>
        </g>
        <g>
            <path fill="#FFB125" d="M246.7 251.515c6.736 0 12.196 5.46 12.196 12.194 0 6.736-5.46 12.197-12.196 12.197-6.734 0-12.194-5.46-12.194-12.197 0-6.734 5.46-12.194 12.194-12.194"/>
            <path fill="#FEE570" d="M246.7 254.185a9.524 9.524 0 0 1 9.525 9.524c0 5.26-4.264 9.526-9.525 9.526-5.26 0-9.524-4.265-9.524-9.526a9.524 9.524 0 0 1 9.524-9.524M246.7 253.505a.357.357 0 0 1-.357-.357v-.574a.357.357 0 1 1 .715 0v.574c0 .197-.16.357-.358.357M246.7 275.204a.357.357 0 0 1-.357-.357v-.574a.357.357 0 1 1 .715 0v.574c0 .197-.16.357-.358.357M257.838 264.067h-.575a.357.357 0 1 1 0-.714h.575a.357.357 0 1 1 0 .714M236.139 264.067h-.575a.357.357 0 1 1 0-.714h.575a.358.358 0 0 1 0 .714"/>
            <path fill="#FEE570" d="M254.17 256.598a.356.356 0 0 1-.253-.61l.405-.405a.357.357 0 0 1 .506.504l-.405.408a.36.36 0 0 1-.253.103M238.826 271.943a.358.358 0 0 1-.253-.61l.406-.406a.357.357 0 1 1 .506.505l-.407.406a.357.357 0 0 1-.252.105M254.576 271.943a.357.357 0 0 1-.253-.105l-.406-.406a.357.357 0 1 1 .506-.505l.406.406a.358.358 0 0 1-.253.61M239.231 256.598a.358.358 0 0 1-.252-.103l-.405-.408a.355.355 0 0 1 0-.504c.14-.14.364-.14.505 0l.406.406c.139.139.139.365 0 .506a.36.36 0 0 1-.254.103M250.945 254.395a.357.357 0 0 1-.327-.501l.23-.526a.357.357 0 1 1 .654.287l-.231.526a.357.357 0 0 1-.326.214M242.226 274.266a.359.359 0 0 1-.326-.501l.23-.526a.358.358 0 0 1 .655.287l-.231.526a.357.357 0 0 1-.328.214M256.9 268.541a.373.373 0 0 1-.145-.03l-.525-.23a.358.358 0 0 1 .287-.655l.526.232a.357.357 0 0 1-.144.683M237.028 259.824a.373.373 0 0 1-.144-.03l-.525-.231a.357.357 0 1 1 .287-.654l.526.23a.358.358 0 0 1-.144.685M256.541 260.229a.358.358 0 0 1-.13-.69l.535-.209a.357.357 0 1 1 .26.666l-.535.208a.354.354 0 0 1-.13.025M236.325 268.116a.357.357 0 0 1-.129-.69l.535-.21a.357.357 0 1 1 .26.667l-.535.208a.376.376 0 0 1-.13.025M250.749 274.442a.357.357 0 0 1-.333-.227l-.21-.534a.358.358 0 0 1 .667-.26l.208.535a.358.358 0 0 1-.332.486M242.862 254.228a.358.358 0 0 1-.333-.228l-.209-.535a.357.357 0 0 1 .666-.26l.208.535a.358.358 0 0 1-.332.488"/>
            <path fill="#F4D451" d="M253.435 270.445c3.72-3.72 3.72-9.75 0-13.469l-13.468 13.469c3.718 3.72 9.749 3.72 13.468 0"/>
            <path fill="#FF901D" d="M249.11 266.182c0 1.454-.71 2.095-1.911 2.095h-2.112v-4.393h2.112c1.2 0 1.91.54 1.91 2.028v.27zm-4.023-7.08h1.978c1.064 0 1.74.489 1.74 1.622 0 1.149-.557 1.74-1.707 1.74h-2.01V259.1zm4.073 4.072c.878-.389 1.437-1.335 1.437-2.737 0-1.774-.89-2.526-2.09-2.796h.044v-.789a.79.79 0 0 0-1.577 0v.66h-.862v-.66a.789.789 0 0 0-1.577 0v.66h-1.201a.832.832 0 1 0-.022 1.666v9.022a.834.834 0 0 0 .022 1.665h1.201v.702a.789.789 0 1 0 1.577 0v-.702h.862v.702a.788.788 0 1 0 1.577 0v-.788h-.08c1.42-.283 2.429-1.292 2.429-3.461v-.321c0-1.725-.693-2.418-1.74-2.823z"/>
            <path fill="#FFB125" d="M246.7 215.02c6.736 0 12.196 5.46 12.196 12.194 0 6.736-5.46 12.196-12.196 12.196-6.734 0-12.194-5.46-12.194-12.196 0-6.735 5.46-12.194 12.194-12.194"/>
            <path fill="#FEE570" d="M246.7 217.69a9.524 9.524 0 0 1 9.525 9.524c0 5.26-4.264 9.525-9.525 9.525-5.26 0-9.524-4.265-9.524-9.525a9.524 9.524 0 0 1 9.524-9.524M246.7 217.01a.357.357 0 0 1-.357-.357v-.574a.357.357 0 1 1 .715 0v.574c0 .197-.16.357-.358.357M246.7 238.709a.357.357 0 0 1-.357-.357v-.574a.357.357 0 1 1 .715 0v.574c0 .197-.16.357-.358.357M257.838 227.572h-.575a.357.357 0 1 1 0-.714h.575a.357.357 0 1 1 0 .714M236.139 227.572h-.575a.357.357 0 1 1 0-.714h.575a.358.358 0 0 1 0 .714"/>
            <path fill="#FEE570" d="M254.17 220.103a.356.356 0 0 1-.253-.61l.405-.405a.357.357 0 0 1 .506.504l-.405.407a.36.36 0 0 1-.253.104M238.826 235.447a.358.358 0 0 1-.253-.61l.406-.406a.357.357 0 1 1 .506.505l-.407.407a.357.357 0 0 1-.252.104M254.576 235.447a.357.357 0 0 1-.253-.104l-.406-.407a.357.357 0 1 1 .506-.505l.406.407a.358.358 0 0 1-.253.61M239.231 220.103a.358.358 0 0 1-.252-.104l-.405-.407a.355.355 0 0 1 0-.504c.14-.14.364-.14.505 0l.406.405c.139.14.139.366 0 .506a.36.36 0 0 1-.254.104M250.945 217.9a.357.357 0 0 1-.327-.501l.23-.526a.357.357 0 1 1 .654.287l-.231.526a.357.357 0 0 1-.326.214M242.226 237.77a.359.359 0 0 1-.326-.501l.23-.525a.358.358 0 0 1 .655.287l-.231.525a.357.357 0 0 1-.328.214M256.9 232.046a.373.373 0 0 1-.145-.03l-.525-.23a.358.358 0 0 1 .287-.655l.526.231a.357.357 0 0 1-.144.684M237.028 223.329a.373.373 0 0 1-.144-.03l-.525-.232a.357.357 0 1 1 .287-.654l.526.231a.358.358 0 0 1-.144.685M256.541 223.733a.358.358 0 0 1-.13-.69l.535-.208a.357.357 0 1 1 .26.665l-.535.208a.354.354 0 0 1-.13.025M236.325 231.62a.357.357 0 0 1-.129-.69l.535-.21a.357.357 0 1 1 .26.667l-.535.209a.376.376 0 0 1-.13.024M250.749 237.947a.357.357 0 0 1-.333-.227l-.21-.535a.358.358 0 0 1 .667-.26l.208.535a.358.358 0 0 1-.332.487M242.862 217.732a.358.358 0 0 1-.333-.228l-.209-.534a.357.357 0 0 1 .666-.26l.208.535a.358.358 0 0 1-.332.487"/>
            <path fill="#F4D451" d="M253.435 233.95c3.72-3.72 3.72-9.75 0-13.47l-13.468 13.47c3.718 3.719 9.749 3.719 13.468 0"/>
            <path fill="#FF901D" d="M249.11 229.687c0 1.454-.71 2.095-1.911 2.095h-2.112v-4.393h2.112c1.2 0 1.91.54 1.91 2.028v.27zm-4.023-7.081h1.978c1.064 0 1.74.49 1.74 1.622 0 1.15-.557 1.74-1.707 1.74h-2.01v-3.362zm4.073 4.073c.878-.39 1.437-1.335 1.437-2.738 0-1.773-.89-2.526-2.09-2.795h.044v-.79a.79.79 0 0 0-1.577 0v.66h-.862v-.66a.789.789 0 0 0-1.577 0v.66h-1.201a.832.832 0 1 0-.022 1.666v9.023a.834.834 0 0 0 .022 1.665h1.201v.701a.789.789 0 1 0 1.577 0v-.701h.862v.701a.788.788 0 1 0 1.577 0v-.788h-.08c1.42-.283 2.429-1.292 2.429-3.46v-.322c0-1.725-.693-2.417-1.74-2.822z"/>
            <path stroke="#BCC1CC" d="M227.427 245.757l5.918-.044"/>
            <path stroke="#BCC1CC" stroke-dasharray="9.925000000000001,9.925000000000001" d="M243.135 245.641l14.684-.107"/>
            <path stroke="#BCC1CC" d="M262.713 245.498l5.918-.044"/>
        </g>
        <g transform="translate(122.032 133.292)">
            <mask id="aR" fill="#fff">
                <use xlink:href="#aQ"/>
            </mask>
            <path fill="#6A2E17" d="M4.415 26.524l26.047-21.86-14.081-16.779-26.047 21.86z" mask="url(#aR)"/>
        </g>
        <g>
            <path fill="#EEF3FF" d="M145.303 96.921a1.643 1.643 0 0 0-2.234.637l-2.443 4.394 2.87 1.597 2.445-4.394a1.643 1.643 0 0 0-.638-2.234"/>
            <path fill="#EAEFF9" d="M144.156 98.833c-1.22-.647-2.377-.858-2.581-.473-.013.024-.01.054-.015.08l-.03-.014-17.507 37.564 3.943 2.579 18.063-37.926-.018-.01c.091-.41-.699-1.188-1.855-1.8"/>
            <path fill="#B9BEC6" d="M140.92 105.8c-1.221-.648-2.377-.86-2.582-.473-.012.023-.01.053-.014.08l-.03-.015-17.508 37.564 3.944 2.579 18.063-37.926-.02-.01c.092-.41-.697-1.187-1.853-1.8"/>
            <path fill="#B9BDC6" d="M133.04 172.507l-46.574-2.404c-6.644-.342-12.446-5.16-12.892-10.703l-13.536-41.671c-.447-5.543 4.625-9.8 11.27-9.456l46.573 2.403c6.645.343 12.446 5.16 12.893 10.704l13.535 41.67c.446 5.544-4.625 9.8-11.27 9.457"/>
            <path fill="#E0E0E0" d="M130.987 174.898l-46.574-2.403c-6.644-.343-12.446-5.159-12.893-10.703L57.985 120.12c-.446-5.544 4.626-9.799 11.27-9.456l46.574 2.403c6.644.344 12.446 5.159 12.892 10.703l13.535 41.671c.447 5.544-4.625 9.8-11.269 9.456"/>
            <path fill="#B9BDC6" d="M78.346 121.933c.1 1.237-1.155 2.171-2.802 2.086-1.648-.085-3.064-1.157-3.163-2.394-.1-1.237 1.155-2.17 2.802-2.086 1.647.085 3.064 1.157 3.163 2.394"/>
            <path fill="#FFB125" d="M99.405 136.765c9.174.1 17.196 4.629 17.917 10.117.72 5.486-6.132 9.853-15.306 9.754-9.173-.1-17.194-4.63-17.915-10.116-.721-5.488 6.131-9.856 15.304-9.755"/>
            <path fill="#FEE570" d="M99.691 138.94c7.165.078 13.43 3.616 13.993 7.901.563 4.286-4.789 7.697-11.954 7.618-7.165-.078-13.43-3.615-13.992-7.9-.563-4.286 4.788-7.696 11.953-7.619M99.618 138.386c-.268-.003-.504-.136-.525-.297l-.06-.467c-.022-.16.179-.289.447-.286.27.002.504.135.526.296l.061.468c.02.16-.18.289-.449.286M101.941 156.064c-.268-.003-.504-.136-.525-.297l-.06-.466c-.023-.161.179-.29.447-.286.27.002.504.135.526.296l.06.467c.022.16-.179.29-.448.286M115.918 147.156l-.782-.008c-.269-.003-.504-.136-.525-.297-.02-.16.18-.289.448-.286l.782.01c.27.002.504.135.526.296.02.16-.181.289-.45.285M86.362 146.834l-.782-.009c-.268-.002-.504-.135-.524-.296-.022-.161.179-.288.447-.285l.783.008c.269.003.504.136.525.296.021.161-.18.29-.449.286"/>
            <path fill="#FEE570" d="M110.122 141.017a.758.758 0 0 1-.355-.09c-.205-.115-.229-.3-.054-.41l.51-.325c.175-.112.482-.108.687.008.206.115.23.3.055.41l-.51.325a.616.616 0 0 1-.333.082M90.866 153.29a.747.747 0 0 1-.355-.09c-.205-.115-.229-.3-.054-.411l.51-.325c.174-.111.482-.107.687.008.205.116.23.3.054.412l-.51.324a.616.616 0 0 1-.332.082M112.318 153.524a.758.758 0 0 1-.355-.09l-.597-.336c-.205-.115-.229-.3-.054-.412.176-.11.483-.108.689.008l.596.337c.204.115.23.3.054.411a.616.616 0 0 1-.333.082M89.777 140.796a.758.758 0 0 1-.355-.09l-.597-.336c-.205-.117-.229-.3-.054-.413.175-.111.483-.107.688.008l.597.338c.204.115.229.3.053.41a.616.616 0 0 1-.332.083M105.493 139.174a.863.863 0 0 1-.198-.027c-.255-.067-.39-.24-.301-.387l.258-.425c.09-.145.366-.209.622-.142.254.067.388.24.3.386l-.258.425c-.066.109-.236.172-.423.17M95.747 155.234a.871.871 0 0 1-.2-.027c-.253-.068-.388-.24-.3-.386l.258-.426c.089-.146.367-.209.622-.142s.39.24.3.386l-.257.425c-.066.109-.237.172-.423.17M115.119 150.788a.804.804 0 0 1-.199-.026l-.741-.197c-.254-.067-.389-.24-.3-.386.089-.146.367-.21.621-.143l.741.196c.254.067.39.24.3.386-.065.108-.235.171-.422.17M87.12 143.39a.856.856 0 0 1-.198-.026l-.742-.196c-.253-.067-.389-.24-.3-.386.089-.147.367-.21.622-.143l.74.196c.255.067.39.24.301.386-.066.109-.236.172-.423.17M113.741 144.01c-.195-.003-.387-.075-.478-.19-.118-.152-.015-.319.228-.374l.705-.163c.244-.055.535.022.653.172.116.152.015.32-.228.375l-.706.161a.726.726 0 0 1-.174.018M87.051 150.134c-.194-.002-.387-.074-.477-.189-.119-.152-.016-.319.227-.374l.705-.163c.244-.055.536.022.653.172.117.152.016.32-.227.375l-.706.162a.734.734 0 0 1-.175.017M107.373 155.504c-.195-.002-.387-.074-.478-.19l-.341-.44c-.118-.15-.016-.317.226-.374.244-.055.535.022.652.173l.342.44c.117.15.016.318-.227.373a.726.726 0 0 1-.174.018M94.467 138.917c-.195-.002-.388-.074-.478-.19l-.342-.439c-.117-.15-.016-.318.227-.375.244-.054.535.023.653.173l.341.44c.118.15.016.317-.227.373a.687.687 0 0 1-.174.018"/>
            <path fill="#F4D451" d="M110.605 152.287c4.667-2.976 4.022-7.888-1.442-10.974l-16.904 10.774c5.464 3.085 13.679 3.175 18.346.2"/>
            <path fill="#FF901D" d="M104.256 148.75c.156 1.184-.743 1.697-2.377 1.678l-2.878-.03-.47-3.58 2.878.03c1.634.02 2.658.47 2.818 1.681l.029.221zm-6.237-5.83l2.694.03c1.45.016 2.423.425 2.543 1.348.124.937-.573 1.41-2.138 1.392l-2.74-.03-.36-2.74zm5.984 3.38c1.155-.304 1.813-1.066 1.663-2.21-.19-1.443-1.481-2.07-3.143-2.308l.058.001-.085-.643c-.046-.354-.565-.647-1.158-.654-.594-.006-1.036.277-.99.632l.07.537-1.173-.013-.07-.537c-.047-.355-.566-.648-1.16-.654-.592-.007-1.035.275-.988.63l.07.538-.302-.003-.281-.003-1.052-.012c-.627-.007-1.095.292-1.046.667.049.369.58.673 1.194.69l.967 7.35c-.612.003-1.065.298-1.016.666.048.375.597.684 1.224.69l1.051.013.282.004.301.003.075.57c.048.355.566.648 1.158.655.594.007 1.037-.276.99-.632l-.074-.57 1.173.013.075.571c.047.354.566.647 1.16.654.592.006 1.035-.276.989-.631l-.085-.642-.109-.001c1.906-.21 3.172-1.017 2.939-2.785l-.035-.261c-.184-1.405-1.202-1.98-2.672-2.325z"/>
            <path fill="#B9BDC6" fill-opacity=".92" d="M106.848 112.605l8.98.463c6.645.343 12.447 5.16 12.893 10.703l13.536 41.671c.447 5.544-4.625 9.799-11.27 9.457l-46.574-2.404 22.435-59.89z" opacity=".327"/>
        </g>
        <g transform="translate(52 137.237)">
            <mask id="aT" fill="#fff">
                <use xlink:href="#aS"/>
            </mask>
            <path fill="#6A2E17" d="M-4.116 16.241h34.248v-20.62H-4.116z" mask="url(#aT)"/>
        </g>
        <path d="M0 0h290v300H0z"/>
    </g>
</svg>
