<?xml version="1.0" encoding="UTF-8"?>
<svg width="232px" height="206px" viewBox="0 0 232 206" version="1.1" xmlns="http://www.w3.org/2000/svg" xmlns:xlink="http://www.w3.org/1999/xlink">
    <!-- Generator: sketchtool 50.2 (55047) - http://www.bohemiancoding.com/sketch -->
    <title>2BFAD321-0BF7-4737-BCFE-4B1871ECD3A6</title>
    <desc>Created with sketchtool.</desc>
    <defs>
        <polygon id="path-1" points="0.490745837 0.731 13.5205235 0.731 13.5205235 20.2374 0.490745837 20.2374"></polygon>
        <polygon id="path-3" points="0.3755 0.731 11.5205201 0.731 11.5205201 9.3480236 0.3755 9.3480236"></polygon>
    </defs>
    <g id="Symbols" stroke="none" stroke-width="1" fill="none" fill-rule="evenodd">
        <g id="il/2">
            <g id="Group">
                <path d="M150.2515,15.7425 C148.7935,15.6165 147.4855,16.0775 146.2335,16.7615 C144.7725,16.0135 143.0935,15.5145 141.8875,14.4695 C137.9985,11.0975 134.6905,11.8855 130.4455,14.4145 C111.8435,25.4985 92.9785,36.1415 74.2515,47.0205 C73.2725,47.5905 71.5065,47.5205 71.5165,49.3785 C74.6545,51.1905 77.7765,52.9925 80.8985,54.7945 C76.4515,56.1165 72.0225,54.5855 67.5775,54.6735 C64.9645,54.7245 62.6005,54.3445 62.4525,58.1265 C62.3605,60.4715 60.2485,59.9725 58.6245,60.1395 C55.4225,60.4695 51.2945,57.6395 49.3095,60.4745 C47.6665,62.8195 48.4725,66.8785 48.1925,70.1785 C48.1785,70.3435 48.1565,70.5085 48.1385,70.6735 C44.0435,68.7535 40.1415,64.3635 35.4835,69.6915 C34.8095,69.9145 34.1335,70.1385 33.4595,70.3615 C31.4595,65.0855 28.0935,64.4355 22.5395,67.8905 C17.2715,71.1665 14.6805,76.7805 10.6555,81.1345 C5.6045,86.5975 1.4065,93.3235 0.5325,100.6605 C-1.0755,114.1455 0.7035,127.5145 9.3995,138.5975 C13.0855,143.2955 17.7395,147.6415 24.3315,148.8755 C27.6685,149.5015 30.9865,149.8535 34.3035,150.2695 C43.2495,151.3915 51.7435,150.7245 60.1595,147.7655 C63.8185,151.5465 67.6935,152.0075 71.8255,148.5265 C77.9455,148.6445 84.0655,148.7625 90.1855,148.8805 C89.9085,149.6385 89.7435,150.4635 89.3355,151.1425 C84.1285,159.8155 86.3315,165.4495 96.2585,168.7605 L96.2515,168.7535 C96.5525,170.8165 95.1655,173.7155 96.9625,174.7705 C98.7775,175.8365 100.1745,172.9995 101.8015,171.9605 C103.9075,170.6155 105.5235,170.9135 106.8325,173.0145 C108.6025,175.8555 111.2525,176.9345 114.4305,177.9415 C120.3275,179.8095 126.8345,180.6665 131.7295,184.7335 C137.7845,189.7635 144.0445,191.6895 151.9355,189.8705 C157.7155,188.5385 162.2725,184.6685 167.9285,183.4245 C171.9575,182.5375 176.1035,182.1745 180.1215,181.2495 C188.6155,179.2935 195.7435,175.1305 200.5855,167.4595 C198.8425,166.7465 196.9595,165.7985 194.9705,165.2115 C192.8345,164.5805 192.1085,163.3595 192.2105,161.1985 C192.3605,158.0395 191.7255,154.7505 192.3885,151.7275 C193.9555,144.5765 191.0055,139.4835 186.0015,134.9835 C184.5185,133.6495 183.1395,132.1855 181.8315,130.6795 C180.8015,129.4925 180.3575,127.2285 178.1885,128.1585 C176.5135,128.8765 176.4575,130.7715 176.2405,132.4615 C175.9035,135.0765 177.2035,137.5025 176.3545,140.2915 C171.2885,156.9385 150.9685,167.3375 134.6585,161.4085 C128.1745,159.0505 126.1215,155.2135 127.5915,148.2015 C129.1015,141.0025 125.8955,136.3835 118.2565,134.7545 C110.6505,131.3855 102.5795,129.5825 94.5065,127.8285 C92.3415,127.3585 90.7985,126.4575 90.3475,124.2425 C89.8565,121.8305 90.9995,120.2195 92.9635,118.8645 C95.3435,117.2215 98.4315,116.3055 99.4295,113.0945 C105.7875,116.7055 112.2205,120.1935 118.4665,123.9905 C120.9175,125.4805 122.6985,125.4085 125.1755,123.9555 C143.3865,113.2845 161.6915,102.7725 179.9885,92.2485 C185.7995,88.9055 185.8295,88.9585 187.1585,93.2325 C185.4285,89.7155 188.4155,87.1125 193.0275,84.5885 C204.6605,78.2225 216.0475,71.4075 228.1785,64.4005 C219.4345,59.3005 211.3195,54.5415 203.1615,49.8595 C202.5315,49.4975 201.5695,49.4995 200.8075,49.6195 C196.0665,50.3675 191.1925,50.2275 186.5685,51.7455 C185.6445,51.8415 184.7205,51.9365 183.7965,52.0315 C183.1615,51.5655 182.5415,51.3275 181.9925,52.1535 C178.8525,51.6865 176.5335,49.7705 174.2615,47.7705 C173.8825,43.8145 178.5515,43.2265 179.3565,43.5675 C183.4105,45.2875 181.8605,42.2325 182.2205,40.7905 L182.2895,40.7215 C183.5815,40.4035 184.8745,40.0855 186.1665,39.7675 C186.9985,41.0795 187.6705,41.3525 188.5625,39.7065 C190.2095,36.6695 191.9135,33.6505 193.7995,30.7585 C195.7385,27.7835 197.8665,24.4115 196.2935,21.1735 C193.7755,15.9895 191.3825,10.5785 187.1955,6.3645 C187.1155,6.2845 186.6245,6.6155 186.3245,6.7545 C183.2105,6.3235 181.8145,7.6265 182.2545,10.7845 C180.7135,9.8135 177.9295,13.4855 177.2135,9.4365 C176.9115,7.7215 175.9155,6.7255 174.1575,6.9055 C171.6125,7.1675 172.5125,9.2795 172.2565,10.7565 L168.2525,10.7665 C167.9645,9.6275 168.8315,8.1395 166.8045,7.1095 C166.8335,11.7955 163.4795,12.2775 160.1205,12.7385 C157.7275,13.0665 155.3415,13.4095 153.2485,14.7535 C152.1495,14.7835 150.9805,14.5935 150.2515,15.7425" id="Fill-1" fill="#F6F5F6"></path>
                <path d="M49.1158,24.804 C49.5448,30.648 52.7738,32.705 58.0088,30.469 C60.4928,29.934 62.5968,30.88 64.3798,32.418 C67.8378,35.401 72.2698,36.2 76.2618,37.981 C77.2898,38.44 78.3528,38.925 79.7268,37.5 C77.3528,36.903 75.5358,35.918 73.8878,34.252 C72.2798,32.625 69.7038,31.871 67.4558,30.978 C63.3718,29.357 59.1008,28.037 61.5168,22.061 C61.7378,21.516 60.9558,21.612 60.6818,22.087 C60.5198,22.369 60.4508,22.704 60.3408,23.015 C56.6288,25.376 52.9548,25.753 49.3418,22.811 C42.6788,22.783 36.0158,22.756 29.3538,22.728 C29.1438,21.862 28.9958,20.043 27.8788,21.038 C24.5278,24.024 21.5188,23.19 18.4038,20.492 C17.7738,26.747 18.1998,27.559 22.0998,29.196 C25.2648,30.525 26.7038,27.364 29.0838,26.687 C35.8288,26.78 42.2558,23.484 49.1158,24.804" id="Fill-3" fill="#F6F5F6"></path>
                <g id="Group-7" transform="translate(56.000000, 0.269000)">
                    <mask id="mask-2" fill="white">
                        <use xlink:href="#path-1"></use>
                    </mask>
                    <g id="Clip-6"></g>
                    <path d="M2.3755,7.2494 C3.6455,11.6204 -0.1895,15.4724 0.5985,20.2374 C3.5925,18.9254 4.4965,17.0254 4.2265,14.5184 C3.9935,12.3624 4.7695,10.6844 6.3505,9.3004 C12.3975,9.6904 14.1445,7.7524 13.3345,0.9874 C9.8275,4.4234 6.2765,3.4554 2.3755,0.7304 L2.3755,7.2494 Z" id="Fill-5" fill="#F6F5F6" mask="url(#mask-2)"></path>
                </g>
                <path d="M219.0865,98.7083 C211.7745,98.7493 204.4635,98.7893 197.1525,98.8303 C193.1095,100.7863 189.0735,103.0523 184.9235,97.9453 C184.7895,104.5563 187.2125,108.4453 190.7895,108.5483 C193.7495,108.6333 197.0545,104.6993 197.2915,100.8093 C204.7035,100.5643 212.0325,101.2323 219.2845,102.7743 C222.5635,105.1223 225.7005,107.5073 229.8245,104.0123 C232.5655,101.6873 231.2815,99.2023 231.2965,95.9083 C227.5445,99.1363 224.4045,99.9173 220.7445,96.9433 C218.9075,95.4503 219.4775,97.9143 219.0865,98.7083" id="Fill-8" fill="#F6F5F6"></path>
                <path d="M98.7896,195.2669 C94.6696,199.6099 91.0416,199.1039 86.9456,195.4279 C87.4196,199.0939 85.6336,202.0769 89.3736,204.0319 C91.7056,205.2489 93.3516,205.8919 96.0316,204.4129 C99.7606,202.3539 98.9976,199.4649 98.7896,195.2669" id="Fill-10" fill="#F6F5F6"></path>
                <path d="M181.0753,102.6263 C180.6813,106.4963 178.3383,108.0033 176.0283,106.8553 C173.0093,105.3533 172.2213,106.7723 171.6533,108.9333 C170.6433,112.7723 168.1183,112.3343 164.8833,110.8633 C167.8143,114.9253 169.9593,115.2093 174.9963,112.7593 C179.4213,110.6073 182.3113,106.4623 181.0753,102.6263" id="Fill-12" fill="#F6F5F6"></path>
                <path d="M51.2769,48.8709 C53.9039,49.7379 56.4459,49.0099 56.6599,46.3819 C56.8909,43.5379 53.9769,43.0709 51.6319,43.0009 C49.5319,42.9379 46.6789,42.6499 46.5909,45.5559 C46.5149,48.0899 48.4139,49.6239 51.2769,48.8709" id="Fill-14" fill="#F6F5F6"></path>
                <path d="M131.6031,89.0057 C133.4781,89.8477 134.9721,91.5517 136.9321,89.7497 C137.4161,89.3037 137.6241,88.6777 136.9111,88.1217 C135.1241,86.7287 133.4421,86.4567 131.6031,89.0057 M177.0491,76.4157 C175.5311,76.0927 175.1391,76.7647 175.0501,77.6677 C174.8291,79.9077 175.1581,81.8987 177.3021,83.2567 C179.4121,84.5947 181.2931,85.2067 183.5861,83.4027 C185.4331,81.9497 187.5491,80.9087 187.1111,78.0417 C186.9161,76.7707 186.2501,75.4617 184.9461,76.0367 C182.1341,77.2767 179.4961,78.6027 177.0491,76.4157 M157.4171,40.6607 C156.1221,38.5427 154.9371,38.7807 153.4011,39.6837 C143.8341,45.3087 134.2071,50.8337 124.6431,56.4627 C123.8321,56.9397 121.9731,57.0527 122.7731,58.6937 C123.4411,60.0617 124.6471,59.5347 125.7481,58.8987 C136.2941,52.8047 146.8561,46.7377 157.4171,40.6607 M117.1521,54.8427 C118.4691,57.0077 119.6671,56.6887 121.1911,55.7967 C130.8141,50.1687 140.4931,44.6347 150.1191,39.0117 C150.8941,38.5587 152.8461,38.4787 151.6121,36.7467 C151.0191,35.9127 150.1061,35.7567 148.9941,36.4067 C138.4011,42.5927 127.7681,48.7097 117.1521,54.8427 M63.0961,85.8877 C71.2941,90.6047 78.6571,94.8017 85.9701,99.0817 C87.3701,99.9017 88.5111,100.2987 90.0681,99.3507 C94.6841,96.5417 99.3871,93.8777 104.6021,90.8387 C96.3891,86.1607 88.7721,81.8417 81.1811,77.4757 C80.0571,76.8287 79.0841,76.7167 77.9331,77.3857 C73.2271,80.1187 68.4931,82.8017 63.0961,85.8877 M125.0261,79.0417 C116.7931,74.2447 109.1101,69.7767 101.4401,65.2877 C100.2741,64.6047 99.3131,64.8657 98.2161,65.5227 C93.5841,68.2987 88.9061,70.9977 83.7521,74.0137 C91.8831,78.7277 99.4651,83.0887 107.0011,87.5267 C108.3421,88.3157 109.4491,88.1687 110.6841,87.4397 C115.2311,84.7557 119.7961,82.1007 125.0261,79.0417 M132.3201,92.6187 C130.6401,91.8377 129.3701,89.6347 127.0711,90.9597 C118.8611,95.6887 110.6711,100.4527 101.8131,105.5857 C105.6321,107.6797 108.7811,109.4067 111.9301,111.1327 C115.9791,115.0917 119.7361,114.6607 124.5801,111.7387 C132.2561,107.1077 139.4601,99.9447 149.9221,103.7287 C150.0481,103.7747 150.3081,103.4487 150.9221,102.9747 C145.2321,99.8767 139.7581,96.8957 134.2841,93.9157 C133.6291,93.4837 132.9751,93.0507 132.3201,92.6187 M186.5681,51.7457 C191.1921,50.2277 196.0671,50.3667 200.8081,49.6197 C201.5701,49.4997 202.5321,49.4977 203.1621,49.8597 C211.3201,54.5417 219.4351,59.2997 228.1781,64.4007 C216.0481,71.4077 204.6611,78.2227 193.0271,84.5887 C188.4151,87.1127 185.4291,89.7157 187.1581,93.2327 C185.8301,88.9587 185.7991,88.9057 179.9881,92.2487 C161.6911,102.7727 143.3871,113.2847 125.1761,123.9557 C122.6981,125.4077 120.9171,125.4807 118.4661,123.9897 C112.2211,120.1937 105.7881,116.7057 99.4301,113.0947 C92.1571,108.9447 84.8851,104.7947 77.6121,100.6447 C76.2071,99.8017 74.8011,98.9597 73.3951,98.1177 C71.7641,97.1587 70.1331,96.2007 68.5031,95.2417 C66.7961,94.2447 65.0891,93.2467 63.3821,92.2497 C62.2921,91.5327 61.3161,90.5727 59.8711,90.6227 C58.4961,88.7577 56.3151,88.1517 54.4041,87.1247 C53.8901,86.9587 53.3761,86.7927 52.8621,86.6267 C52.1471,85.1777 50.6351,84.8617 49.3821,84.1797 C48.3241,83.4077 47.3711,82.4027 45.8751,82.6097 C45.0901,81.2487 43.6521,80.8227 42.3771,80.1647 C41.9781,79.7277 41.5791,79.2897 41.1801,78.8527 C42.3941,77.9147 43.6071,76.9767 44.8211,76.0387 C47.0221,75.6707 48.2601,73.6987 50.1601,72.8307 C51.6551,72.8307 53.0451,72.8617 54.3381,73.9797 C56.0291,75.4397 58.1181,75.2637 59.9271,74.1997 C69.1691,68.7637 78.3621,63.2407 87.8051,57.6097 C85.5851,56.4207 82.7981,57.5637 81.8891,54.7817 C96.7861,46.1407 111.6831,37.4987 126.5801,28.8577 C127.2201,28.5167 127.8601,28.1757 128.5011,27.8347 C134.7491,24.6367 140.4281,20.3597 147.1211,18.0037 C148.7341,18.6867 150.3471,19.3697 151.9601,20.0517 L152.0411,20.0247 C152.5521,20.8487 153.3551,21.1507 154.2611,21.2707 C154.3991,21.5497 154.6171,21.6457 154.9151,21.5577 C159.9201,25.7127 166.0101,28.1147 171.3491,31.7307 C171.2641,32.3867 171.1791,33.0437 171.0951,33.7007 C170.0341,35.2287 169.5051,36.9427 169.3261,38.7777 C169.1381,38.9967 169.0631,39.2497 169.1031,39.5347 C168.8161,39.7067 168.5291,39.8777 168.2411,40.0477 C164.6851,36.8097 163.6561,41.0437 161.6161,42.2887 C160.4291,41.3677 159.5251,42.1337 158.5141,42.7237 C148.0381,48.8317 137.5451,54.9087 127.0571,60.9947 C125.5931,61.9077 124.1301,62.8207 122.4891,63.8447 C124.0541,66.1827 126.4511,67.4597 128.7491,68.7577 C137.3701,73.6297 146.1601,78.2077 154.3851,83.7537 C156.3401,85.0717 158.1831,85.0547 160.2641,83.8217 C168.4041,79.0027 176.6481,74.3597 184.7811,69.5297 C189.1751,66.9207 194.4041,66.0267 198.2771,62.2277 C200.7041,59.8467 199.5301,58.4017 197.7101,57.3367 C194.1321,55.2407 190.2971,53.5847 186.5681,51.7457" id="Fill-16" fill="#74777A"></path>
                <path d="M41.1797,78.8529 C41.5787,79.2899 41.9777,79.7279 42.3777,80.1649 C42.2457,82.8379 44.0117,82.7939 45.8747,82.6089 C47.3707,82.4029 48.3247,83.4079 49.3817,84.1809 C49.2407,86.8489 51.0227,86.7769 52.8617,86.6259 C53.3757,86.7929 53.8897,86.9589 54.4037,87.1259 C54.2457,91.3899 57.2437,90.7159 59.8707,90.6229 C61.3157,90.5729 62.2927,91.5329 63.3817,92.2509 C63.8717,95.3329 64.8607,97.5599 68.5027,95.2419 C70.1337,96.2009 71.7637,97.1589 73.3947,98.1189 C73.2867,101.4899 75.7287,100.6019 77.6127,100.6449 C84.8847,104.7949 92.1577,108.9449 99.4297,113.0949 C98.4307,116.3049 95.3437,117.2219 92.9637,118.8639 C90.9987,120.2189 89.8567,121.8309 90.3467,124.2429 C90.7987,126.4579 92.3417,127.3579 94.5067,127.8289 C102.5797,129.5829 110.6507,131.3849 118.2567,134.7539 C115.7837,138.3709 111.7427,139.6659 108.0367,141.2319 C104.1537,142.8739 104.7627,144.6529 107.0917,147.0029 C107.7687,147.6859 108.4677,148.3459 109.1567,149.0169 C105.8257,151.4639 102.4777,153.3239 98.9607,149.3109 C99.2237,147.6649 98.7277,146.9559 96.8607,146.9789 C92.6047,147.0339 88.3447,146.8519 84.0877,146.7269 C82.5197,146.6809 80.6357,147.1949 80.1417,144.8489 L89.6517,144.8489 L89.5537,143.2229 C84.9587,141.7299 80.4637,141.6249 76.2067,144.8049 L72.3657,144.7369 C71.8977,143.7389 72.9867,142.1849 71.2587,141.6369 C71.8007,137.9799 68.0087,137.6329 66.5477,137.3829 C64.4037,137.0149 62.2807,139.2399 61.2637,141.6569 C59.0067,143.3519 60.8827,145.7939 60.1597,147.7659 C51.7427,150.7249 43.2497,151.3919 34.3037,150.2699 C30.9867,149.8529 27.6687,149.5009 24.3307,148.8759 C17.7397,147.6419 13.0857,143.2959 9.3997,138.5979 C0.7037,127.5149 -1.0753,114.1449 0.5327,100.6609 C1.4067,93.3239 5.6047,86.5979 10.6557,81.1339 C14.6797,76.7799 17.2717,71.1669 22.5387,67.8909 C28.0937,64.4359 31.4597,65.0859 33.4587,70.3619 C32.5507,71.0629 31.6997,71.8849 30.4257,71.8309 C29.4367,71.8989 28.2407,72.1389 28.5307,73.3269 C29.0807,75.5779 31.0447,74.4899 32.4717,74.6369 C32.8097,74.5789 33.0857,74.6849 33.2997,74.9539 C33.6617,75.1989 34.0237,75.4449 34.3857,75.6909 C36.6507,76.7449 38.9147,77.7989 41.1797,78.8529" id="Fill-18" fill="#E8ECF0"></path>
                <path d="M109.1563,149.0165 C108.4673,148.3465 107.7683,147.6855 107.0923,147.0025 C104.7623,144.6535 104.1533,142.8735 108.0373,141.2325 C111.7423,139.6655 115.7833,138.3705 118.2563,134.7545 C125.8953,136.3835 129.1013,141.0025 127.5913,148.2025 C126.1213,155.2135 128.1743,159.0505 134.6583,161.4085 C150.9693,167.3375 171.2883,156.9385 176.3543,140.2915 C177.2033,137.5025 175.9043,135.0775 176.2403,132.4615 C176.4573,130.7715 176.5133,128.8765 178.1883,128.1585 C180.3583,127.2285 180.8023,129.4925 181.8313,130.6795 C183.1393,132.1855 184.5183,133.6495 186.0013,134.9835 C191.0063,139.4835 193.9553,144.5775 192.3883,151.7275 C191.7253,154.7505 192.3613,158.0395 192.2113,161.1985 C192.1083,163.3595 192.8343,164.5805 194.9703,165.2115 C196.9603,165.7985 198.8423,166.7465 200.5863,167.4595 C195.7433,175.1305 188.6153,179.2935 180.1213,181.2495 C176.1033,182.1745 171.9573,182.5375 167.9283,183.4245 C162.2723,184.6685 157.7163,188.5385 151.9353,189.8705 C144.0453,191.6895 137.7843,189.7645 131.7293,184.7335 C126.8353,180.6665 120.3273,179.8095 114.4303,177.9415 C111.2523,176.9345 108.6023,175.8555 106.8323,173.0145 C105.5233,170.9135 103.9073,170.6155 101.8013,171.9605 C100.1753,172.9995 98.7773,175.8365 96.9623,174.7705 C95.1653,173.7155 96.5523,170.8165 96.2523,168.7535 C96.9693,168.6225 97.8253,168.6555 97.7603,167.5585 C97.7533,167.4445 97.5633,167.2555 97.4503,167.2485 C96.3553,167.1885 96.3803,168.0365 96.2593,168.7605 C86.3313,165.4495 84.1293,159.8155 89.3353,151.1425 C89.7433,150.4635 89.9083,149.6385 90.1863,148.8795 C92.2393,149.0055 94.4553,148.0305 96.2623,149.7875 C96.5943,150.1045 96.9263,150.4205 97.2583,150.7375 C98.0733,157.8665 101.6043,159.7485 108.0613,156.4985 C114.3393,157.8515 118.9963,162.4215 124.7123,164.8905 C124.9803,167.3625 123.1093,170.3255 126.0163,172.1795 C128.0923,173.5015 129.8233,175.5285 133.1023,173.7255 C136.9653,171.5995 136.8053,168.8495 135.9033,164.5455 C132.0753,169.6555 128.5193,167.3765 124.9713,164.9425 C124.3533,161.3735 120.9013,161.1475 118.5983,159.5945 C115.0793,157.2215 110.2473,156.2805 109.4803,150.9985 L109.1563,149.0165 Z" id="Fill-20" fill="#DCE2EA"></path>
                <path d="M140.6163,59.3094 C143.4283,60.8224 162.6703,50.9844 167.0983,45.7694 C164.2503,45.0104 150.8733,51.8504 140.6163,59.3094 M186.5683,51.7464 C190.2973,53.5844 194.1323,55.2404 197.7103,57.3364 C199.5303,58.4024 200.7043,59.8464 198.2773,62.2274 C194.4043,66.0274 189.1753,66.9204 184.7813,69.5294 C176.6483,74.3594 168.4043,79.0024 160.2643,83.8224 C158.1833,85.0544 156.3403,85.0714 154.3853,83.7534 C146.1593,78.2074 137.3693,73.6294 128.7483,68.7584 C126.4513,67.4594 124.0543,66.1824 122.4893,63.8444 C124.1303,62.8204 125.5933,61.9074 127.0563,60.9944 C128.4243,62.9274 129.8393,62.5594 131.6893,61.4684 C141.0973,55.9184 150.5973,50.5224 160.0373,45.0254 C160.9963,44.4674 162.9713,44.2724 161.6163,42.2884 C163.6563,41.0434 164.6853,36.8094 168.2413,40.0444 C167.4723,43.3894 168.4993,45.8724 171.6023,47.0554 C166.9973,49.6564 162.3813,52.2334 157.8063,54.8794 C157.0683,55.3074 155.6833,55.7104 156.5573,56.9974 C157.1743,57.9064 158.1953,57.9674 159.2013,57.3094 C164.1753,54.0564 169.9603,52.0854 174.2623,47.7704 C176.5333,49.7704 178.8523,51.6864 181.9853,52.1534 C182.6223,52.6924 183.2343,52.7204 183.7973,52.0314 C184.7203,51.9364 185.6443,51.8414 186.5683,51.7464" id="Fill-22" fill="#535DA8"></path>
                <path d="M147.1207,18.0038 C140.4287,20.3598 134.7497,24.6368 128.4997,27.8348 C125.9577,26.4208 123.4417,26.6828 120.0397,27.3758 C122.6377,29.3698 124.7347,28.3378 126.5797,28.8578 C111.6827,37.4988 96.7867,46.1408 81.8917,54.7828 C81.5627,54.7868 81.2307,54.7908 80.8987,54.7948 C77.7767,52.9928 74.6547,51.1908 71.5167,49.3788 C71.5067,47.5208 73.2717,47.5898 74.2517,47.0208 C92.9777,36.1418 111.8437,25.4988 130.4457,14.4148 C134.6907,11.8848 137.9987,11.0978 141.8877,14.4698 C143.0937,15.5148 144.7717,16.0128 146.2347,16.7618 L147.1207,18.0038 Z" id="Fill-24" fill="#262E42"></path>
                <path d="M80.8985,54.7948 C81.2305,54.7908 81.5635,54.7868 81.8925,54.7828 C82.7975,57.5638 85.5855,56.4198 87.8045,57.6098 C78.3615,63.2408 69.1695,68.7638 59.9265,74.1998 C58.1185,75.2638 56.0285,75.4398 54.3385,73.9798 C53.0455,72.8618 51.6545,72.8308 50.1605,72.8308 C49.4865,72.1108 48.8125,71.3918 48.1385,70.6728 C48.1565,70.5078 48.1785,70.3438 48.1925,70.1788 C48.4725,66.8788 47.6665,62.8188 49.3095,60.4748 C51.2945,57.6398 55.4225,60.4688 58.6245,60.1398 C60.2485,59.9728 62.3605,60.4718 62.4525,58.1268 C62.6005,54.3448 64.9645,54.7248 67.5775,54.6728 C72.0235,54.5858 76.4515,56.1168 80.8985,54.7948" id="Fill-26" fill="#D69858"></path>
                <path d="M171.3492,31.7303 C166.0102,28.1153 159.9202,25.7123 154.9202,21.5533 C155.4072,20.5873 155.0562,18.5253 157.2292,19.7893 C158.4862,20.5193 159.7332,21.2643 160.9812,22.0093 C161.8622,22.5353 162.6222,24.2433 163.7572,22.9603 C164.9052,21.6613 163.5472,20.5413 162.6312,19.6683 C159.9822,17.1453 156.5492,16.0643 153.2482,14.7533 C155.3422,13.4093 157.7272,13.0663 160.1202,12.7383 C163.4792,12.2773 166.8332,11.7953 166.8042,7.1093 C168.8312,8.1403 167.9642,9.6273 168.2532,10.7663 C169.4582,12.7573 170.5532,12.7543 172.2562,10.7563 C172.5122,9.2793 171.6132,7.1673 174.1572,6.9053 C175.9152,6.7253 176.9112,7.7213 177.2142,9.4363 C177.9292,13.4853 180.7132,9.8133 182.2542,10.7843 C182.6982,11.1623 183.1412,11.5403 183.5852,11.9183 C182.1422,15.0293 180.5962,18.0793 178.3422,20.7083 C176.9982,22.3133 175.3292,23.0843 173.2062,22.7593 C171.3032,22.4683 169.9152,23.5893 169.2162,25.0093 C168.1512,27.1723 170.5892,26.4543 171.3802,27.1153 C172.5912,28.1273 172.1202,29.4973 172.2452,30.7443 C171.9472,31.0723 171.6482,31.4013 171.3492,31.7303" id="Fill-28" fill="#DCE2EA"></path>
                <path d="M178.3428,20.7079 C180.5958,18.0789 182.1418,15.0299 183.5848,11.9179 C184.7088,10.3079 186.0348,8.8069 186.3248,6.7539 C186.6238,6.6149 187.1158,6.2849 187.1958,6.3649 C191.3828,10.5789 193.7758,15.9889 196.2938,21.1739 C197.8668,24.4119 195.7388,27.7839 193.7998,30.7579 C191.9138,33.6509 190.2098,36.6689 188.5628,39.7069 C187.6708,41.3529 186.9988,41.0799 186.1668,39.7679 C185.4238,38.1309 184.6798,36.4949 183.9368,34.8569 C189.6868,35.5729 186.0758,31.8309 186.2908,29.9109 C188.6248,29.1019 191.0798,28.4779 192.7568,25.1849 C188.6268,28.0039 185.4498,26.5619 182.2928,24.6009 C181.0428,23.8239 179.6368,23.2969 178.3028,22.6559 C178.3158,22.0069 178.3298,21.3569 178.3428,20.7079" id="Fill-30" fill="#535DA8"></path>
                <path d="M183.9371,34.8582 C184.6801,36.4942 185.4231,38.1302 186.1661,39.7672 C184.8741,40.0852 183.5821,40.4032 182.2891,40.7222 C182.1421,40.0012 182.1401,39.1492 181.0461,39.2352 C180.9311,39.2452 180.7451,39.4312 180.7351,39.5472 C180.6471,40.6402 181.4971,40.6452 182.2201,40.7912 C181.8611,42.2332 183.4111,45.2872 179.3571,43.5672 C178.5521,43.2262 173.8831,43.8142 174.2621,47.7712 C169.9601,52.0862 164.1751,54.0562 159.2021,57.3092 C158.1951,57.9672 157.1741,57.9062 156.5581,56.9982 C155.6841,55.7112 157.0681,55.3072 157.8071,54.8792 C162.3811,52.2332 166.9971,49.6562 171.6031,47.0552 C168.4991,45.8732 167.4721,43.3892 168.2411,40.0452 C168.5291,39.8772 168.8161,39.7062 169.1041,39.5352 C169.5591,40.1582 170.2721,40.9782 170.7621,39.9632 C171.2031,39.0512 170.0701,38.8912 169.3261,38.7782 C169.5051,36.9422 170.0341,35.2292 171.0951,33.7002 C174.1021,34.9442 173.7991,39.7752 178.0881,40.1002 C178.0621,36.8512 178.3971,33.8642 182.4931,33.7032 C182.9741,34.0882 183.4561,34.4732 183.9371,34.8582" id="Fill-32" fill="#DCE2EA"></path>
                <path d="M197.2916,100.8099 C197.0546,104.6989 193.7496,108.6339 190.7896,108.5479 C187.2126,108.4449 184.7896,104.5569 184.9236,97.9459 C189.0736,103.0519 193.1096,100.7859 197.1526,98.8299 C197.1986,99.4899 197.2446,100.1499 197.2916,100.8099" id="Fill-34" fill="#262E42"></path>
                <path d="M219.0865,98.7083 C219.4775,97.9143 218.9075,95.4503 220.7445,96.9433 C224.4045,99.9173 227.5445,99.1363 231.2965,95.9083 C231.2815,99.2023 232.5655,101.6873 229.8245,104.0123 C225.7005,107.5073 222.5635,105.1223 219.2845,102.7743 C219.2185,101.4183 219.1525,100.0633 219.0865,98.7083" id="Fill-36" fill="#262E42"></path>
                <path d="M98.7896,195.2669 C98.9976,199.4649 99.7606,202.3539 96.0316,204.4129 C93.3516,205.8919 91.7056,205.2489 89.3736,204.0319 C85.6336,202.0769 87.4196,199.0939 86.9456,195.4279 C91.0416,199.1039 94.6696,199.6099 98.7896,195.2669" id="Fill-38" fill="#262E42"></path>
                <path d="M60.1597,147.766 C60.8827,145.794 59.0067,143.351 61.2637,141.657 C64.6027,145.197 67.9337,144.994 71.2587,141.637 C72.9867,142.185 71.8977,143.739 72.3657,144.737 C70.8577,145.811 72.2337,147.296 71.8257,148.527 C67.6937,152.007 63.8187,151.546 60.1597,147.766" id="Fill-40" fill="#262E42"></path>
                <path d="M181.0753,102.6263 C182.3113,106.4623 179.4213,110.6073 174.9963,112.7593 C169.9593,115.2093 167.8143,114.9253 164.8833,110.8633 C168.1183,112.3343 170.6433,112.7723 171.6533,108.9333 C172.2213,106.7723 173.0093,105.3533 176.0283,106.8553 C178.3383,108.0033 180.6813,106.4963 181.0753,102.6263" id="Fill-42" fill="#76C5D8"></path>
                <g id="Group-46" transform="translate(58.000000, 0.269000)">
                    <mask id="mask-4" fill="white">
                        <use xlink:href="#path-3"></use>
                    </mask>
                    <g id="Clip-45"></g>
                    <path d="M0.3755,7.2494 L0.3755,0.7304 C4.2765,3.4554 7.8275,4.4234 11.3345,0.9874 C12.1445,7.7524 10.3975,9.6904 4.3495,9.3004 C3.3595,7.9674 1.2545,8.7954 0.3755,7.2494" id="Fill-44" fill="#262E42" mask="url(#mask-4)"></path>
                </g>
                <path d="M29.0836,26.6869 C26.7036,27.3639 25.2656,30.5249 22.0996,29.1959 C18.1996,27.5589 17.7736,26.7479 18.4036,20.4919 C21.5196,23.1899 24.5276,24.0239 27.8786,21.0379 C28.9956,20.0429 29.1446,21.8619 29.3536,22.7279 C29.2636,24.0479 29.1736,25.3679 29.0836,26.6869" id="Fill-47" fill="#262E42"></path>
                <path d="M48.1382,70.6732 C48.8122,71.3922 49.4872,72.1112 50.1602,72.8302 C48.2602,73.6982 47.0222,75.6712 44.8242,76.0412 C42.2792,73.0922 37.9362,72.7822 35.4842,69.6912 C40.1412,64.3632 44.0442,68.7542 48.1382,70.6732" id="Fill-49" fill="#2B4C74"></path>
                <path d="M60.3404,23.0155 C60.4514,22.7035 60.5204,22.3695 60.6824,22.0875 C60.9564,21.6125 61.7374,21.5155 61.5174,22.0605 C59.1004,28.0375 63.3714,29.3575 67.4564,30.9785 C69.7044,31.8705 72.2794,32.6245 73.8884,34.2515 C75.5364,35.9185 77.3534,36.9025 79.7264,37.5005 C78.3534,38.9255 77.2894,38.4395 76.2614,37.9805 C72.2694,36.1995 67.8374,35.4005 64.3794,32.4175 C62.5974,30.8805 60.4934,29.9345 58.0084,30.4695 C61.2384,28.7525 60.0604,25.6555 60.3404,23.0155" id="Fill-51" fill="#76C5D8"></path>
                <path d="M60.3404,23.0155 C60.0604,25.6555 61.2384,28.7525 58.0084,30.4695 C52.7744,32.7045 49.5454,30.6485 49.1154,24.8045 C49.1914,24.1395 49.2664,23.4745 49.3414,22.8105 C52.9544,25.7525 56.6294,25.3755 60.3404,23.0155" id="Fill-53" fill="#262E42"></path>
                <path d="M51.2769,48.8709 C48.4139,49.6239 46.5149,48.0899 46.5909,45.5559 C46.6789,42.6499 49.5319,42.9379 51.6319,43.0009 C53.9769,43.0709 56.8909,43.5379 56.6599,46.3819 C56.4459,49.0099 53.9039,49.7379 51.2769,48.8709" id="Fill-55" fill="#D69858"></path>
                <path d="M71.8257,148.5267 C72.2337,147.2957 70.8577,145.8107 72.3657,144.7367 C73.6457,144.7597 74.9267,144.7817 76.2077,144.8037 C77.5197,144.8187 78.8307,144.8337 80.1417,144.8487 C80.6357,147.1947 82.5197,146.6807 84.0877,146.7267 C88.3447,146.8517 92.6047,147.0337 96.8607,146.9797 C98.7277,146.9557 99.2237,147.6647 98.9607,149.3107 C98.3737,149.4697 97.7877,149.6297 97.2017,149.7887 C96.8887,149.7967 96.5757,149.7967 96.2627,149.7887 C94.4557,148.0307 92.2387,149.0057 90.1857,148.8797 C84.0657,148.7627 77.9457,148.6447 71.8257,148.5267" id="Fill-57" fill="#C6D2D6"></path>
                <path d="M35.4839,69.6913 C37.9359,72.7823 42.2789,73.0923 44.8239,76.0413 C43.6079,76.9773 42.3939,77.9153 41.1799,78.8533 C38.9149,77.7983 36.6509,76.7453 34.3859,75.6913 C34.0239,75.4453 33.6619,75.1993 33.2999,74.9533 C33.0859,74.6843 32.8099,74.5783 32.4719,74.6363 C31.9929,73.5533 29.7849,73.7313 30.4249,71.8303 C31.6999,71.8843 32.5499,71.0633 33.4589,70.3613 C34.1339,70.1383 34.8089,69.9143 35.4839,69.6913" id="Fill-59" fill="#262E42"></path>
                <path d="M219.0865,98.7083 C219.1525,100.0633 219.2185,101.4183 219.2845,102.7743 C212.0325,101.2323 204.7035,100.5643 197.2915,100.8093 C197.2445,100.1493 197.1985,99.4903 197.1525,98.8303 C204.4635,98.7893 211.7745,98.7493 219.0865,98.7083" id="Fill-61" fill="#C6D2D6"></path>
                <path d="M49.3419,22.8109 C49.2659,23.4749 49.1909,24.1399 49.1149,24.8039 C42.2559,23.4839 35.8289,26.7799 29.0839,26.6869 C29.1739,25.3679 29.2639,24.0479 29.3539,22.7279 C36.0159,22.7559 42.6789,22.7829 49.3419,22.8109" id="Fill-63" fill="#C6D2D6"></path>
                <path d="M153.2481,14.7533 C156.5491,16.0643 159.9821,17.1453 162.6311,19.6693 C163.5471,20.5413 164.9051,21.6613 163.7571,22.9603 C162.6231,24.2433 161.8621,22.5353 160.9811,22.0093 C159.7331,21.2643 158.4861,20.5193 157.2291,19.7893 C155.0561,18.5253 155.4071,20.5873 154.9201,21.5533 C154.6171,21.6463 154.3991,21.5503 154.2611,21.2673 C153.9621,20.0623 153.1371,19.7993 152.0411,20.0243 C152.0411,20.0243 151.9601,20.0523 151.9611,20.0503 C152.8231,18.0453 151.4001,16.9483 150.2511,15.7423 C150.9801,14.5933 152.1501,14.7833 153.2481,14.7533" id="Fill-65" fill="#E8ECF0"></path>
                <path d="M58.3755,7.5184 C59.2545,9.0644 61.3595,8.2364 62.3495,9.5694 C60.7695,10.9534 59.9935,12.6314 60.2265,14.7874 C60.4965,17.2944 59.5925,19.1944 56.5985,20.5064 C55.8105,15.7414 59.6455,11.8894 58.3755,7.5184" id="Fill-67" fill="#C6D2D6"></path>
                <path d="M150.2515,15.7425 C151.3995,16.9485 152.8225,18.0455 151.9615,20.0505 C150.3465,19.3695 148.7335,18.6865 147.1205,18.0035 L146.2345,16.7615 C147.4855,16.0775 148.7935,15.6165 150.2515,15.7425" id="Fill-69" fill="#DCE2EA"></path>
                <path d="M186.3248,6.7542 C186.0348,8.8062 184.7088,10.3082 183.5848,11.9182 L182.2548,10.7842 C181.8148,7.6272 183.2108,6.3232 186.3248,6.7542" id="Fill-71" fill="#E8ECF0"></path>
                <path d="M172.2564,10.7567 C170.5534,12.7547 169.4584,12.7577 168.2534,10.7667 C169.5874,10.7637 170.9224,10.7597 172.2564,10.7567" id="Fill-73" fill="#E8ECF0"></path>
                <path d="M183.7969,52.0311 C183.2339,52.7201 182.6229,52.6931 181.9849,52.1531 C182.5409,51.3281 183.1609,51.5661 183.7969,52.0311" id="Fill-75" fill="#74777A"></path>
                <path d="M101.8941,79.367 C105.3671,79.37 108.9511,77.662 108.9961,75.656 C109.0761,72.102 106.1091,71.236 103.4691,70.226 C103.0061,70.049 102.5401,69.852 102.0581,69.761 C97.9861,68.993 92.4571,71.082 92.7691,73.509 C93.3181,77.775 96.9591,78.583 100.5141,79.153 C101.0061,79.232 101.4991,79.306 101.8941,79.367 M116.7641,78.268 C116.5991,78.081 116.4231,77.905 116.2361,77.739 C116.2261,77.042 115.9141,76.101 115.2481,76.444 C111.4881,78.381 107.8181,80.494 104.1181,82.548 C104.3321,82.918 104.5471,83.289 104.7621,83.659 C107.7671,82.912 109.9381,80.046 114.4381,79.428 C111.2991,81.503 109.2641,82.847 107.2291,84.192 C111.3441,83.188 114.8621,81.23 118.3321,79.189 C118.9071,78.85 119.2411,78.082 118.1441,77.875 C117.7241,77.796 117.2261,78.125 116.7641,78.268 M125.0261,79.042 C119.7961,82.1 115.2311,84.756 110.6841,87.44 C109.4491,88.168 108.3421,88.315 107.0011,87.526 C99.4651,83.089 91.8831,78.728 83.7521,74.013 C88.9061,70.998 93.5841,68.299 98.2161,65.523 C99.3131,64.866 100.2741,64.604 101.4401,65.287 C109.1101,69.777 116.7931,74.244 125.0261,79.042" id="Fill-77" fill="#E8ECF0"></path>
                <path d="M73.0967,87.7528 C75.5287,90.8078 78.8687,91.2928 82.4637,91.0658 C84.8527,90.9158 87.3877,90.5078 88.1807,87.9948 C89.1417,84.9478 86.6367,83.7718 84.3637,82.7138 C82.7177,81.9938 81.2207,80.9488 79.2827,80.9518 C74.5447,80.9578 71.7747,83.9488 73.0967,87.7528 M89.2797,96.0778 C91.9337,94.5318 94.6077,93.0178 97.2237,91.4098 C97.7187,91.1068 98.9567,90.6428 97.6947,89.7848 C97.3767,89.5678 96.7487,89.8078 96.2627,89.8378 C96.2367,88.9538 96.1807,88.0878 95.0477,87.8978 C91.8067,89.7458 88.5677,91.5968 85.3247,93.4418 C84.2537,94.0518 83.0457,94.6328 85.0567,95.6158 C86.5217,95.2438 87.6727,97.7548 89.2797,96.0778 M63.0957,85.8878 C68.4927,82.8018 73.2267,80.1188 77.9327,77.3858 C79.0847,76.7168 80.0567,76.8288 81.1807,77.4758 C88.7717,81.8418 96.3887,86.1608 104.6017,90.8388 C99.3877,93.8778 94.6837,96.5418 90.0687,99.3508 C88.5117,100.2988 87.3697,99.9008 85.9697,99.0818 C78.6567,94.8018 71.2947,90.6048 63.0957,85.8878" id="Fill-79" fill="#E8ECF0"></path>
                <path d="M134.2838,93.9154 C139.7578,96.8954 145.2318,99.8764 150.9228,102.9754 C150.3078,103.4484 150.0478,103.7744 149.9218,103.7284 C139.4608,99.9454 132.2558,107.1074 124.5798,111.7384 C119.7358,114.6614 115.9798,115.0914 111.9298,111.1334 C112.0428,110.9984 112.1568,110.8654 112.2708,110.7334 C112.7908,110.4974 113.3108,110.2604 113.8318,110.0234 C118.3078,109.4644 121.4568,105.8584 125.7318,104.8374 C125.5208,106.6074 126.7108,106.3344 127.5338,105.8534 C131.1788,103.7194 134.7528,101.4644 138.4578,99.1894 C136.7848,97.6304 135.2568,98.2154 133.7258,98.8374 C133.9118,97.1964 134.0978,95.5564 134.2838,93.9154" id="Fill-81" fill="#E8ECF0"></path>
                <path d="M111.9302,111.1332 C108.7812,109.4062 105.6322,107.6802 101.8132,105.5862 C110.6712,100.4522 118.8612,95.6892 127.0712,90.9592 C129.3702,89.6342 130.6402,91.8382 132.3202,92.6192 C132.2502,93.6902 131.8682,94.5102 130.6752,94.6842 C126.4992,94.3762 123.3512,96.2462 123.2222,99.1152 C121.3092,100.1922 120.0562,101.9312 117.3622,102.2412 C111.7062,102.8932 109.8952,106.4712 112.2712,110.7332 C112.1562,110.8652 112.0422,110.9992 111.9302,111.1332" id="Fill-83" fill="#E8ECF0"></path>
                <path d="M161.6163,42.2884 C162.9713,44.2724 160.9963,44.4674 160.0373,45.0254 C150.5973,50.5224 141.0973,55.9184 131.6893,61.4684 C129.8393,62.5594 128.4243,62.9274 127.0563,60.9944 C137.5453,54.9094 148.0383,48.8314 158.5133,42.7244 C159.5253,42.1344 160.4293,41.3684 161.6163,42.2884" id="Fill-85" fill="#E8ECF0"></path>
                <path d="M117.1519,54.8426 C127.7679,48.7096 138.4019,42.5926 148.9939,36.4066 C150.1059,35.7566 151.0189,35.9126 151.6119,36.7466 C152.8459,38.4786 150.8939,38.5586 150.1189,39.0116 C140.4929,44.6346 130.8149,50.1686 121.1919,55.7966 C119.6669,56.6886 118.4689,57.0086 117.1519,54.8426" id="Fill-87" fill="#E8ECF0"></path>
                <path d="M157.4171,40.6605 C146.8561,46.7375 136.2941,52.8045 125.7481,58.8985 C124.6471,59.5345 123.4411,60.0615 122.7731,58.6935 C121.9731,57.0535 123.8331,56.9395 124.6431,56.4625 C134.2081,50.8335 143.8341,45.3085 153.4011,39.6835 C154.9371,38.7815 156.1221,38.5425 157.4171,40.6605" id="Fill-89" fill="#E8ECF0"></path>
                <path d="M112.2711,110.7332 C109.8961,106.4712 111.7071,102.8932 117.3621,102.2412 C120.0561,101.9312 121.3091,100.1922 123.2211,99.1192 C125.8541,97.8952 128.6331,96.9082 130.6751,94.6842 C131.8691,94.5102 132.2501,93.6902 132.3201,92.6192 C132.9751,93.0512 133.6291,93.4832 134.2841,93.9152 C134.0981,95.5562 133.9121,97.1962 133.7311,98.8222 C133.6591,98.9402 133.5791,99.0782 133.4951,99.2222 C131.8151,98.0872 130.3961,98.9902 128.9651,99.8032 C124.6451,102.2562 120.3421,104.7412 115.9931,107.1422 C114.7871,107.8082 113.7451,108.4542 113.8321,110.0242 C113.3111,110.2602 112.7911,110.4972 112.2711,110.7332" id="Fill-91" fill="#C6D2D6"></path>
                <path d="M177.0489,76.4154 C179.4959,78.6024 182.1339,77.2764 184.9459,76.0374 C186.2509,75.4614 186.9169,76.7704 187.1119,78.0414 C187.5489,80.9094 185.4329,81.9504 183.5859,83.4034 C181.2939,85.2074 179.4119,84.5944 177.3019,83.2574 C175.1579,81.8984 174.8289,79.9084 175.0499,77.6674 C175.1389,76.7644 175.5309,76.0934 177.0489,76.4154" id="Fill-93" fill="#262E42"></path>
                <path d="M182.4932,33.7035 C178.3972,33.8645 178.0622,36.8505 178.0882,40.1005 C173.7992,39.7755 174.1022,34.9445 171.0952,33.7005 C171.1792,33.0435 171.2642,32.3875 171.3492,31.7305 C171.6482,31.4015 171.9472,31.0725 172.2452,30.7445 C175.0332,31.1855 177.2682,29.7135 179.6132,28.6205 L182.4932,33.7035 Z" id="Fill-95" fill="#F6F5F6"></path>
                <path d="M131.6031,89.0057 C133.4421,86.4567 135.1241,86.7287 136.9111,88.1217 C137.6241,88.6777 137.4161,89.3037 136.9321,89.7497 C134.9721,91.5517 133.4781,89.8477 131.6031,89.0057" id="Fill-97" fill="#E8ECF0"></path>
                <path d="M126.5797,28.8573 C124.7347,28.3383 122.6377,29.3693 120.0397,27.3753 C123.4417,26.6833 125.9577,26.4203 128.4997,27.8343 C127.8607,28.1753 127.2207,28.5163 126.5797,28.8573" id="Fill-99" fill="#2B4C74"></path>
                <path d="M68.503,95.242 C64.861,97.559 63.872,95.333 63.382,92.251 C65.089,93.247 66.796,94.244 68.503,95.242" id="Fill-101" fill="#F6F5F6"></path>
                <path d="M59.8712,90.6229 C57.2442,90.7159 54.2462,91.3899 54.4042,87.1259 C56.3152,88.1519 58.4962,88.7579 59.8712,90.6229" id="Fill-103" fill="#F6F5F6"></path>
                <path d="M77.6124,100.6444 C75.7284,100.6014 73.2874,101.4894 73.3954,98.1194 C74.8004,98.9594 76.2064,99.8024 77.6124,100.6444" id="Fill-105" fill="#F6F5F6"></path>
                <path d="M45.8751,82.6092 C44.0121,82.7942 42.2461,82.8382 42.3771,80.1652 C43.6521,80.8232 45.0901,81.2492 45.8751,82.6092" id="Fill-107" fill="#F6F5F6"></path>
                <path d="M52.8619,86.6263 C51.0229,86.7773 49.2399,86.8493 49.3819,84.1803 C50.6349,84.8623 52.1469,85.1773 52.8619,86.6263" id="Fill-109" fill="#F6F5F6"></path>
                <path d="M169.3257,38.7782 C170.0697,38.8912 171.2027,39.0512 170.7627,39.9632 C170.2717,40.9782 169.5587,40.1582 169.1037,39.5352 C169.0637,39.2492 169.1377,38.9972 169.3257,38.7782" id="Fill-111" fill="#F6F5F6"></path>
                <path d="M152.0411,20.0243 C153.1371,19.7993 153.9621,20.0623 154.2611,21.2673 C153.3551,21.1503 152.5521,20.8483 152.0411,20.0243" id="Fill-113" fill="#DCE2EA"></path>
                <path d="M97.2017,149.7889 C97.7877,149.6299 98.3737,149.4699 98.9607,149.3109 C102.4777,153.3239 105.8257,151.4639 109.1567,149.0169 C109.2647,149.6769 109.3717,150.3379 109.4807,150.9949 C109.1877,152.8729 109.3047,154.8609 108.0627,156.4979 C101.6047,159.7489 98.0737,157.8659 97.2587,150.7379 C97.4087,150.4119 97.3897,150.0949 97.2017,149.7889" id="Fill-115" fill="#262E42"></path>
                <path d="M71.2584,141.6366 C67.9334,144.9936 64.6024,145.1966 61.2644,141.6566 C62.2804,139.2396 64.4034,137.0146 66.5484,137.3826 C68.0084,137.6336 71.8004,137.9796 71.2584,141.6366" id="Fill-117" fill="#F6F5F6"></path>
                <path d="M80.1422,144.849 C78.8302,144.834 77.5192,144.819 76.2072,144.804 C80.4642,141.625 84.9582,141.73 89.5542,143.223 L89.6522,144.849 L80.1422,144.849 Z" id="Fill-119" fill="#F6F5F6"></path>
                <path d="M30.4254,71.8304 C29.7844,73.7304 31.9934,73.5534 32.4714,74.6364 C31.0454,74.4894 29.0804,75.5774 28.5304,73.3274 C28.2404,72.1384 29.4374,71.8994 30.4254,71.8304" id="Fill-121" fill="#F6F5F6"></path>
                <path d="M33.2999,74.9535 C33.6619,75.1995 34.0239,75.4455 34.3859,75.6915 C34.0239,75.4455 33.6619,75.1995 33.2999,74.9535" id="Fill-123" fill="#F6F5F6"></path>
                <path d="M124.9713,164.9427 C128.5193,167.3767 132.0753,169.6557 135.9033,164.5457 C136.8053,168.8497 136.9653,171.5997 133.1023,173.7257 C129.8233,175.5287 128.0923,173.5017 126.0163,172.1787 C123.1093,170.3257 124.9803,167.3627 124.7123,164.8907 L124.9713,164.9427 Z" id="Fill-125" fill="#2B4C74"></path>
                <path d="M124.9713,164.9427 L124.7123,164.8907 C118.9963,162.4217 114.3393,157.8517 108.0613,156.4987 C109.3043,154.8607 109.1873,152.8737 109.4803,150.9947 C110.2473,156.2807 115.0793,157.2217 118.5983,159.5937 C120.9013,161.1477 124.3533,161.3737 124.9713,164.9427" id="Fill-127" fill="#76C5D8"></path>
                <path d="M96.2589,168.7606 C96.3809,168.0366 96.3559,167.1886 97.4499,167.2486 C97.5639,167.2556 97.7539,167.4446 97.7599,167.5576 C97.8259,168.6556 96.9699,168.6226 96.2519,168.7536 C96.2519,168.7536 96.2589,168.7606 96.2589,168.7606" id="Fill-129" fill="#F6F5F6"></path>
                <path d="M97.2017,149.7889 C97.3897,150.0949 97.4087,150.4119 97.2587,150.7379 C96.9267,150.4209 96.5947,150.1039 96.2627,149.7879 C96.5757,149.7969 96.8887,149.7969 97.2017,149.7889" id="Fill-131" fill="#F6F5F6"></path>
                <path d="M140.6163,59.3094 C150.8733,51.8504 164.2503,45.0104 167.0983,45.7694 C162.6703,50.9844 143.4283,60.8224 140.6163,59.3094" id="Fill-133" fill="#DCE2EA"></path>
                <path d="M179.6133,28.6205 C177.2683,29.7135 175.0333,31.1855 172.2453,30.7445 C172.1203,29.4975 172.5913,28.1275 171.3803,27.1155 C170.5893,26.4535 168.1513,27.1725 169.2163,25.0095 C169.9153,23.5895 171.3033,22.4685 173.2063,22.7595 C175.3293,23.0845 176.9983,22.3135 178.3423,20.7085 C178.3293,21.3575 178.3163,22.0065 178.3023,22.6565 C178.0463,23.7435 178.3253,24.7275 178.8763,25.6605 L179.6133,28.6205 Z" id="Fill-135" fill="#E8ECF0"></path>
                <path d="M179.6133,28.6205 C179.3673,27.6335 179.1223,26.6465 178.8793,25.6595 C181.3513,27.0755 183.8213,28.4935 186.2913,29.9115 C186.0763,31.8305 189.6863,35.5735 183.9363,34.8575 C183.4553,34.4735 182.9743,34.0885 182.4923,33.7035 C181.5333,32.0095 180.5733,30.3145 179.6133,28.6205" id="Fill-137" fill="#6883BE"></path>
                <path d="M186.2911,29.911 C183.8211,28.494 181.3521,27.076 178.8791,25.659 C178.3251,24.728 178.0461,23.743 178.3031,22.656 C179.6371,23.297 181.0421,23.824 182.2921,24.6 C185.4501,26.562 188.6261,28.004 192.7571,25.185 C191.0801,28.477 188.6241,29.101 186.2911,29.911" id="Fill-139" fill="#76C5D8"></path>
                <path d="M182.2203,40.7909 C181.4973,40.6449 180.6473,40.6409 180.7353,39.5469 C180.7443,39.4319 180.9303,39.2449 181.0463,39.2359 C182.1403,39.1489 182.1413,40.0009 182.2893,40.7219 C182.2893,40.7219 182.2203,40.7909 182.2203,40.7909" id="Fill-141" fill="#F6F5F6"></path>
                <path d="M101.6509,77.742 C103.5119,77.258 106.3129,77.641 106.1439,74.933 C105.9389,71.655 102.7629,71.73 100.3859,71.561 C98.4989,71.427 95.5839,71.388 95.6399,73.846 C95.7189,77.254 99.1759,77.081 101.6509,77.742 M101.8939,79.367 C101.4999,79.306 101.0059,79.232 100.5139,79.153 C96.9589,78.583 93.3179,77.775 92.7689,73.509 C92.4569,71.082 97.9859,68.993 102.0579,69.761 C102.5409,69.852 103.0059,70.049 103.4689,70.226 C106.1089,71.236 109.0759,72.102 108.9959,75.656 C108.9509,77.662 105.3669,79.37 101.8939,79.367" id="Fill-143" fill="#535DA8"></path>
                <path d="M116.7637,78.2684 C117.2257,78.1254 117.7237,77.7954 118.1447,77.8744 C119.2407,78.0814 118.9077,78.8504 118.3317,79.1884 C114.8627,81.2304 111.3437,83.1884 107.2297,84.1914 C109.2637,82.8474 111.2987,81.5024 114.4377,79.4284 C109.9377,80.0454 107.7667,82.9124 104.7617,83.6594 C104.5477,83.2894 104.3327,82.9184 104.1177,82.5484 C107.8187,80.4944 111.4887,78.3814 115.2487,76.4434 C115.9137,76.1014 116.2257,77.0414 116.2367,77.7394 C115.9117,77.9514 115.5867,78.1624 115.2627,78.3744 C115.8147,79.0734 116.2807,78.5514 116.7637,78.2684" id="Fill-145" fill="#262E42"></path>
                <path d="M84.3672,82.7147 C86.6372,83.7717 89.1422,84.9477 88.1802,87.9947 C87.3872,90.5077 84.8522,90.9157 82.4632,91.0667 C78.8692,91.2927 75.5292,90.8077 73.0972,87.7537 C73.6052,87.3077 74.1112,86.8607 74.6182,86.4127 C76.6492,89.1507 79.6122,89.7807 82.5962,89.1457 C84.6312,88.7117 87.7752,87.7537 84.4492,84.6547 C84.4222,84.0087 84.3942,83.3617 84.3672,82.7147" id="Fill-147" fill="#6DAD4A"></path>
                <path d="M74.6182,86.4129 C74.1112,86.8599 73.6052,87.3079 73.0972,87.7539 C71.7752,83.9489 74.5442,80.9579 79.2832,80.9519 C81.2202,80.9489 82.7182,81.9939 84.3652,82.7149 C84.3942,83.3619 84.4222,84.0089 84.4482,84.6549 C80.7482,82.8819 77.2002,81.9499 74.6182,86.4129" id="Fill-149" fill="#B6D576"></path>
                <path d="M95.0479,87.8973 C96.1809,88.0883 96.2369,88.9543 96.2629,89.8373 C93.9019,91.3813 91.5459,92.9333 89.1779,94.4663 C88.2199,95.0863 87.5019,95.6503 89.2799,96.0773 C87.6729,97.7553 86.5219,95.2443 85.0569,95.6163 C87.0539,94.3153 89.1859,93.1763 91.0059,91.6633 C92.4079,90.4973 95.4109,90.9473 95.0479,87.8973" id="Fill-151" fill="#C6D2D6"></path>
                <path d="M95.0479,87.8973 C95.4109,90.9473 92.4079,90.4973 91.0059,91.6633 C89.1859,93.1763 87.0539,94.3153 85.0569,95.6163 C83.0459,94.6323 84.2539,94.0523 85.3249,93.4423 C88.5679,91.5963 91.8069,89.7463 95.0479,87.8973" id="Fill-153" fill="#262E42"></path>
                <path d="M89.2798,96.0775 C87.5018,95.6505 88.2198,95.0865 89.1778,94.4665 C91.5458,92.9335 93.9018,91.3815 96.2628,89.8375 C96.7488,89.8075 97.3768,89.5685 97.6948,89.7845 C98.9568,90.6425 97.7188,91.1065 97.2238,91.4105 C94.6078,93.0175 91.9338,94.5315 89.2798,96.0775" id="Fill-155" fill="#262E42"></path>
                <path d="M113.8316,110.0238 C113.7446,108.4538 114.7866,107.8078 115.9936,107.1418 C120.3416,104.7408 124.6446,102.2568 128.9646,99.8028 C130.3956,98.9898 131.8146,98.0868 133.4946,99.2168 C130.9056,101.0868 128.3186,102.9618 125.7316,104.8378 C121.4566,105.8578 118.3076,109.4638 113.8316,110.0238" id="Fill-157" fill="#D69858"></path>
                <path d="M125.7315,104.8377 C128.3185,102.9627 130.9055,101.0867 133.4945,99.2167 C133.5795,99.0787 133.6595,98.9397 133.7315,98.8217 C135.2565,98.2157 136.7855,97.6297 138.4575,99.1897 C134.7525,101.4637 131.1785,103.7187 127.5335,105.8527 C126.7105,106.3347 125.5205,106.6077 125.7315,104.8377" id="Fill-159" fill="#6883BE"></path>
                <path d="M130.6749,94.6844 C128.6329,96.9084 125.8549,97.8954 123.2209,99.1194 C123.3519,96.2464 126.4989,94.3754 130.6749,94.6844" id="Fill-161" fill="#EEA1A5"></path>
                <path d="M101.6509,77.742 C99.1759,77.081 95.7189,77.254 95.6399,73.846 C95.5839,71.388 98.4989,71.427 100.3859,71.561 C102.7629,71.73 105.9389,71.655 106.1439,74.933 C106.3129,77.641 103.5119,77.258 101.6509,77.742" id="Fill-163" fill="#E8ECF0"></path>
                <path d="M116.7637,78.2684 C116.2807,78.5514 115.8147,79.0734 115.2627,78.3744 C115.5867,78.1624 115.9117,77.9514 116.2367,77.7394 C116.4227,77.9054 116.5987,78.0814 116.7637,78.2684" id="Fill-165" fill="#E8ECF0"></path>
                <path d="M74.6182,86.4129 C77.2002,81.9499 80.7482,82.8819 84.4482,84.6549 C87.7752,87.7539 84.6312,88.7109 82.5962,89.1449 C79.6122,89.7809 76.6492,89.1499 74.6182,86.4129" id="Fill-167" fill="#E8ECF0"></path>
            </g>
        </g>
    </g>
</svg>