<?xml version="1.0" encoding="UTF-8"?>
<svg width="242px" height="226px" viewBox="0 0 242 226" version="1.1" xmlns="http://www.w3.org/2000/svg" xmlns:xlink="http://www.w3.org/1999/xlink">
    <!-- Generator: sketchtool 50.2 (55047) - http://www.bohemiancoding.com/sketch -->
    <title>4F3CCAF4-3DD3-49E1-8764-37A372655090</title>
    <desc>Created with sketchtool.</desc>
    <defs>
        <polygon id="path-1" points="0.00015900463 0.488952849 241.206423 0.488952849 241.206423 224.999607 0.00015900463 224.999607"></polygon>
        <polygon id="path-3" points="0.00928032787 0.320977244 110.209352 0.320977244 110.209352 89.5624545 0.00928032787 89.5624545"></polygon>
    </defs>
    <g id="Symbols" stroke="none" stroke-width="1" fill="none" fill-rule="evenodd">
        <g id="il/1">
            <g id="Group">
                <g id="Group-3">
                    <mask id="mask-2" fill="white">
                        <use xlink:href="#path-1"></use>
                    </mask>
                    <g id="Clip-2"></g>
                    <path d="M181.791496,129.273659 C181.44813,128.722134 181.104764,128.17061 180.761398,127.619085 C182.005186,124.754451 182.614296,122.54561 177.942326,123.614817 C176.347866,123.980671 174.527843,124.768171 172.783617,123.798659 C172.453035,122.221829 171.077745,122.069085 169.886009,121.664817 C169.595609,121.45628 169.305209,121.247744 169.013896,121.038293 C168.675096,120.790427 168.336296,120.540732 167.997496,120.292866 C170.55813,117.184024 173.957088,115.892561 177.868356,115.501098 C179.941337,115.29439 181.917518,114.827012 179.195247,112.314512 C177.21176,110.484329 178.290258,109.041037 180.265526,108.120915 C182.889171,106.898963 185.4425,106.834024 187.767526,108.762988 C187.4753,110.667256 184.170402,110.072744 185.086349,111.986159 C185.991337,113.875793 187.823232,112.079451 189.119986,111.837988 C202.021783,109.4325 214.975632,107.20628 227.726749,104.142256 C232.334794,103.035549 238.625881,102.459329 238.810349,95.1385976 C238.82222,94.6831098 239.666024,94.2989634 239.980168,93.7922561 C242.304281,90.0459146 241.311624,86.0892073 237.117262,84.4428659 C234.170341,83.2867683 231.847141,82.5376829 231.485511,78.634939 C231.304696,76.6913415 228.902047,75.174878 226.618115,74.2666463 C221.421051,72.2041463 216.045911,70.3318902 211.316409,67.4407317 C208.023383,65.4285366 204.786975,64.9209146 201.212681,64.197439 C193.285126,62.5931707 184.429752,65.1687805 177.440975,59.1605488 C177.143269,58.9035366 176.570688,58.9007927 176.12413,58.8953049 C165.206734,58.7672561 154.544122,57.0468293 144.186522,53.6196951 C145.795594,49.1196951 145.786462,49.1288415 142.061488,45.3943902 C141.778394,45.1108537 141.546439,44.5145122 141.641413,44.1559756 C142.485217,40.9840244 140.802175,37.5687805 142.564666,34.5038415 C144.405692,31.3007927 142.906205,30.409939 139.868877,30.5132927 C138.653398,30.5553659 137.436092,30.5215244 136.2197,30.5215244 C133.846273,21.5608537 131.315775,12.6468293 126.625541,4.55871951 C123.453971,-0.912621951 121.361813,-0.875121951 118.183851,4.71878049 C113.567586,12.8462195 110.992341,21.7264024 108.690145,30.7309756 C107.232666,36.4318902 107.502062,42.4693902 105.151466,47.9709146 L105.009005,45.1492683 C104.797141,44.6718293 104.663813,43.8495732 104.359715,43.780061 C103.394454,43.5596341 103.35336,44.4303659 103.235556,45.1090244 L103.207247,45.1382927 C99.1343411,47.0709146 98.0741072,49.6858537 99.3069374,54.7584146 C101.130613,62.2593293 99.3836468,66.7053659 93.2222355,69.2919512 C86.9293223,71.9352439 80.3971487,72.1328049 73.640326,71.1440854 C66.4369449,70.0895122 60.7933223,66.0477439 54.8483411,62.4760976 C54.2282732,61.2779268 53.3260242,60.3669512 52.1151109,59.7678659 C52.0685374,59.0233537 51.9050732,58.3392073 51.1808996,57.9440854 C49.6713675,55.3081098 48.1627487,52.6730488 46.408477,49.6081098 C44.0688392,57.8553659 40.1338279,65.0635976 41.9995109,73.3831098 C42.3090883,74.7642073 41.9374128,76.3254878 39.9502732,76.0895122 C38.1037675,75.8690854 38.4526128,74.5529268 38.9210883,73.3337195 C39.7018808,71.3014024 38.5886808,70.0355488 36.9887411,69.3038415 C35.4015864,68.5767073 33.9094053,68.7065854 32.5797751,70.3492683 C30.167994,73.330061 27.0229072,73.7142073 23.7161826,71.922439 C22.5892845,71.312378 21.5820166,70.3895122 20.6478053,71.867561 C19.5583487,73.5916463 20.6624166,74.9608537 22.0614506,75.5956098 C24.4686657,76.6885976 27.1425374,76.8431707 29.4620845,75.4190854 C31.1387336,74.390122 32.829994,74.5492683 33.2984694,76.0035366 C33.9404543,77.9965244 35.9449449,79.4032317 35.6563713,81.7218293 C31.6263864,80.877622 26.9306732,84.0157317 24.7006204,89.042561 L24.6997072,89.042561 C22.9271713,88.8239634 21.5737977,89.4514024 20.2176845,90.6751829 C16.2835864,94.2239634 13.3019638,98.8437805 9.55963925,102.216951 C3.84022038,107.374573 3.4311034,114.137378 1.06772226,120.297439 C-1.17328906,126.140122 0.805631698,132.291951 0.832114717,138.312988 C0.861337358,144.661463 2.96354113,150.357805 5.85566943,155.542866 C15.2754053,172.431585 29.1278506,184.59622 46.8322053,192.452012 C49.5736543,193.668476 52.2219562,195.101707 55.1022128,195.995305 C56.0017223,196.276098 57.1021374,196.565122 57.1076166,197.562988 C57.1158355,199.185549 55.6145223,198.614817 54.6830506,198.837988 C51.8904619,199.5075 48.9928543,199.895305 46.3272015,200.901402 C38.0581072,204.018476 34.7038958,211.522134 39.0653751,218.062683 C41.3301298,221.45872 44.9646958,224.369085 49.4211487,224.295 C54.6291713,224.207195 60.7184392,227.348963 64.6634958,221.031585 C64.77856,220.848659 65.2296845,220.878841 65.5219109,220.802927 C71.2550279,219.322134 74.3845902,210.25628 70.4066581,205.849573 C68.0834581,203.275793 69.1701751,202.546829 71.5162053,201.377927 C74.8850279,199.697744 78.0474657,202.460854 81.3194883,201.537073 C89.3292317,201.098963 97.3983336,202.468171 105.366983,200.730366 C106.67013,200.445915 107.729451,201.006585 108.635352,201.93128 C115.943752,209.401098 124.824696,212.13128 135.072711,210.684329 C148.481337,208.790122 160.503715,204.187683 169.117088,193.028232 C171.336183,190.153537 173.495918,187.230366 175.622779,184.285244 C176.568862,182.974573 177.805345,181.430671 179.24456,182.804451 C183.424311,186.796829 188.376635,188.558415 193.834877,190.307195 C202.52496,193.092256 209.771262,188.46878 212.359292,180.486768 C212.810417,179.094695 212.165692,178.084024 211.461609,177.141951 C210.688122,176.1075 209.299134,175.754451 209.335662,177.460244 C209.436115,182.138598 205.360469,182.87122 202.781571,185.031585 C197.537934,185.664512 192.451368,183.785854 187.229647,184.055671 C186.710032,179.940732 181.589677,175.749878 188.85333,171.662378 C186.406847,171.497744 185.366703,171.345915 184.331126,171.373354 C180.79336,171.466646 178.189805,171.065122 178.980643,166.198354 C179.127669,165.301098 181.555888,161.996524 177.816303,161.329756 C178.371534,160.67122 178.927677,160.012683 179.479254,159.35689 C183.64896,156.279146 184.466281,152.291341 182.667262,147.591037 C184.08456,144.677927 183.105602,141.476707 183.753066,138.47122 C185.399579,137.00872 190.500756,139.630976 188.856983,134.485244 C188.103586,132.126402 186.869843,129.359634 183.47819,129.338598 L181.773232,129.260854 L181.791496,129.273659 Z" id="Fill-1" fill="#F6F5F6" mask="url(#mask-2)"></path>
                </g>
                <path d="M231.582925,128.44156 C229.699916,128.497226 227.893321,128.156843 226.03484,127.822847 C221.217883,126.956832 216.587718,127.29174 213,131.432918 C215.16414,132.74061 216.074513,130.899073 217.366016,130.327813 C220.049021,129.140578 223.957492,128.170531 225.28107,130.133439 C229.874443,136.942017 229.760293,129.631533 231.647076,128.513652 C232.487637,128.364905 233.56216,128.783769 233.991403,127.66315 C234.050837,127.509841 233.788574,127.060863 233.62065,127.030749 C232.4716,126.824511 232.063111,127.696002 231.582925,128.44156" id="Fill-4" fill="#F6F5F6"></path>
                <path d="M223,156 C220.142046,151.994888 215.677875,150.595035 211.284423,149.087633 C210.667395,148.876838 210.074234,149.027406 210.003515,149.746691 C209.969039,150.098591 210.193574,150.736139 210.440208,150.811853 C214.779736,152.142875 218.194607,155.500974 223,156" id="Fill-6" fill="#F6F5F6"></path>
                <path d="M55.5846678,171.496313 C55.4082143,174.7957 55.4082143,174.7957 57.9020897,176.292909 C57.0324909,174.493495 56.3854949,173.153838 55.5846678,171.496313 Z M69.7697148,183.935584 C70.5596833,184.344667 71.3324589,184.79429 72.1441447,185.152699 C73.7014595,185.840955 75.5076188,188.815102 76.5898666,187.066362 C78.125464,184.588827 73.6127803,185.395017 73.214629,183.326565 C69.882826,179.490026 65.22536,178.606442 60.6728612,177.486991 C60.3489107,177.138717 60.1570742,176.315022 59.5046489,177.150694 L60.6638123,177.496204 C62.9911879,180.681343 63.8327351,186.042732 69.7697148,183.935584 Z M58.8458894,218.033245 C61.5723213,217.781714 64.1340633,217.25009 65.2081671,214.173671 C66.8478268,209.012217 65.4832535,206.395557 60.4936931,205.104733 C58.3319122,204.544546 56.2027073,203.809302 54.0128748,203.417724 C47.1954377,202.196002 41.8203943,207.844855 43.4727225,214.390191 C42.1470594,215.84686 43.3614211,215.969401 44.3857559,216.190527 L44.3794217,216.184077 C48.8921054,219.387643 53.7667449,219.640096 58.8694165,218.019425 L58.8458894,218.033245 Z M80.5795242,202.364611 C77.3373053,203.295183 74.2027682,200.511757 70.8646311,202.204294 C68.5399701,203.381791 67.4631516,204.116114 69.7651904,206.708819 C73.7068888,211.147928 70.6067376,220.28044 64.9249367,221.772121 C64.6353721,221.848594 64.1883567,221.818189 64.0743406,222.002461 C60.1652182,228.36721 54.1314153,225.20142 48.9708308,225.28987 C44.5558751,225.3645 40.9544151,222.432735 38.7102893,219.011729 C34.3876324,212.423089 37.7121962,204.864258 45.9050653,201.724266 C48.5464376,200.710771 51.4185567,200.320114 54.1848038,199.64568 C55.107791,199.420868 56.5954293,199.995796 56.5872853,198.361305 C56.581856,197.356102 55.4914642,197.064952 54.6001481,196.782095 C51.7461267,195.881927 49.1219473,194.438157 46.4054692,193.21275 C28.8623774,185.299195 15.1361093,173.045118 5.80217459,156.03222 C2.93638969,150.809035 0.853334175,145.07081 0.824377712,138.675655 C0.798135918,132.610348 -1.16275952,126.413286 1.05783919,120.527643 C3.39969309,114.322289 3.80508357,107.509759 9.47331109,102.314214 C13.1806432,98.9171629 16.1351072,94.2624562 20.033371,90.6875825 C21.3771318,89.4548038 22.718178,88.8236728 24.4745684,89.0429563 C24.9650185,90.9252931 26.9729682,92.2935116 26.2771082,94.5766397 C25.542338,94.574797 24.8048531,94.528729 24.0737024,94.5812465 C22.824955,94.6706183 21.1418606,94.2302086 21.0160809,96.2129736 C20.868584,98.5458551 22.7154633,98.186525 24.1270909,98.2408852 C25.4473246,98.2924814 26.7711779,98.2528629 28.0932213,98.2528629 L28.0941262,98.2547056 C28.0968409,99.7887687 28.1312267,101.334809 30.0170163,101.752185 C30.3653988,101.828658 30.7979359,101.512632 31.1906579,101.377192 L29.8948562,98.2657619 C33.195893,98.8517464 35.2309893,100.157312 33.6827235,104.133899 C33.1488387,105.506724 33.8519378,106.862043 35.4734997,107.296925 C36.8525512,107.668233 37.6443295,106.978135 38.3962926,105.809851 C42.2773635,99.7804765 50.2168635,99.7224308 54.3404448,105.635714 C51.9017677,109.933855 46.7882374,111.768281 41.7190467,109.176498 C38.0614835,107.306138 38.0651031,110.975912 36.7955432,112.013363 C35.2934267,113.241534 37.5131205,114.410739 38.7130039,115.225221 C46.0534672,120.205167 55.4471246,115.524663 56.1276014,106.549703 C58.0676844,106.336869 58.0405377,104.852559 57.9346657,103.463149 C57.6858211,100.207066 59.0621579,100.036614 61.7523943,100.828062 C65.4687753,101.919873 69.1598193,103.398654 73.2037703,102.92784 C74.5792023,102.767523 76.0623161,103.339687 76.6541138,104.685793 C78.5127567,108.922203 80.2682422,109.115688 82.5693761,104.976021 C83.6887244,102.96193 84.6714343,103.729422 85.1048764,105.632029 C86.335526,107.968596 83.9203761,110.767685 86.0070511,112.99461 C85.8088804,113.181646 85.5790384,113.236006 85.3202401,113.156769 C81.2147566,112.313726 78.5896723,115.986264 74.9076771,116.658856 C68.2033512,117.884264 62.4265369,120.98003 57.3311044,125.800582 C54.8118922,128.185059 54.0508802,130.215735 55.2408098,133.258985 C54.8743296,134.244839 54.7919846,135.590023 54.0961246,136.158502 C48.568155,140.675005 47.7827109,146.814943 47.9826915,153.412796 C48.1736232,159.744376 54.3820697,166.872011 60.5235544,167.388894 C59.929042,168.3554 59.388823,169.232533 58.8495089,170.109667 C58.464026,170.227601 58.0776382,170.345535 57.6921553,170.463469 C57.7663562,170.577718 57.8405572,170.692888 57.9147581,170.807136 C58.2314694,170.581403 58.5490856,170.35567 58.8657969,170.130859 C60.9497573,170.432143 62.859979,168.424501 64.9909936,169.601999 C69.6511743,172.178119 74.7665144,173.163052 79.8501833,174.465854 C88.9352734,176.794128 95.3084098,185.175733 95.9526911,194.646384 C96.2657829,199.255023 95.0930461,200.497937 90.3812868,200.523735 C88.1290169,200.536634 85.8767471,200.528342 83.6244772,200.528342 C82.2517599,200.528342 80.8202248,200.422385 80.5795242,202.364611 Z" id="Fill-8" fill="#EDF2F6"></path>
                <g id="Group-12" transform="translate(131.000000, 30.000000)">
                    <mask id="mask-4" fill="white">
                        <use xlink:href="#path-3"></use>
                    </mask>
                    <g id="Clip-11"></g>
                    <path d="M33.461223,84.3033636 C33.3511328,84.5551818 33.1009279,84.8624545 33.1718951,85.0433636 C33.2428623,85.2251818 33.688682,85.4197273 33.8724689,85.3497273 C34.0517066,85.2824545 34.2500508,84.8306364 34.1781738,84.6533636 C34.104477,84.4706364 33.7150672,84.4142727 33.461223,84.3033636 M101.381395,68.7488182 C101.63342,68.8588182 101.941854,69.1097273 102.122911,69.0379091 C102.304879,68.9660909 102.360379,68.5733636 102.470469,68.3215455 C102.218444,68.2115455 101.91001,67.9588182 101.730772,68.0306364 C101.547895,68.1042727 101.491485,68.4942727 101.381395,68.7488182 M21.1993623,64.5342727 C21.306723,64.2815455 21.5541984,63.9742727 21.4823213,63.7906364 C21.4122639,63.6106364 21.0183049,63.557 20.7662803,63.4479091 C20.6580098,63.7006364 20.4087148,64.0088182 20.4805918,64.1897273 C20.5524689,64.3706364 20.945518,64.4251818 21.1993623,64.5342727 M19.3787803,67.2551818 C19.4870508,67.0033636 19.7354361,66.6951818 19.6626492,66.5151818 C19.5907721,66.3342727 19.1986328,66.2815455 18.9466082,66.1733636 C18.8374279,66.4242727 18.5881328,66.7333636 18.6600098,66.9115455 C18.7337066,67.0933636 19.1249361,67.147 19.3787803,67.2551818 M63.4821738,76.1197273 C63.3720836,76.3724545 63.1209689,76.6806364 63.1919361,76.8615455 C63.2638131,77.0442727 63.6577721,77.0988182 63.9097967,77.2088182 C64.0198869,76.9579091 64.2728213,76.6488182 64.2009443,76.4706364 C64.1281574,76.287 63.7369279,76.2306364 63.4821738,76.1197273 M6.9813541,26.9342727 C6.88127213,26.6760909 6.84214918,26.2824545 6.66200164,26.2015455 C6.48549344,26.1224545 6.16614098,26.3624545 5.90865738,26.4615455 C6.00964918,26.7188182 6.0478623,27.1115455 6.22800984,27.1951818 C6.40269836,27.2751818 6.72387049,27.0351818 6.9813541,26.9342727 M93.5931984,57.7560909 C93.4949361,56.9251818 93.0072639,56.2515455 92.246641,56.167 C91.2958623,56.0624545 91.0784115,56.8615455 91.0947885,57.6779091 C91.1120754,58.5197273 91.4714607,59.197 92.3503623,59.2197273 C93.2228951,59.2433636 93.6696246,58.6606364 93.5931984,57.7560909 M30.9091328,70.6788182 C29.997477,70.6133636 28.4780508,72.1933636 28.5244525,73.0542727 C28.5708541,73.897 29.1131164,74.507 29.8828377,74.4788182 C31.1720754,74.4333636 31.3567721,73.1997273 31.6733951,72.2797273 C31.9226902,71.5579091 31.7607393,70.8251818 30.9091328,70.6788182 M87.4800098,70.307 C86.5328705,70.4524545 85.0398295,69.9751818 85.0998787,71.5215455 C85.1462803,72.6951818 86.3963951,73.0242727 87.5164033,73.0206364 C88.5563459,73.0160909 89.8810672,73.1224545 89.8683295,71.6688182 C89.854682,70.2260909 88.5108541,70.3833636 87.4800098,70.307 M64.4820836,44.2515455 C66.9513787,45.0179091 68.7328377,45.2833636 70.3841902,44.3197273 C70.8472967,44.0497273 70.6371246,43.1606364 70.0521,42.7960909 C68.0349934,41.5351818 66.4637066,42.3133636 64.4820836,44.2515455 M19.9901902,39.4379091 C19.1631492,40.5206364 16.5373623,40.6615455 16.7302475,42.6660909 C16.9285918,44.7279091 19.7809279,42.7733636 21.0810836,44.3951818 C21.5596574,44.9924545 22.6696574,43.447 22.7278869,42.3415455 C22.8088623,40.8088182 22.1737967,39.7406364 19.9901902,39.4379091 M39.1349607,75.7997273 C40.920059,75.5724545 43.6668541,76.317 43.4475836,73.3497273 C43.2592475,70.8160909 40.7107967,70.4806364 38.5763213,70.3406364 C36.8985836,70.2297273 34.8769279,70.2406364 34.8250672,72.5060909 C34.7622885,75.1933636 36.601977,76.0833636 39.1349607,75.7997273 M5.61023115,0.337 C6.82213279,0.337 8.03494426,0.370636364 9.24593607,0.328818182 C12.2720508,0.226090909 13.7660016,1.11063636 11.9317721,4.29427273 C10.1757885,7.34154545 11.8526164,10.7351818 11.0119279,13.8888182 C10.9173049,14.2451818 11.1484033,14.8379091 11.4304525,15.1188182 C15.1416738,18.8306364 15.1507721,18.8224545 13.547641,23.2951818 C23.8670016,26.7015455 34.4902475,28.4115455 45.3673377,28.5379091 C45.8122475,28.5433636 46.3827148,28.547 46.6793213,28.8015455 C53.6422967,34.7742727 62.464977,32.2133636 70.3632639,33.8079091 C73.9243623,34.527 77.1488213,35.0324545 80.4296902,37.0324545 C85.1417311,39.9051818 90.4970262,41.7660909 95.6749033,43.817 C97.9504033,44.7188182 100.344182,46.2260909 100.52342,48.1579091 C100.884625,52.0379091 103.199248,52.7815455 106.135289,53.9315455 C110.314166,55.5679091 111.303157,59.5006364 108.987625,63.2242727 C108.674641,63.727 107.833952,64.1088182 107.822125,64.5615455 C107.638338,71.8379091 101.370477,72.4115455 96.7794443,73.5115455 C84.0754033,76.557 71.1693787,78.7688182 58.3152148,81.1597273 C57.0232475,81.4006364 55.1981164,83.1860909 54.2964689,81.307 C53.3839033,79.4051818 56.6766,79.997 56.9677475,78.1042727 C54.6513049,76.1860909 52.1074033,76.2515455 49.4934443,77.4660909 C47.5254689,78.3797273 46.4509525,79.8151818 48.4271164,81.6333636 C51.1393377,84.1315455 49.1704525,84.5951818 47.1051246,84.8015455 C43.2082967,85.1906364 39.8218869,86.4742727 37.2707066,89.5624545 C36.0779115,89.2042727 34.8851164,88.847 33.6914115,88.4897273 L33.7205262,88.5115455 C30.8882066,85.5415455 30.3978049,85.4388182 29.1868131,87.5642727 L29.1012885,87.6615455 C26.4891492,87.2760909 24.9287803,84.2406364 21.9336,84.8233636 C21.616977,84.5324545 21.3003541,84.2415455 20.984641,83.9506364 C20.8490754,81.6097273 21.7097803,82.0988182 23.3247393,82.8106364 C24.4001656,83.2842727 25.5674852,84.9815455 27.3953459,82.7406364 C30.5133541,78.9197273 30.5479279,77.8597273 25.5329115,74.847 C24.3373869,71.3088182 22.1874443,69.0779091 18.1359443,69.4506364 C15.8831902,67.317 13.4566574,65.4215455 10.6852967,63.9997273 C9.95651803,59.0642727 7.74379672,54.6888182 5.48649344,50.3306364 C6.22619016,50.2951818 6.9158459,50.1606364 7.29797705,49.4179091 C10.2649525,50.3660909 11.2430262,49.3824545 10.3077148,46.3988182 C9.86917377,44.9988182 9.58439508,43.5515455 9.23046885,42.1251818 C9.6781082,41.8606364 10.4878623,41.6224545 10.5096984,41.3260909 C10.5824852,40.3251818 9.6681,40.4388182 8.99482131,40.3460909 C7.4053377,39.9860909 7.31162459,41.6151818 6.46638689,42.2433636 C6.3608459,39.9360909 9.80366557,37.2279091 5.69575574,35.2997273 C5.57201803,35.2415455 6.02875574,33.9933636 6.18251803,33.2933636 C6.76208361,30.6588182 6.27987049,28.7906364 2.9980918,29.2251818 C1.50596066,29.4233636 0.264034426,29.4342727 0.00928032787,27.5479091 C0.629788525,27.2860909 1.25029672,27.0233636 1.86989508,26.7615455 C3.39841967,28.0142727 3.54399344,26.9224545 3.62951803,25.7260909 C7.63006721,22.537 9.06578852,18.6715455 7.72923934,13.5079091 C6.62014918,9.22154545 6.28714918,4.73518182 5.61023115,0.337" id="Fill-10" fill="#DCE2EA" mask="url(#mask-4)"></path>
                </g>
                <path d="M81.901165,202.494336 C82.1439108,200.569265 83.5885221,200.674286 84.9719907,200.674286 C87.2433978,200.674286 89.514805,200.682505 91.7862122,200.66972 C96.5380069,200.644149 97.7207083,199.412214 97.4049562,194.844281 C96.7561131,185.45728 90.3288248,177.149706 81.1656269,174.841995 C76.0387625,173.5507 70.8808705,172.574467 66.1801801,170.0211 C64.0310584,168.854003 62.1046058,170.843913 60.0038507,170.545289 L59.9865117,170.524285 C60.5313209,169.654898 61.0752175,168.785512 61.6747814,167.827543 C55.4820257,167.316139 49.219914,160.250546 49.02736,153.974889 C48.8265928,147.435311 49.6187107,141.349605 55.1927384,136.872994 C55.894511,136.309537 55.9775556,134.976234 56.3480624,134 C57.2606406,134.608205 58.1723063,135.217324 59.0848845,135.825529 C59.4699925,138.335061 61.7468751,138.662908 63.478036,139.225452 C68.7545632,140.941395 68.7919789,140.826329 65.3479087,145.607956 C62.7288093,149.244403 62.7014319,156.360223 65.6663985,158.118174 C69.3157988,160.282508 73.203382,161.917175 67.3783953,166.73259 C70.7795743,165.740832 73.4443027,164.002972 76.3034102,165.608415 C79.0274562,167.138974 81.9112033,167.765444 84.9747284,167.804712 C93.2618511,167.908819 100.089761,171.387279 103.146898,178.960623 C105.73497,185.370524 108.682598,191.964894 108.755604,199.193954 C108.773856,200.916289 110.092531,200.85967 110.978645,200.478856 C114.489333,198.969302 117.353003,200.168361 120.364512,201.982932 C122.13035,203.046835 124.315063,203.287012 126.486086,203.466003 C137.67612,204.388357 147.949013,201.916267 156.86764,195.048843 C164.061494,189.509242 170.209534,183.107561 170.403,173.124226 C170.440416,171.226552 170.461405,169.413808 168.304983,168.564512 C170.098199,166.844917 172.192566,165.791972 174.708544,165.67508 C176.714391,166.59926 176.714391,166.59926 176.833939,163.093404 C177.330381,162.845921 177.826824,162.597524 178.322354,162.349128 C182.067575,163.01578 179.641029,166.314335 179.495017,167.210205 C178.703812,172.070369 181.305572,172.47036 184.8409,172.377211 C185.875764,172.349814 186.91519,172.501409 189.3609,172.665789 C182.102253,176.747888 187.219079,180.931355 187.738336,185.040851 C190.402152,187.010669 193.511306,186.986925 196.598558,186.986925 C198.865402,186.986925 201.513704,189.486412 203.279543,186.014345 C205.855751,183.857316 209.928588,183.125826 209.829117,178.454699 C209.792614,176.752454 211.180645,177.104044 211.952686,178.136898 C212.656284,179.077516 213.301477,180.086625 212.849751,181.476548 C210.264416,189.44623 203.022196,194.063477 194.338102,191.282718 C188.884534,189.536639 183.935622,187.776862 179.757839,183.791564 C178.319616,182.419906 177.083985,183.96051 176.138554,185.270069 C174.014072,188.209728 171.855825,191.128384 169.63826,193.998638 C161.029909,205.140851 149.015817,209.737094 135.616431,211.627462 C125.375478,213.072178 116.501568,210.347126 109.198204,202.888847 C108.292927,201.964667 107.233424,201.405776 105.932087,201.688875 C97.968017,203.424908 89.9053885,202.056903 81.901165,202.494336" id="Fill-13" fill="#E8ECF0"></path>
                <path d="M116.029798,83.2351597 C115.779369,83.1267267 115.474301,82.8764969 115.29217,82.9487855 C115.113683,83.0201473 115.060865,83.4177348 114.952497,83.6725985 C115.202927,83.7810315 115.508905,84.0321881 115.687393,83.9589727 C115.867702,83.8866841 115.921431,83.4909502 116.029798,83.2351597 M25.2942933,95.5232995 C25.9945844,93.2267454 23.9738485,91.8504812 23.4802753,89.9570752 L23.4820966,89.9570752 C26.4061989,91.3843122 29.5634281,90.4352923 32.5840594,90.8838525 C32.590434,92.891252 32.5521866,94.9005051 32.6150216,96.9051244 C32.6915163,99.3184524 34.446342,100.488972 36.2676452,99.8411548 C39.7335852,98.6076142 43.3488721,98.3332882 46.8612553,97.4778727 C48.9694138,96.9635113 48.7499468,96.1006817 48.0687794,94.5844741 C44.7886123,87.2842495 41.8626887,86.1999201 35.1056537,89.8254728 C34.3061016,90.2545707 33.4291441,90.5316771 32.5886127,90.8801454 C32.4365339,87.927433 32.4019291,85.0034507 34.4062733,82.5391499 C34.6949499,80.1897695 32.6951589,78.7653129 32.0549709,76.7449384 C31.5878066,75.2713626 29.9012798,75.1101033 28.2293234,76.1527278 C25.9162684,77.59572 23.2498805,77.4390946 20.8494028,76.3325226 C19.4542846,75.6884124 18.3533068,74.3010268 19.4397141,72.5549784 C20.3722214,71.0563796 21.3766701,71.9914978 22.4995035,72.6096583 C25.796973,74.4252149 28.9332571,74.0359685 31.3391987,71.0156014 C32.6651074,69.3520362 34.1522015,69.219507 35.734914,69.9562949 C37.3303756,70.6986435 38.4404599,71.9803765 37.6618528,74.0396756 C37.1946885,75.2750697 36.8468196,76.609629 38.6881572,76.8320555 C40.6706457,77.0720908 41.0403703,75.490082 40.7316594,74.0897216 C38.8711981,65.6597555 42.7961066,58.3558239 45.1282853,50 C46.8776471,53.1047039 48.3820435,55.7747492 49.8873506,58.4447945 C48.5195519,59.9369059 49.6660623,60.1176274 50.8189472,60.2937151 C52.0264713,60.9007542 52.9261951,61.8238244 53.5445275,63.0379026 C51.1804759,66.4521501 52.6174842,71.0396976 50.129584,74.5049178 C49.7480209,75.0368879 50.6504767,76.8403965 51.3216269,77.7903432 C58.0841258,87.3537578 67.6341292,92.2907004 78.8478931,91.4186029 C83.7435561,91.0386243 91.4167066,91.9023807 92.9857593,83.5502639 C93.0604327,83.1498961 93.8709126,82.7708442 94.4063758,82.6021708 C97.2694644,81.7050504 94.996478,80.774566 94.497441,79.7699394 C93.8627168,78.49006 91.6580292,79.4919063 91.4622391,77.3603185 C92.9256563,77.1063816 94.3435408,76.858932 96.1165795,76.551242 C95.0857219,74.4937965 93.0385771,71.9877907 95.6594324,70.8858525 C99.5324337,69.2565781 96.8542073,74.9553315 99.4176916,75.3121408 C100.797329,71.8135566 99.7610072,68.096253 100.344735,64.605083 C102.409182,64.6412273 101.182534,67.0554821 102.86724,67.1361117 C104.103905,66.4753195 103.239696,63.8914645 105.427082,63.9961903 C105.407958,65.8858892 105.387924,67.7765148 105.3688,69.6652869 C102.583117,73.6040903 100.984012,77.7699541 102.712429,83.0368293 C107.080825,76.5475349 107.080825,76.5475349 105.354229,69.6421174 C107.536151,69.8117177 109.179877,70.5577734 109.108846,73.2000154 C109.075152,74.487309 109.905666,75.1175176 110.941988,75.5354941 C112.557484,76.1870185 112.544735,74.7634886 112.98549,73.8710021 C113.416228,72.9979779 114.107413,72.3501606 115.128253,72.5420035 C116.598045,72.8172564 116.257461,74.1073303 116.364918,75.1249318 C114.138375,75.565151 114.448907,76.8181538 115.162858,78.4668906 C116.918594,77.6133287 116.135434,76.2074076 116.366739,75.1286389 C118.210809,75.7032408 117.786445,72.4826898 119.999329,73.0943628 L119.999329,82.5317357 C119.420154,82.6309009 118.747183,82.6281205 118.647922,83.4131009 C118.627887,83.5687995 118.998522,83.9469246 119.152423,83.9256087 C119.923744,83.82459 119.921013,83.1397016 120.017542,82.551198 C123.678361,82.6540703 127.339181,81.0006997 131,82.551198 C130.982698,86.229577 130.965395,89.9088828 130.948093,93.5872618 C130.075689,94.0293345 129.203284,94.472334 128.33088,94.9153336 C127.789953,92.0868094 126.018736,90.3333468 123.420647,91.6716131 C120.343555,93.2554755 124.752019,94.6113506 124.099082,96.3564722 C121.306114,97.7151277 118.626066,97.5770379 116.072599,95.7327511 C117.403061,93.1989421 119.95926,91.3222181 120.011167,88.1035207 C122.170322,88.8588441 124.092708,91.2999755 126.764559,89.2091659 C122.967142,83.8264436 122.625648,83.7763976 120.006614,88.0998135 C117.76459,88.2777548 115.426947,87.6781299 112.805181,88.7615325 C114.955229,90.8430743 114.483512,93.1405551 114.539062,95.3360905 C113.214063,95.3305298 112.297037,94.5038445 111.372726,93.7012554 C111.202434,91.2221262 111.030321,88.7411434 110.857297,86.2610874 C112.302501,86.1155834 112.756006,85.2694358 112.470061,83.9005857 L112.470061,83.9719476 C112.316161,82.6985556 113.2514,80.8032961 110.756215,80.8672437 C110.156095,80.2843008 109.555976,79.7013579 108.956767,79.1165615 C109.088812,78.9274989 109.219945,78.7412167 109.35199,78.5558612 L108.805599,78.9664236 C107.082646,82.1258073 105.359693,85.285191 103.63583,88.4455015 C101.914698,91.2397349 101.892843,94.3398049 102.066777,97.4750924 C102.02944,98.9301327 101.992104,100.385173 101.955678,101.839287 C97.278571,101.589983 93.3764288,103.285986 90.1636499,106.708574 C88.2740479,106.687258 86.3853564,106.665016 84.496665,106.644627 C84.0604629,104.729905 83.0714952,103.957899 81.9450192,105.983835 C79.6292322,110.147845 77.862568,109.953222 75.9920896,105.6919 C75.3965235,104.338805 73.9039655,103.762349 72.519775,103.923609 C68.450073,104.397192 64.7355251,102.909714 60.995479,101.811483 C58.2881117,101.016308 56.9030106,101.186835 57.1534398,104.462066 C57.2599861,105.859646 57.2873056,107.352685 55.3348686,107.56677 C54.7356598,107.260007 54.136451,106.95417 53.5363316,106.647407 C49.3864923,100.699351 41.396435,100.757737 37.4906503,106.822568 C36.7338988,107.997722 35.9370787,108.691878 34.5492456,108.318386 C32.9173579,107.880948 32.2097816,106.517658 32.7470661,105.13676 C34.305191,101.136789 32.2571355,99.823546 28.9350784,99.2341157 C28.3313164,99.2304085 27.7275544,99.2267014 27.1228817,99.2229943 L27.1219711,99.2211408 C26.5127452,97.988527 25.9035192,96.7559132 25.2942933,95.5232995" id="Fill-15" fill="#E8ECF0"></path>
                <path d="M135.437955,31.2753945 C136.103618,35.7361546 136.431081,40.2863512 137.521729,44.6337021 C138.836055,49.8708078 137.425101,53.7912609 133.491071,57.0266489 C132.913985,57.3770187 132.337793,57.7255444 131.760707,58.0759141 C131.150516,58.3414575 130.540325,58.6088449 129.930135,58.8743883 C123.162566,60.7341141 116.589149,60.4058729 110.289512,57.0128185 L108.899136,56.0188749 C108.172633,55.126354 107.447026,54.2338332 106.721418,53.3413124 L105.013421,50.488565 L105,48.8648778 C107.302978,43.3198156 107.038144,37.2335243 108.466098,31.4865384 C110.721656,22.4091958 113.244731,13.4572488 117.767479,5.26412885 C120.881061,-0.37498003 122.930837,-0.412783082 126.039051,5.10185234 C130.633375,13.2562472 133.11261,22.2423092 135.437955,31.2753945" id="Fill-17" fill="#535DA8"></path>
                <path d="M105.243407,50.4967421 C105.828631,51.4512698 106.413856,52.4067233 107,53.3621768 C105.658401,54.3481827 106.176453,55.8045087 106.066034,57.1025182 C106.069714,57.7265256 106.074315,58.3486814 106.077996,58.9717631 C106.080756,59.5818831 106.083517,60.1920031 106.086277,60.8021232 C106.379809,61.1169044 106.673342,61.4316856 106.966874,61.745541 L106.966874,64.5072831 C104.75664,64.4026646 105.629876,66.9838705 104.381213,67.6439852 C102.67799,67.5634383 103.917451,65.1507329 101.831439,65.1155515 C101.241614,68.603142 102.28876,72.3157086 100.894712,75.8116316 C98.3044505,75.4551882 101.010653,69.7622775 97.0971954,71.3889557 C94.4489635,72.4906899 96.5174921,74.9941263 97.5591177,77.0494624 C95.7675585,77.356837 94.3348632,77.603107 92.8561597,77.8577094 C93.0539949,79.9871117 95.2817119,78.9853668 95.9239864,80.263934 C96.427316,81.2675305 98.7249655,82.1970609 95.8310498,83.0941873 C95.2909135,83.2626879 94.4710475,83.6413511 94.395594,84.0403826 C92.8101515,92.3839361 85.0568499,91.5219911 80.1109686,91.9015802 C68.7800695,92.7718577 59.1293899,87.8409027 52.2962523,78.2872932 C51.6180914,77.3373946 50.7062089,75.536661 51.0917576,75.0052362 C53.6056456,71.542643 52.1536269,66.959799 54.5423725,63.5499779 C60.5326399,67.1653326 66.2192532,71.2565624 73.4784268,72.324041 C80.2857998,73.3248601 86.8677326,73.1239556 93.2085825,70.4492412 C99.4169288,67.8310023 101.177202,63.3305569 99.339635,55.7378491 C98.0974136,50.6032122 99.165724,47.9562726 103.269655,46 C103.269655,48.9006162 103.269655,51.8021582 103.269655,55.5415738 C105.760539,53.532529 104.803569,51.8484496 105.243407,50.4967421" id="Fill-19" fill="#DCE2EA"></path>
                <path d="M173.760896,164.896752 C171.268367,165.011076 169.193519,166.040892 167.419728,167.723608 C167.017415,168.000489 166.611486,168.275582 166.206462,168.550676 C164.639703,167.349374 163.871241,168.433672 163.131709,169.599248 L163.07204,169.53494 C160.520746,170.09138 158.383517,171.509721 156.314094,172.945925 C153.826989,174.672406 150.687143,174.02933 149.24153,172.792301 C144.473449,168.710552 138.981205,166.005165 133.60649,162.970202 C129.713552,160.772131 125.402027,159.109957 122,155.805259 C123.520651,154.968367 124.331604,155.862421 125.074753,156.473344 C128.427056,159.230534 131.856205,159.642282 135.382994,156.906527 C136.999477,155.652528 140.043491,155.292584 140.036258,153.175791 C140.02993,151.360886 137.019366,151.179575 135.51318,150.020251 C135.201275,149.779097 134.969833,149.434337 134.682337,149.116371 C142.997097,144.024456 142.997097,144.024456 151.652693,143.12147 C152.08936,143.075919 152.527836,143.040192 152.964503,143 C159.774886,147.271099 166.248049,152.143296 174.105348,154.540542 C174.500428,158.465094 171.97264,160.922182 169.537067,163.425714 C168.723401,163.306031 168.024553,163.414103 167.729825,164.317983 C166.956842,164.259927 166.251665,164.35103 165.861106,165.139692 C164.260896,165.875657 162.828845,165.129867 161.366959,164.643987 C156.141416,161.765327 152.083032,162.337844 147.618719,166.604477 C147.025647,167.171635 146.069138,167.601245 146.852065,168.736454 C148.436001,171.031879 153.916492,172.291237 156.432528,170.846995 C158.109583,169.884167 159.74686,168.856137 161.402217,167.855796 C163.223021,167.499425 164.74548,166.64199 165.930719,165.219183 C166.518367,164.90479 167.106919,164.590397 167.69547,164.276898 C168.297583,163.977688 168.899695,163.679372 169.500904,163.381056 C171.037828,162.57989 172.502427,161.5599 174.131566,161.041866 C175.720927,160.535443 176.745242,157.774681 179,159.714628 C178.449419,160.358597 177.899743,161.001674 177.345546,161.643857 C176.850114,161.88769 176.358298,162.129737 175.865579,162.37357 C174.353968,162.555775 173.724734,163.455189 173.760896,164.896752" id="Fill-21" fill="#EEA1A5"></path>
                <path d="M169.99577,164 C172.424859,161.429017 174.944982,158.90573 174.550199,154.876358 C177.362354,156.986894 178.582758,156.345753 179.019903,152.719044 C179.690494,147.151485 180.523325,141.56283 181.883435,136.138358 C182.665791,133.018874 181.599515,131.985161 179.192959,130.629502 C172.695258,126.97069 166.385034,122.966083 160,119.09906 C160,119.09906 160.085627,119 160.084725,119 C161.582739,119.318277 163.079851,119.637472 164.576963,119.955749 L164.54812,119.934653 C165.484604,121.805793 167.226878,122.33228 169.04847,122.727604 C169.931775,124.134628 171.25493,124.593241 172.817839,124.533621 C174.539383,125.50588 176.335737,124.716149 177.909463,124.349259 C182.520676,123.277022 181.919488,125.492122 180.691874,128.363955 C180.133048,128.293329 179.57242,128.22362 179.012693,128.15391 C178.688213,127.911763 178.362833,127.670533 178.038353,127.428385 C177.922081,127.596237 177.806711,127.763172 177.690439,127.931942 C178.087926,128.059436 178.485414,128.186931 178.882901,128.315342 C179.508425,129.426102 180.397138,130.085587 181.708576,130.024133 L181.69055,130.011292 C182.263797,130.955117 182.741502,132.016347 184.082684,132.00534 C183.845634,131.366951 183.609485,130.728562 183.372435,130.089256 C186.719981,130.110352 187.938582,132.88496 188.68218,135.250484 C190.304578,140.410795 185.268837,137.781109 183.643736,139.247753 C183.513042,139.180795 183.386856,139.072563 183.253459,139.061556 C183.136286,139.051467 182.904644,139.148692 182.903742,139.202809 C182.849662,142.269094 180.297992,145.24549 182.572953,148.393408 C184.348577,153.10703 183.540984,157.106133 179.428207,160.19168 C177.182088,158.197632 176.16178,161.032776 174.577239,161.551925 C172.953039,162.083916 171.49198,163.132305 169.959716,163.954139 L169.99577,164 Z" id="Fill-23" fill="#DCE2EA"></path>
                <path d="M36,82.1307428 C33.9819121,84.4546383 34.0167542,87.2120246 34.1689589,89.9965041 L34.1652913,90 C31.1239477,89.5769968 27.9441527,90.4719457 25,89.1260265 C27.2390598,84.3226683 31.9537384,81.3240653 36,82.1307428" id="Fill-25" fill="#EDF2F6"></path>
                <path d="M230,128.969955 C228.278329,129.973515 228.382386,136.541752 224.195164,130.424462 C222.988618,128.660852 219.426599,129.532408 216.979968,130.599101 C215.802661,131.11236 214.972784,132.766922 213,131.592002 C216.271348,127.871286 220.491248,127.570382 224.882285,128.348469 C226.576437,128.648553 228.22329,128.953557 229.939802,128.904363 L230,128.969955 Z" id="Fill-27" fill="#DCE2EA"></path>
                <path d="M223,156 C218.194607,155.500974 214.779736,152.142875 210.440208,150.811853 C210.193574,150.736139 209.969039,150.098591 210.003515,149.746691 C210.074234,149.027406 210.667395,148.876838 211.284423,149.087633 C215.677875,150.595035 220.142046,151.994888 223,156" id="Fill-29" fill="#C6D2D6"></path>
                <path d="M202,185.055566 C200.295655,188.71935 197.739577,186.080886 195.551674,186.080886 C192.571932,186.080886 189.571051,186.106904 187,184.028319 C192.035526,183.743079 196.941574,185.72241 202,185.055566" id="Fill-31" fill="#C6D2D6"></path>
                <path d="M105,50.2557907 C104.554312,51.5269498 105.524009,53.1106746 103,55 C103,51.4834169 103,48.7547783 103,46.0270104 C103,46.0270104 103.028904,45.9991493 103.028904,46.00002 C103.6331,46.0130798 104.236364,46.0261397 104.840559,46.0374582 C104.888112,46.9333641 104.936597,47.8283994 104.985082,48.7234347 C104.990676,49.2336396 104.995338,49.7447152 105,50.2557907" id="Fill-33" fill="#C6D2D6"></path>
                <path d="M182.936673,148 C180.675649,144.963675 183.211687,142.093626 183.265436,139.136902 C183.266332,139.085603 183.496555,138.990967 183.61301,139.000696 C183.74559,139.012194 183.871003,139.116559 184,139.18024 C183.365766,142.086551 184.326075,145.182134 182.936673,148" id="Fill-35" fill="#EEA1A5"></path>
                <path d="M167.924342,123 C166.335899,122.575369 164.816622,122.009852 164,120 C165.031191,120.387192 166.061596,120.773399 167.092001,121.162562 C167.383595,121.430542 167.67519,121.699507 167.966784,121.966502 C167.995079,122.272906 168.005297,122.578325 167.997437,122.885714 L167.924342,123 Z" id="Fill-37" fill="#EEA1A5"></path>
                <path d="M173,123.995277 C171.341463,124.050868 169.937351,123.623247 169,122.311308 C169,122.311308 169.088953,122.2121 169.087996,122.212955 C169.380679,122.147101 169.673362,122.075261 169.965088,122 C171.212339,122.378017 172.653754,122.520842 173,123.995277" id="Fill-39" fill="#EEA1A5"></path>
                <path d="M231,127.952367 C231.397328,127.459814 231.735331,126.884063 232.686109,127.020314 C232.825056,127.040209 233.042065,127.336826 232.992887,127.43811 C232.637711,128.178447 231.748601,127.901725 231.053862,127.999994 C231.054642,128.000597 231,127.952367 231,127.952367" id="Fill-41" fill="#DCE2EA"></path>
                <path d="M183.406179,130.078194 C183.603617,130.718461 183.801809,131.359648 184,131.999915 C182.878674,132.010954 182.479277,130.945682 182,130 L183.406179,130.078194 Z" id="Fill-43" fill="#EEA1A5"></path>
                <path d="M53,61 C51.515796,60.8095238 50.0421349,60.6140351 51.8016254,59 C52.7305707,59.4340852 52.940257,60.1849624 53,61" id="Fill-45" fill="#DCE2EA"></path>
                <path d="M105,45 C104.333677,44.9908801 103.666323,44.9817602 103,44.9719889 C103.132853,44.4879828 103.178167,43.8678297 104.267765,44.0248222 C104.610711,44.0736788 104.761071,44.6599581 105,45" id="Fill-47" fill="#DCE2EA"></path>
                <path d="M178.138756,128 C178.733014,128.074389 179.327273,128.148778 179.921531,128.224147 C180.280383,128.815345 180.640191,129.406544 181,129.995785 C179.608612,130.061365 178.665072,129.357604 178,128.17227 L178.138756,128 Z" id="Fill-49" fill="#EEA1A5"></path>
                <path d="M169.955,122.685 C169.65,122.773 169.344,122.857 169.038,122.934 C169.049,122.622 169.036,122.311 169,122 C169.318,122.229 169.637,122.457 169.955,122.685" id="Fill-51" fill="#DCE2EA"></path>
                <path d="M124.763323,132.996719 C126.471275,132.060145 127.535784,133.567128 128.897406,134.043694 C131.987944,135.12471 134.853367,134.762225 137.133675,132.124546 C139.281831,129.63959 141.090037,126.765468 139.787655,123.49758 C138.298437,119.756805 134.3521,118.863472 130.973562,117.927819 C127.680695,117.016085 125.50702,119.618803 124.089802,122.12492 C122.544078,124.85644 122.142153,128.725097 117.627106,125.410288 C116.807763,124.808599 115.716824,125.953096 114.791759,126.475664 C111.253727,128.476693 109.485622,133.465006 104.352651,132.799836 C104.129359,132.770396 103.733814,133.06204 103.627181,133.299404 C102.05138,136.797295 102.250064,140.674232 103.242573,143.97984 C103.943435,146.315754 107.199846,147.847577 109.920357,148.001219 C111.581829,148.09414 114.058087,147.553172 113.854846,144.66433 C113.64158,141.643926 114.96857,141.553764 117.473081,142.249295 C121.895165,143.477513 126.275325,139.342972 126.287174,134.263578 C125.779527,133.841292 125.271881,133.419005 124.763323,132.996719 M152.796895,141.94385 C152.35578,141.985251 151.914666,142.022051 151.474462,142.068052 C142.748775,142.998186 142.748775,142.998186 134.366683,148.243182 C134.656506,148.570707 134.888912,148.925832 135.204254,149.174236 C136.722637,150.368414 139.757579,150.555176 139.763959,152.424644 C139.77125,154.605076 136.702586,154.976761 135.073013,156.26754 C131.517665,159.085541 128.060747,158.661415 124.681297,155.822253 C123.932131,155.192044 123.114611,154.271111 121.580734,155.134083 C125.01031,158.537213 129.35766,160.249358 133.282124,162.513511 C138.700362,165.639717 144.237081,168.426438 149.043774,172.630899 C150.500182,173.905118 153.665454,174.568448 156.173611,172.789142 C158.25888,171.31068 160.414328,169.849699 162.986282,169.27837 C163.196814,171.336441 160.910126,172.539818 161.19357,174.623649 C157.816854,173.605194 155.765306,176.586037 153.379276,177.792175 C143.199915,182.93873 132.8483,185.353766 121.489595,183.229455 C112.220716,181.495229 102.613711,175.747905 106.297566,163.393044 C107.835999,158.232689 107.551644,152.124719 101.820798,148.716069 C96.3870657,145.484062 90.8649285,142.407537 84.6246128,140.804873 C75.8724948,138.557281 66.8177939,137.591266 58.288056,134.42734 C57.3766619,133.814611 56.4652677,133.200962 55.5538736,132.588233 C54.3553903,129.548509 55.1218728,127.520799 57.6591941,125.139804 C62.7903431,120.326294 68.6095948,117.235048 75.3621141,116.01143 C79.0705768,115.339821 81.7145313,111.671727 85.8504379,112.512619 C85.2908419,115.30026 87.5410741,114.026961 88.2218855,113.862279 C98.2226135,111.452764 108.380101,111.739808 118.424576,112.724222 C126.870466,113.552234 135.330026,114.909254 143.167105,118.835872 C149.133091,121.824996 149.256129,121.571072 150.89117,115.024256 C150.964993,114.731692 151.138158,114.466728 151.265753,114.189804 C151.582007,114.483288 151.899172,114.777692 152.215426,115.073937 C151.329551,120.462456 150.591321,125.882255 149.511319,131.230293 C148.646406,135.516636 147.862607,139.564695 152.796895,141.94385" id="Fill-53" fill="#F6F5F6"></path>
                <path d="M151.426566,113.660195 C151.299121,113.931892 151.12616,114.190994 151.053334,114.476186 C149.419305,120.87816 149.297322,121.127366 143.338351,118.204373 C135.510488,114.363728 127.059964,113.037631 118.624005,112.227038 C108.591341,111.264402 98.4467071,110.983709 88.4568279,113.340816 C87.776817,113.500955 85.530141,114.746083 86.0881687,112.021016 C86.348521,112.099286 86.5788326,112.046206 86.7781932,111.863575 C91.0585296,111.24461 89.459093,106.793096 91.5355386,104.737375 C94.7471564,101.414933 98.6478883,99.7685571 103.321484,100.011465 C104.500352,101.252095 105.65373,101.226905 106.78162,99.9394924 C109.381501,101.31957 111.660038,100.202193 113.932203,99.0398332 C114.044173,100.527869 113.984092,102.05639 114.31909,103.494046 C114.617676,104.77696 116.073282,106.751712 116.695942,106.264996 C119.937601,103.733355 119.869327,107.10078 120.701361,108.319818 C121.917552,110.105641 122.64672,110.08225 123.935737,108.389092 C124.802364,107.250123 124.601183,103.840415 127.86742,106.263197 C128.532866,106.75711 130.001216,104.798552 130.23881,103.497644 C130.567437,101.68933 130.853278,99.8000452 130.271582,97.9746367 C125.930254,98.4901414 122.30626,103.968166 117.758289,99.0704216 C118.045951,97.2099264 116.557573,97.4735265 115.497048,97.2207223 C113.155698,96.6611343 112.034181,95.2054857 112.190756,92.8141916 C112.429261,92.6207648 112.609505,92.3859538 112.734219,92.1088588 C113.661837,92.8897629 114.577622,93.6922589 115.903051,93.6976569 C116.413742,93.8254085 116.925344,93.9540598 117.436034,94.082711 C119.987668,95.8730328 122.666748,96.007082 125.455065,94.6854827 C126.978945,94.5604301 128.391766,94.0962059 129.689886,93.288312 C130.561064,92.8591745 131.433153,92.4291374 132.305242,92 C136.725768,94.0620189 137.568727,98.6097961 139.887318,103.590309 C140.401651,99.5535386 140.761228,96.7340067 141.120805,93.9144748 C143.894558,95.3233411 146.323298,97.1991305 148.576347,99.3106306 C150.02558,102.467535 151.37923,105.754889 155.978179,104.650108 C160.994966,107.632478 160.961284,108.681481 157.841609,112.462748 C156.011861,114.680408 154.843917,113.000745 153.768826,112.532022 C152.153004,111.827589 151.290928,111.343572 151.426566,113.660195" id="Fill-55" fill="#4C3784"></path>
                <path d="M44.3054562,213.549836 C42.6300737,207.35106 48.0780473,202.002172 54.9859054,203.158335 C57.2050766,203.530052 59.363725,204.225494 61.5544688,204.75602 C66.6108778,205.978499 67.9937333,208.456613 66.3321059,213.347399 C63.9698807,214.22521 61.4370911,214.829905 59.8836713,217 L59.9084306,216.986911 C55.0134158,216.407521 50.118401,215.828131 45.2233861,215.248741 L45.2307222,215.254849 C44.9216889,214.686802 44.6135726,214.117883 44.3054562,213.549836" id="Fill-57" fill="#F6F5F6"></path>
                <path d="M53.2881674,106 C53.8593561,106.288739 54.429678,106.576607 55,106.865346 C54.3482035,115.36266 45.3504646,119.794069 38.3193831,115.079154 C37.1700716,114.308019 35.0439322,113.201912 36.4827384,112.039103 C37.6987896,111.056866 37.6953226,107.581524 41.1987288,109.353216 C46.0542662,111.806193 50.9522743,110.069394 53.2881674,106" id="Fill-59" fill="#DCE2EA"></path>
                <path d="M62.0077866,177 C66.3604903,178.131394 70.8144196,179.024404 74,182.900012 C72.8614275,182.853453 71.6250901,182.206276 70.7054074,183.51739 C65.0289834,185.647019 64.2243691,180.228432 62,177.009312 L62.0077866,177 Z" id="Fill-61" fill="#E8ECF0"></path>
                <path d="M91,106.061319 C89.1672827,108.062946 90.5789812,112.397322 86.8010606,113 C84.9490599,110.882743 87.0927206,108.221499 86,106 C87.6672023,106.020148 89.3336012,106.041171 91,106.061319" id="Fill-63" fill="#F6F5F6"></path>
                <path d="M26.2057888,95.0220348 C26.8038592,96.3427283 27.4019296,97.6634218 28,98.9841154 C26.6939,98.9841154 25.3860121,99.0268145 24.0825941,98.9721993 C22.6870965,98.9126192 20.86249,99.3008832 21.0082082,96.7856075 C21.132471,94.6486659 22.7952676,95.1243141 24.0289555,95.0269999 C24.7512887,94.9703987 25.4798797,95.0200488 26.2057888,95.0220348" id="Fill-65" fill="#F6F5F6"></path>
                <path d="M45,216 C49.6666667,216.652419 54.3333333,217.304838 59,217.957257 C54.0701886,219.685577 49.3606844,219.417339 45,216" id="Fill-67" fill="#C6D2D6"></path>
                <path d="M71,183.722043 C71.9423876,182.564559 73.2113275,183.135902 74.3791072,183.177006 C74.7686629,185.024213 79.1939801,184.304895 77.6889996,186.51546 C76.626817,188.075762 74.8565126,185.422098 73.3284605,184.808006 C72.5333764,184.488219 71.7746745,184.087045 71,183.722043" id="Fill-69" fill="#76C5D8"></path>
                <path d="M59,218 C60.4447447,215.624075 62.8025885,214.962025 65,214 C63.9879107,217.187963 61.5711848,217.740148 59,218" id="Fill-71" fill="#C6D2D6"></path>
                <path d="M28,99 C28.5821157,99.0031506 29.1633548,99.0063012 29.7445938,99.0094519 C30.1627703,99.8963508 30.5818235,100.78325 31,101.670149 C30.6195207,101.785146 30.2004676,102.055312 29.8629456,101.989936 C28.0359439,101.633129 28.00263,100.311445 28,99" id="Fill-73" fill="#F6F5F6"></path>
                <path d="M56.0556756,172 C56.7275722,173.727814 57.2704039,175.12428 58,177 C55.9076306,175.439301 55.9076306,175.439301 56.0556756,172" id="Fill-75" fill="#E8ECF0"></path>
                <path d="M44.3893582,214 C44.5927037,214.666325 44.7960493,215.333675 45,216 C44.314314,215.75435 43.5027473,215.618219 44.3893582,214" id="Fill-77" fill="#C6D2D6"></path>
                <path d="M59,170.022 C58.7293755,170.266 58.459522,170.511 58.1888975,170.756 C58.1256746,170.632 58.0632228,170.507 58,170.383 C58.3284503,170.255 58.6569005,170.127 58.9853508,170 L59,170.022 Z" id="Fill-79" fill="#E8ECF0"></path>
                <path d="M60.9930287,177.767982 L60,177.392982 C60.5584818,176.486982 60.7226956,177.379982 61,177.757982 L60.9930287,177.767982 Z" id="Fill-81" fill="#E8ECF0"></path>
                <path d="M153.937694,142.919691 C148.9899,140.542798 149.775844,136.499506 150.644039,132.216318 C151.726083,126.873364 152.466333,121.458716 153.354633,116.07532 C156.364069,115.484313 157.932303,118.553318 160.555164,118.943952 C167.028238,122.819042 173.426374,126.832002 180.015513,130.498448 C182.455596,131.856935 183.535813,132.892804 182.743471,136.018796 C181.363499,141.454583 180.51998,147.054897 179.839132,152.63407 C179.395896,156.268345 178.159405,156.911742 175.307158,154.795885 C167.365463,152.327997 160.822019,147.314094 153.937694,142.919691" id="Fill-83" fill="#262E42"></path>
                <path d="M106.008132,59.7543476 C106.005422,59.1442083 106.002711,58.5349948 106,57.9239296 C107.985217,58.4701848 108.812014,56.1648024 110.508982,56 C116.871254,59.4071515 123.51003,59.7367563 130.344887,57.869304 C130.597896,59.7895301 131.832219,59.7784199 133.313225,59.577509 C136.572523,59.1340238 137.051433,61.0375845 136.475837,63.7197905 C136.323128,64.4336257 135.869519,65.7048265 135.99241,65.7631555 C140.07218,67.7268969 136.653847,70.4859489 136.756858,72.8348465 C135.656269,75.4337253 135.394224,77.9335376 137.583655,80.1426309 C137.204142,80.8990555 136.51921,81.0351564 135.785484,81.0712648 C134.074963,80.2370682 133.072866,77.7057769 130.495789,78.7862513 C130.66657,80.1055966 132.757509,80.335209 132.247876,81.9952695 C128.61539,80.4472376 124.982904,82.0989654 121.350417,81.9952695 L121.332345,81.9767524 L121.332345,72.547831 C119.136589,71.9376917 119.557668,75.1550426 117.727871,74.5810116 L117.726063,74.5773082 C117.619438,73.5607179 117.957386,72.2719258 116.49897,71.9969465 C115.48603,71.8052942 114.800195,72.4524678 114.372791,73.3246245 C113.935447,74.2162242 113.949001,75.6374137 112.345104,74.9874626 C111.316803,74.5699013 110.492717,73.9393931 110.52615,72.6543045 C110.596631,70.014688 108.965627,69.2684477 106.800593,69.0999419 L106.81505,69.1240141 C106.83493,67.236193 106.853905,65.347446 106.872881,63.4596248 L106.872881,60.6987211 C106.584632,60.3839299 106.296382,60.0691388 106.008132,59.7543476" id="Fill-85" fill="#F6F5F6"></path>
                <path d="M132.676321,82.4177658 C133.163915,80.784514 131.163396,80.5586096 131,79.2596598 C133.465635,78.1966342 134.423532,80.6879581 136.060949,81.5086831 C138.205844,85.8755594 140.307513,90.2597429 141,95.2050436 C140.657647,98.0579966 140.316158,100.913682 139.826835,105 C137.625746,99.9581434 136.825192,95.3526101 132.627042,93.2648169 C132.643468,89.6494369 132.659895,86.0340568 132.676321,82.4177658" id="Fill-87" fill="#76C5D8"></path>
                <path d="M168.993732,105.954559 C166.64741,106.210316 164.943292,105.408615 165.001444,102.985478 C165.049483,100.942698 166.922158,100.932041 168.47626,101.032049 C170.453441,101.158288 172.814091,101.46159 172.988548,103.746192 C173.19166,106.420988 170.647282,105.749625 168.993732,105.954559" id="Fill-89" fill="#F6F5F6"></path>
                <path d="M137.661332,79.6692743 C135.46535,77.6080986 135.728179,75.2756701 136.832061,72.8508084 C137.675833,72.2547433 137.769183,70.7067019 139.352501,71.0487914 C139.43135,71.6128935 139.508386,72.1761318 139.586328,72.740234 C139.938882,74.0947702 140.222556,75.4700392 140.659396,76.8003873 C141.591079,79.6355837 140.617706,80.5702828 137.661332,79.6692743" id="Fill-91" fill="#76C5D8"></path>
                <path d="M151.262103,71 C153.440412,71.2974162 154.074845,72.3468578 153.993158,73.8518018 C153.93507,74.9378622 152.82867,76.4562032 152.35035,75.8694091 C151.053348,74.2769373 148.207931,76.196299 148.010068,74.1715465 C147.817651,72.2021689 150.437068,72.0628387 151.262103,71" id="Fill-93" fill="#F6F5F6"></path>
                <path d="M156,104.804978 C151.651046,105.791594 150.370726,102.855046 149,100.035799 C152.834071,99.7063918 154.868635,101.678017 156,104.804978" id="Fill-95" fill="#F6F5F6"></path>
                <path d="M195,75.2510231 C196.931853,73.1420488 198.463675,72.2966794 200.430121,73.6670677 C201.000452,74.0645397 201.205345,75.0305349 200.752983,75.3241896 C199.143106,76.3732386 197.40639,76.0845277 195,75.2510231" id="Fill-97" fill="#F6F5F6"></path>
                <path d="M218.500396,101 C219.577063,101.08052 220.9856,100.905389 220.999904,102.502704 C221.013256,104.113103 219.624746,103.995343 218.534727,103.999369 C217.360788,104.003395 216.050477,103.640048 216.001841,102.340657 C215.938901,100.628602 217.503835,101.156007 218.500396,101" id="Fill-99" fill="#F6F5F6"></path>
                <path d="M161.19803,102.002018 C161.982639,102.155935 162.13101,102.927431 161.902166,103.686499 C161.609614,104.65302 161.440286,105.950319 160.252475,105.999075 C159.543309,106.027755 159.04287,105.386276 159.000957,104.500059 C158.958206,103.594723 160.358096,101.934142 161.19803,102.002018" id="Fill-101" fill="#F6F5F6"></path>
                <path d="M224.993142,88.5638497 C225.054818,89.4516692 224.698552,90.0224738 224.001984,89.9993211 C223.301062,89.9770588 223.014454,89.3136431 223.000667,88.4890485 C222.987607,87.6902782 223.161749,86.9066462 223.919992,87.0090526 C224.526587,87.0918683 224.915504,87.751722 224.993142,88.5638497" id="Fill-103" fill="#F6F5F6"></path>
                <path d="M164,120 C162.666667,119.73689 161.333333,119.474537 160,119.212183 C161.068433,117.44451 161.501104,117.529945 164,120" id="Fill-105" fill="#EEA1A5"></path>
                <path d="M137,58.7307922 C136.759966,58.8283146 136.46056,59.0623682 136.29771,58.9843504 C136.129771,58.9027862 136.094148,58.5206759 136,58.2688909 C136.240034,58.1722552 136.537744,57.9382015 136.70229,58.0153328 C136.870229,58.0942373 136.906701,58.4790073 137,58.7307922" id="Fill-107" fill="#F6F5F6"></path>
                <path d="M194.293746,107 C194.538281,107.101836 194.916518,107.153589 194.987767,107.322204 C195.057257,107.48581 194.812722,107.769616 194.706288,108 C194.461754,107.898998 194.081757,107.848915 194.012267,107.681135 C193.942777,107.515025 194.186432,107.232053 194.293746,107" id="Fill-109" fill="#F6F5F6"></path>
                <path d="M150.71036,98 C150.464455,97.8992443 150.084097,97.8497061 150.012448,97.68178 C149.942569,97.5172124 150.184936,97.231738 150.291082,97 C150.536104,97.099916 150.917346,97.1486146 150.987226,97.3157011 C151.05799,97.4819479 150.816507,97.7665827 150.71036,98" id="Fill-111" fill="#F6F5F6"></path>
                <path d="M152.710295,96 C152.464119,95.8988294 152.082457,95.8486622 152.0125,95.6822742 C151.942544,95.5158863 152.184292,95.2324415 152.28967,95 C152.534961,95.1003344 152.919279,95.1496656 152.987464,95.3152174 C153.057421,95.4841137 152.816558,95.7667224 152.710295,96" id="Fill-113" fill="#F6F5F6"></path>
                <path d="M233,99.7067781 C233.102671,99.4619766 233.153589,99.0833268 233.321369,99.0119997 C233.48581,98.9433144 233.768781,99.1872354 234,99.2937857 C233.898998,99.5385872 233.84808,99.9181176 233.681135,99.9876835 C233.515025,100.057249 233.232053,99.814209 233,99.7067781" id="Fill-115" fill="#F6F5F6"></path>
                <path d="M139.15463,73 C139.103087,72.333674 139.052143,71.666326 139,71 C139.442914,71.1042412 140.045254,70.9764946 139.997306,72.1006643 C139.983522,72.4338273 139.450106,72.702606 139.15463,73" id="Fill-117" fill="#F6F5F6"></path>
                <path d="M164.292795,116 C164.536567,116.104535 164.914106,116.157659 164.98539,116.329885 C165.054913,116.49697 164.863064,116.922822 164.689695,116.986228 C164.511926,117.052205 164.080705,116.86884 164.012062,116.697471 C163.943418,116.526959 164.18543,116.237346 164.292795,116" id="Fill-119" fill="#F6F5F6"></path>
                <path d="M133,57.3013255 C133.667011,56.8671695 134.334023,56.434156 135,56 C134.902792,57.5035508 134.737332,58.8757123 133,57.3013255" id="Fill-121" fill="#F6F5F6"></path>
                <path d="M58,136 C66.5157402,139.148624 75.5564917,140.109967 84.2942471,142.347605 C90.5234123,143.941602 96.0364874,147.004163 101.462212,150.219624 C107.183654,153.611789 107.467542,159.690218 105.930724,164.825616 C102.253824,177.120725 111.845064,182.840253 121.097822,184.566091 C132.437887,186.680128 142.773424,184.276773 152.935171,179.156023 C155.318195,177.954803 157.365467,174.988376 160.737551,176.001905 C160.454572,173.929069 162.736598,172.730595 162.527321,170.682479 C162.526411,170.680648 162.586464,170.745653 162.586464,170.745653 C163.618289,170.388583 164.649204,170.029682 165.681029,169.670781 C166.088664,169.389702 166.497208,169.106793 166.902113,168.823884 C169.049474,169.674443 169.027636,171.491837 168.99124,173.394379 C168.798342,183.403324 162.668355,189.821428 155.495625,195.375239 C146.603187,202.26028 136.36046,204.738712 125.203284,203.813992 C123.038636,203.634542 120.860339,203.393748 119.099685,202.327116 C116.09702,200.507891 113.241758,199.305755 109.741379,200.819182 C108.857867,201.200972 107.543064,201.257737 107.524866,199.530984 C107.452074,192.283379 104.513102,185.672092 101.93263,179.245749 C98.8844697,171.652977 92.0766091,168.165593 83.8138207,168.061219 C80.7592914,168.02185 77.8840121,167.393773 75.1679651,165.859288 C72.3172531,164.248811 69.6603494,165.992044 66.2691577,166.986347 C72.0770398,162.158578 68.2008722,160.519719 64.5621881,158.349832 C61.6059278,156.587371 61.6332247,149.453297 64.2446335,145.807521 C67.6785904,141.013628 67.6412846,141.128989 62.3793415,139.408645 C60.654174,138.843742 58.3839772,138.51597 58,136" id="Fill-123" fill="#DCE2EA"></path>
                <path d="M174.001396,164.495642 C173.967055,163.069813 174.564576,162.180216 176,162 C175.888394,165.390539 175.888394,165.390539 174.001396,164.495642" id="Fill-125" fill="#F6F5F6"></path>
                <path d="M34.0095772,90.0170962 C34.7992122,89.6745239 35.623923,89.402106 36.3742046,88.9802683 C42.7220825,85.4160584 45.4708335,86.4820414 48.5523775,93.6587493 C49.1922983,95.1493033 49.3984761,95.9975343 47.4179723,96.5031929 C44.119129,97.344135 40.7227576,97.6138196 37.4666898,98.8264892 C35.7556714,99.4633457 34.1062498,98.3126307 34.0352425,95.9401352 C33.9753569,93.9694332 34.0112883,91.9941758 34.0052997,90.0207406 L34.0095772,90.0170962 Z" id="Fill-127" fill="#EDF2F6"></path>
                <path d="M107.306584,101.978082 C106.229334,103.314625 105.126849,103.340777 104,102.052802 C104.037417,100.586434 104.072223,99.1191314 104.107899,97.6518293 C106.861065,95.0459903 105.01634,91.5678024 105.607174,88.5538088 C107.254375,85.3688945 108.900706,82.1849143 110.547907,79 L110.690612,79.1541088 C111.264043,79.74159 111.838345,80.3290713 112.412646,80.9156185 C112.444842,82.7275639 112.476167,84.5395092 112.508363,86.3523886 C112.672822,88.8517524 112.837281,91.3520502 113,93.85048 C112.878178,94.1362817 112.705888,94.3800537 112.477908,94.5827301 C109.20526,95.8015902 107.920913,98.6194454 107.306584,101.978082" id="Fill-129" fill="#76C5D8"></path>
                <path d="M107.029601,70 C108.587188,76.7019304 108.587188,76.7019304 104.646394,83 C103.087164,77.8883277 104.52974,73.8452224 107.042745,70.0224867 C107.042745,70.0233861 107.029601,70 107.029601,70" id="Fill-131" fill="#76C5D8"></path>
                <path d="M117.174419,94 C116.678084,93.8777562 116.180865,93.7572103 115.68453,93.6358155 C115.630561,91.6255849 116.087968,89.5211247 114,87.6144618 C116.547144,86.6220802 118.818251,87.1713282 120.995576,87.0083365 L121,87.0117321 C120.950455,89.9591648 118.467012,91.6790665 117.174419,94" id="Fill-133" fill="#F6F5F6"></path>
                <path d="M122,87.0767284 C124.712842,82.7831848 125.066568,82.832885 129,88.1784158 C126.232448,90.254779 124.241207,87.8305145 122.004716,87.0804099 L122,87.0767284 Z" id="Fill-135" fill="#F6F5F6"></path>
                <path d="M130,93.5999321 C128.705222,94.4085998 127.294141,94.8737865 125.774026,95 C126.429139,93.3051335 122.030528,91.9853014 125.099833,90.4445956 C127.693024,89.1436955 129.459373,90.8484787 130,93.5999321" id="Fill-137" fill="#F6F5F6"></path>
                <path d="M105.920065,88 C105.195184,90.9824453 107.455105,94.4222359 104.08228,97 C103.87974,93.8761934 103.904258,90.7856483 105.920065,88" id="Fill-139" fill="#6883BE"></path>
                <path d="M112.110728,85 C112.074157,83.3338204 112.037587,81.666782 112,80.0014613 C114.780392,79.9422002 113.738126,81.6985596 113.909805,82.8777682 C113.910821,82.8769093 113.909805,82.8124952 113.909805,82.8124952 C114.227767,84.0818835 113.722888,84.8660185 112.110728,85" id="Fill-141" fill="#F6F5F6"></path>
                <path d="M118,75.0033269 C117.732887,75.9714444 118.636234,77.2331577 116.609751,78 C115.785276,76.5195453 115.426672,75.3950652 117.997897,75 L118,75.0033269 Z" id="Fill-143" fill="#F6F5F6"></path>
                <path d="M117,82.2905913 C116.899408,82.5356454 116.84869,82.9175365 116.682164,82.9872964 C116.515638,83.0579507 116.23246,82.8155796 116,82.7109397 C116.100592,82.4649911 116.14962,82.0813114 116.3153,82.0124458 C116.483516,81.9426859 116.766695,82.1841626 117,82.2905913" id="Fill-145" fill="#F6F5F6"></path>
                <path d="M121,82.0139541 C120.930226,82.4365634 120.931555,82.9269498 120.368711,82.9993781 C120.256408,83.0146612 119.985951,82.7442177 120.00057,82.6325851 C120.073002,82.0691059 120.564078,82.0710994 120.98671,82 L121,82.0139541 Z" id="Fill-147" fill="#F6F5F6"></path>
                <path d="M110,78.442 L110.599,78 C110.455,78.2 110.311,78.4 110.166,78.604 C110.165,78.607 110,78.442 110,78.442" id="Fill-149" fill="#F6F5F6"></path>
                <path d="M114,83 C114,83 114.001,83.075 114.001,83.076 C114,83.077 114,83 114,83" id="Fill-151" fill="#76C5D8"></path>
                <path d="M110,55.9962347 C108.498501,56.1607336 107.76694,58.4618694 106.010394,57.9166203 L106,56.0516838 C106.918649,55.7005064 107.838097,55.3502532 108.757545,55 L110,55.9962347 Z" id="Fill-153" fill="#E8ECF0"></path>
                <path d="M109,55.8735462 C108.003717,56.2487008 107.006566,56.6238555 106.009415,57 C106.113466,55.6112348 105.625296,54.0541945 106.889509,53 C107.592717,53.9571888 108.295925,54.9153675 109,55.8735462" id="Fill-155" fill="#F6F5F6"></path>
                <path d="M106,61 C106.319,61.3333333 106.638,61.6666667 106.957,62 C106.638,61.6666667 106.319,61.3333333 106,61" id="Fill-157" fill="#E8ECF0"></path>
                <path d="M161,167.646279 C159.4389,168.575725 157.894851,169.532581 156.313289,170.427972 C153.940519,171.771059 148.772092,170.599907 147.278347,168.464424 C146.54,167.409557 147.442045,167.009205 148.001347,166.482602 C152.211458,162.513975 156.038754,161.982389 160.965896,164.656934 C160.977833,165.652829 160.988916,166.649554 161,167.646279" id="Fill-159" fill="#F6F5F6"></path>
                <path d="M162.031689,167 C162.02139,165.999722 162.011091,164.999444 162,164 C163.281838,164.455126 164.53674,165.151153 165.938998,164.465963 C165.93979,164.465963 166,164.54015 166,164.54015 C164.961378,165.867185 163.627253,166.667408 162.031689,167" id="Fill-161" fill="#DCE2EA"></path>
                <path d="M166,168.666381 C164.999706,169.111678 164.000294,169.555839 163,170 C163.721552,168.51757 164.471332,167.138512 166,168.666381" id="Fill-163" fill="#F6F5F6"></path>
                <path d="M168.03731,164 C168.35837,163.035238 169.116348,162.92 170,163.047619 L169.960727,163 C169.307806,163.318095 168.653903,163.63619 168,163.955238 L168.03731,164 Z" id="Fill-165" fill="#DCE2EA"></path>
                <path d="M167.963232,164 C167.333333,164.333331 166.703435,164.665714 166.074504,164.999992 C166.074504,165.000939 166.000968,164.916659 166,164.916659 C166.417997,164.078598 167.172714,163.982008 168,164.04356 C168,164.044507 167.963232,164 167.963232,164" id="Fill-167" fill="#DCE2EA"></path>
                <path d="M177.901226,127.967 C177.600817,127.827 177.300409,127.689 177,127.549 C177.087875,127.365 177.175749,127.183 177.262943,127 C177.508174,127.264 177.754087,127.528 178,127.791 L177.901226,127.967 Z" id="Fill-169" fill="#EEA1A5"></path>
                <path d="M136.400707,128.458764 C136.319431,127.514107 136.194391,126.303196 135.048487,126.683429 C133.468516,127.207732 132.505706,128.603745 132.311894,130.342606 C132.224366,131.130428 132.729886,131.978431 133.511387,131.872659 C135.378057,131.620993 135.998792,130.073616 136.400707,128.458764 M126.339441,135.375001 C126.32783,140.40922 122.036273,144.506988 117.702739,143.289694 C115.248379,142.600349 113.947962,142.689709 114.156064,145.68325 C114.356129,148.546399 111.929457,149.082555 110.300362,148.99046 C107.635221,148.838185 104.443124,147.319986 103.756297,145.004848 C102.783663,141.728639 102.589851,137.886184 104.133203,134.419402 C104.238594,134.18415 104.625326,133.8951 104.845039,133.924278 C109.874332,134.583532 111.607032,129.639585 115.074216,127.656353 C115.980757,127.138433 117.049851,126.004115 117.852787,126.600452 C122.277422,129.885779 122.672192,126.05153 124.186964,123.344304 C125.575803,120.860477 127.705951,118.280907 130.931987,119.184532 C134.242871,120.111864 138.111078,120.997251 139.570475,124.704756 C140.845884,127.943579 139.073887,130.792139 136.968747,133.254994 C134.734101,135.869214 131.926056,136.228475 128.897405,135.157074 C127.563048,134.684745 126.519856,133.191166 124.846104,134.115763 C123.503709,134.964677 121.591488,134.384753 120.518822,135.924835 C119.832887,136.911436 118.971003,138.017487 119.854323,139.129009 C120.947531,140.504962 122.086289,139.387057 122.707918,138.50714 C123.689483,137.11751 125.048848,136.316923 126.339441,135.375001" id="Fill-171" fill="#76C5D8"></path>
                <path d="M126,135.112553 C124.683265,135.944752 123.295453,136.652082 122.294916,137.879838 C121.659785,138.657255 120.498871,139.644938 119.383519,138.429266 C118.482307,137.447223 119.360738,136.470013 120.060567,135.599144 C121.155872,134.237656 123.105916,134.750027 124.476414,134 C124.984884,134.372999 125.492442,134.742776 126,135.112553" id="Fill-173" fill="#2B4C74"></path>
                <path d="M117.669863,100.031603 C122.035087,104.641629 125.512765,99.4844636 129.677941,99 C130.237025,100.718491 129.962725,102.497116 129.646493,104.199514 C129.419365,105.424224 128.009425,107.268065 127.370846,106.803082 C124.237354,104.522207 124.430413,107.732202 123.598775,108.803612 C122.361802,110.398445 121.661199,110.420466 120.494111,108.739242 C119.696543,107.591606 119.761187,104.421418 116.650408,106.804776 C116.052887,107.262984 114.656924,105.403897 114.370393,104.196126 C114.048046,102.84183 114.105702,101.403685 114,100.002806 C115.230859,99.2625589 116.444246,100.371235 117.669863,100.031603" id="Fill-175" fill="#EEA1A5"></path>
                <path d="M117.963811,99.4462097 C116.688125,99.818035 115.425168,98.6042709 114.144026,99.4146833 C111.872704,100.612684 109.597745,101.764323 107,100.341929 C107.641026,97.0075544 108.983088,94.2100552 112.40371,93 C112.246408,95.4627636 113.366612,96.9630466 115.705219,97.538866 C116.765412,97.8003492 118.251136,97.5286663 117.963811,99.4462097" id="Fill-177" fill="#DCE2EA"></path>
                <path d="M137,127.752437 C136.607757,129.284581 136.00196,130.752706 134.18021,130.991481 C133.417516,131.091836 132.924162,130.287266 133.009584,129.539794 C133.198732,127.889993 134.138371,126.56548 135.680321,126.068031 C136.798649,125.707272 136.92068,126.856163 137,127.752437" id="Fill-179" fill="#2B4C74"></path>
            </g>
        </g>
    </g>
</svg>