<svg xmlns="http://www.w3.org/2000/svg" width="290" height="300" viewBox="0 0 290 300">
    <g fill="none" fill-rule="evenodd">
        <g fill-rule="nonzero">
            <path fill="#F6851B" stroke="#F6851B" d="M71.61 196.024l-20.098-2.142-22.208 9.522-10.066 22.411 9.352 19.215 11.767-14.725 14.59 1.734 18.568 1.054 21.63-16.528 17.922-49.244h1.7l-6.495-21.459-7.516 1.598-12.753 30.608z"/>
            <path fill="#F6851F" stroke="#F6851F" stroke-linecap="round" stroke-linejoin="round" d="M140.58 263.667l6.665-16.426-12.617-.987-5.85 12.89z"/>
            <path fill="#6A2E17" d="M128.779 259.144l9.488 14.249 13.535 3.775v-5.271l-7.142-3.81-4.08-4.42z"/>
            <g stroke-linecap="round" stroke-linejoin="round">
                <path fill="#F6851F" stroke="#F6851F" d="M106.945 169.668l31.322-18.603 8.026 12.413-36.355 8.434z"/>
                <path fill="#CD6328" stroke="#CD6328" d="M149.524 198.677l-38.396-13.161-10.372-38.056 27.41-60.976 6.088-14.454 24.18-19.146 30.777 56.453v16.97l-9.012 14.658-.272-18.297-.034-6.155-3.265 7.482-4.353 17.616-1.156-4.557-12.787-7.856 1.292 5.305 5.883 22.888"/>
                <path fill="#E37725" stroke="#E37725" d="M156.7 163.478l-46.762 8.434 20.609 4.932z"/>
                <path fill="#E37725" stroke="#E37725" d="M132.894 192.997l-10.917-3.774 8.57-12.38 13.263 2.585z"/>
                <path fill="#E37725" stroke="#E37725" d="M149.524 198.677l-16.63-5.68 10.916-13.569 13.127 2.449z"/>
            </g>
            <path fill="#6A2E17" d="M198.461 175.585l-18.194-34.654 8.91-14.522 17.004 53.02zM154.149 137.054l18.704 5.85 18.433 30.335 4.863 7.277-11.155-1.19z"/>
            <path fill="#F6851F" stroke="#F6851F" stroke-linecap="round" stroke-linejoin="round" d="M190.13 114.847l-11.053 8.162 10.134 3.298z"/>
            <path fill="#CD6328" stroke="#CD6328" stroke-linecap="round" stroke-linejoin="round" d="M171.731 125.967l-.612 11.087 1.734 5.85 4.251-19.895z"/>
            <path fill="#CD6328" stroke="#CD6328" stroke-linecap="round" stroke-linejoin="round" d="M156.02 83.423l8.365 29.179 1.837 6.7-12.073-8.434-2.517-11.36z" opacity=".46"/>
            <path fill="#F6851F" stroke="#F6851F" stroke-linecap="round" stroke-linejoin="round" d="M160.916 68.357l-7.72-9.59-18.942 13.263 17.378 27.479 4.387-16.086z"/>
            <path fill="#E6CFC0" d="M188.735 61.624l-32.716 2.04 8.366 48.938 6.734 24.452.612-11.087 19.487-7.822 2.38-15.677 6.87-2.96-12.141-23.26 1.938-7.449z"/>
            <path fill="#E37725" stroke="#E37725" stroke-linecap="round" stroke-linejoin="round" d="M179.077 123.009l1.122 17.956 9.012-14.658zM128.166 86.484l2.925 10.78 20.541 2.245zM156.7 122.702l-6.7 1.599-21.834-6.496 23.466-18.296z"/>
            <path fill="#F6851F" stroke="#F6851F" stroke-linecap="round" stroke-linejoin="round" d="M166.222 119.302l-21.766-4.115 9.693 21.867 18.704 5.85z"/>
            <path fill="#CD6328" stroke="#CD6328" stroke-linecap="round" stroke-linejoin="round" d="M114.767 120.594l23.5 30.471 15.882-14.011-9.693-21.867z"/>
            <path fill="#E37725" stroke="#E37725" stroke-linecap="round" stroke-linejoin="round" d="M154.149 137.054l-15.882 14.011 8.978 10.44z"/>
            <path fill="#CD6328" stroke="#CD6328" stroke-linecap="round" stroke-linejoin="round" d="M165.507 157.39l-11.358 6.088-6.904-1.972 6.904-24.452z"/>
            <path fill="#E37725" stroke="#E37725" stroke-linecap="round" stroke-linejoin="round" d="M114.767 120.594l-14.011 26.866 37.51 3.605z"/>
            <path fill="#CD6328" stroke="#CD6328" stroke-linecap="round" stroke-linejoin="round" d="M138.267 151.065l-37.511-3.605 6.19 22.208z"/>
            <path fill="#CD6328" d="M184.62 27.275l15.168 8.264-1.327-18.16z"/>
            <path fill="#763E1A" d="M200.128 38.974l1.19 10.679-1.53-14.114-20.915-11.358z"/>
            <path fill="#CD6328" stroke="#CD6328" stroke-linecap="round" stroke-linejoin="round" d="M157.754 33.397l-11.087 19.895 4.761 16.256 14.181-14.352z"/>
            <path fill="#F6851F" stroke="#F6851F" stroke-linecap="round" stroke-linejoin="round" d="M189.857 63.46l-.748-15.27-5.68-12.243-9.283.817-17.787 16.868z"/>
            <path fill="#DF6B26" d="M176.288 71.214c.306-.646 5.713-10.032 5.713-10.032l-25.642-7.55-9.148 19.759 29.077-2.177z"/>
            <path fill="#F47A20" d="M189.857 63.46l-13.569 7.754 5.713-10.032z"/>
            <path fill="#DF6B26" d="M209.514 75.261l-34.212-3.673 14.555-8.128zM172.173 38.634l5.237-4.625 19.215-.374-6.496-4.863-11.256-4.591-7.754-19.147M191.83 56.148l-1.973 7.312-.748-15.27z"/>
            <path fill="#F47A20" d="M208.154 74.649L189.857 63.46l1.973-7.312z"/>
            <path fill="#DF6B26" d="M203.359 53.802l-1.803 3.945-1.122-3.945-.272-3.673z"/>
            <path fill="#F6851F" d="M208.154 74.649l2.006-1.02-8.57-16.426-.034-5.408-1.564-13.059-.952-1.598-2.415-3.503 2.04 19.725z"/>
            <path fill="#CD6328" d="M189.11 48.19l9.351 3.265-2.584 9.182-4.047-4.489z"/>
            <path fill="#243447" d="M195.877 60.637l-.714-5.883-3.877.918z"/>
            <path fill="#DF6B26" d="M208.154 74.649l-12.277-14.012 2.584-9.182zM189.11 48.19l-5.272-11.358 12.787-3.197 1.836 17.82z"/>
            <path fill="#171717" d="M213.527 77.812l.578-1.259-3.945-2.924-2.006 1.02-2.925 6.36 3.537-.307z"/>
            <path fill="#C1AE9E" d="M208.766 80.702l-7.992 3.333-24.452-10.678-.884-1.87 23.295 10.134 6.87-1.429z"/>
            <path fill="#DF6B26" d="M156.36 53.632l2.074-30.234 14.725 14.386z"/>
            <path fill="#D6C0B3" d="M175.438 71.486l23.295 10.135 6.87-1.429 2.347-5.033z"/>
            <path fill="#763E1A" d="M171.119 5.034l7.754 19.147 17.752 9.454-24.452 5-13.74-15.237z"/>
            <path fill="#F6851F" d="M184.246 36.56L171.119 5.034l1.054 33.6z"/>
            <path fill="#E37525" d="M196.625 33.635l-8.774-5.237-8.978-4.217 5.033 12.719z"/>
            <path fill="#D7C1B3" stroke="#D7C1B3" d="M86.132 223.605l-24.18.136-14.657-5.952 8.638-11.086 9.59-11.223-13.705-1.768-23.092 9.522-9.42 22.683 9.318 19.147 14.488-12.685 30.403.714z"/>
            <path fill="#E37725" stroke="#E37725" stroke-linecap="round" stroke-linejoin="round" d="M122.725 273.393l24.52-57.61-17.412-18.67-7.108 18.67-6.632 48.972z"/>
            <path fill="#CD6328" stroke="#CD6328" stroke-linecap="round" stroke-linejoin="round" d="M122.725 153.514l7.108 43.598-7.108 18.671-11.223-22.65-3.673-25.2z"/>
            <path fill="#F6851F" stroke="#F6851F" stroke-linecap="round" stroke-linejoin="round" d="M147.245 161.914v53.869l-17.412-18.67-7.108-43.6z"/>
            <path fill="#CD6328" stroke="#CD6328" stroke-linecap="round" stroke-linejoin="round" d="M165.507 157.39l-13.705 27.275-4.557 21.29v-44.041z"/>
            <path fill="#F6851B" stroke="#F6851B" d="M165.507 180.72l-9.148-5.135 9.148-18.194z"/>
            <path fill="#E37725" stroke="#E37725" stroke-linecap="round" stroke-linejoin="round" d="M171.969 205.955l-20.167-21.29 4.557-9.08 9.148 5.136 6.462 10.066z"/>
            <path fill="#CD6328" stroke="#CD6328" stroke-linecap="round" stroke-linejoin="round" d="M165.507 223.605l6.462-17.65-20.167-21.29-4.557 21.29z"/>
            <path fill="#B55424" d="M147.245 247.24l18.262-23.635-18.262-17.65v9.828l-12.617 30.471z"/>
            <path fill="#CD6328" d="M167.854 27.786l3.265-22.752 1.054 33.6z"/>
            <path fill="#6A2E17" d="M191.286 173.239l11.903 2.346 2.992 3.843-14.08 1.497-7.107-1.599zM203.189 175.585l8.876-.646 4.149 3.197-10.033 1.292zM125.378 267.17l7.516 9.046 8.094 2.414-.137 4.83h-14.249l-10.543-18.671 9.319 2.38z"/>
            <path fill="#E6CFC0" d="M19.306 225.917l27.989-8.128-4.183 14.59-14.488 12.685z"/>
            <path fill="#D6C0B3" d="M73.515 233.093l12.617-9.488-24.18-.204-14.657-5.612-4.183 14.59z"/>
            <path fill="#CD6328" stroke="#CD6328" stroke-linecap="round" stroke-linejoin="round" d="M95.144 216.565l-23.533-20.54 16.392-17.957z"/>
            <path fill="#E37725" stroke="#E37725" stroke-linecap="round" stroke-linejoin="round" d="M100.756 147.46l8.366 30.608-13.978 38.497-7.141-38.497z"/>
            <path fill="#E37725" d="M86.132 223.605l-24.18-.204 3.911-27.92 29.281 21.084z"/>
            <g>
                <path fill="#D2917B" d="M231.245 194.562l-11.698-17.14-7.04 26.084 18.738-8.502"/>
                <path fill="#DDBAA6" d="M240.7 205.853l-9.455 13.263"/>
                <path fill="#994CF2" d="M212.507 203.506l-2.177 6.292 12.107 4.863 8.808 4.455 9.455-13.263-9.455-10.849z"/>
                <path fill="#F3D1C2" d="M219.547 177.422l11.698 17.582.17-11.529z"/>
                <path fill="#A7248F" d="M231.415 183.475l15.848 12.753 5.135 12.175-2.856 10.27-1.088 9.557-7.754-22.377-9.455-10.849z"/>
                <path fill="#AD61F7" d="M243.76 229.692l-12.515-10.576 9.455-13.263 7.754 22.377z"/>
                <path fill="#8318EA" d="M256.173 212.348l-3.775-3.945-2.856 10.27 3.809-2.142z"/>
                <path fill="#8318EA" d="M248.454 228.23l1.088-9.556 3.809-2.143z"/>
                <path fill="#AD61F7" d="M244.645 230.373l2.414 6.325.204-8.434-2.482-.68z"/>
                <path fill="#994CF2" d="M260.152 212.62l-12.889 15.644 11.971-5.271 4.15-4.727-2.075-2.449z"/>
                <path fill="#9F56F4" d="M266.444 235.644l.034-7.924-3.095-9.454-4.149 4.727z"/>
                <path fill="#AD61F7" d="M260.458 242.31l-13.399-5.612.204-8.434 11.971-5.271 7.21 12.65zM256.275 211.77l-11.494 15.814 2.482.68 12.89-15.644z"/>
                <path fill="#8318EA" d="M244.645 230.373l-.885-.68 2.21-1.837zM263.791 235.814l-1.564 2.823 3.129-2.551 1.088-3.911z"/>
                <path fill="#994CF2" d="M219.547 177.422l-21.698 2.618 4.013 16.188 10.645 7.278z"/>
                <path fill="#8318EA" d="M210.33 209.798l-12.48 8.842 4.012-22.412 10.645 7.278z"/>
                <path fill="#AD61F7" d="M197.85 180.04l-11.53 5.748-7.243 10.44 2.686 3.061 16.086 19.35 4.013-22.41z"/>
                <path fill="#994CF2" d="M185.776 237.48l7.516-14.623 4.557-4.217-16.086-19.351-13.67 24.248 2.958 8.502z"/>
                <path fill="#AD61F7" d="M179.077 196.228l2.686 3.061-13.67 24.248-8.299 4.897 10.985-22.581z"/>
                <path fill="#9816FF" d="M185.776 237.48l.238 18.977-2.686 12.243h-2.959l-5.34-17.548z"/>
                <path fill="#8318EA" d="M171.05 232.039l-3.264 12.379 7.244 6.734 10.746-13.672z"/>
                <path fill="#9816FF" d="M154.93 242.752l12.856 1.666 3.265-12.38-2.959-8.501-8.298 4.897-6.461 12.141z"/>
                <path fill="#B689F7" d="M141.804 264.857v-14.658l20.88-3.128-8.297 14.657z"/>
                <path fill="#AD61F7" d="M154.93 242.752l-10.168 4.319-2.958 3.128 20.88-3.128 5.102-2.653z"/>
                <path fill="#9816FF" d="M154.387 261.728l9.93 6.972 8.026-10.577 2.687-6.971-7.244-6.734-5.101 2.653z"/>
                <path fill="#8318EA" d="M180.37 268.7l-5.34-17.548-2.687 6.971-8.026 10.577z"/>
                <path fill="#994CF2" d="M144.762 268.7h19.555l-9.93-6.972-12.583 3.129zM134.56 251.152l2.142 13.705h5.102v-14.658l-1.87-7.447-5.374 4.319z"/>
                <path fill="#AD61F7" d="M153.333 240.575h-9.659l-3.74 2.177 1.87 7.447 2.958-3.128 10.169-4.32z"/>
                <path fill="#9816FF" d="M144.762 268.7l-2.958 3.843 1.462 3.367 11.665 2.414h17.412l-6.666-4.829-8.604 2.415z"/>
                <path fill="#8318EA" d="M167.786 268.7l-2.109 4.795-8.604 2.415-12.31-7.21z"/>
                <path fill="#9816FF" d="M186.014 270.638l-20.337 2.857 2.109-4.795h15.542z"/>
                <path fill="#994CF2" d="M172.343 278.324l14.862-.952-1.19-6.734-20.338 2.857z"/>
                <path fill="#9816FF" d="M194.72 273.495l-7.515 3.877-1.19-6.734z"/>
                <path fill="#9816FF" d="M183.566 267.544l5.951 2.074 5.204 3.877-8.707-2.857-2.686-1.938z"/>
                <path fill="#AD61F7" d="M219.547 177.422l11.868 6.053-.17 11.529-18.738 8.502z"/>
                <path fill="#8318EA" d="M240.7 205.853l6.563-9.625-15.848-12.753-.17 11.529z"/>
                <path fill="#994CF2" d="M248.454 228.23l3.944-19.827-5.135-12.175-6.563 9.625z"/>
            </g>
        </g>
        <path d="M0 0h290v300H0z"/>
    </g>
</svg>
