<?xml version="1.0" encoding="UTF-8"?>
<svg width="54px" height="54px" viewBox="0 0 54 54" version="1.1" xmlns="http://www.w3.org/2000/svg" xmlns:xlink="http://www.w3.org/1999/xlink">
    <!-- Generator: sketchtool 50.2 (55047) - http://www.bohemiancoding.com/sketch -->
    <title>E8D1198A-2024-42FA-88AB-B99291B06050</title>
    <desc>Created with sketchtool.</desc>
    <defs>
        <circle id="path-1" cx="23" cy="23" r="23"></circle>
        <filter x="-15.2%" y="-10.9%" width="130.4%" height="130.4%" filterUnits="objectBoundingBox" id="filter-2">
            <feOffset dx="0" dy="2" in="SourceAlpha" result="shadowOffsetOuter1"></feOffset>
            <feGaussianBlur stdDeviation="2" in="shadowOffsetOuter1" result="shadowBlurOuter1"></feGaussianBlur>
            <feColorMatrix values="0 0 0 0 0   0 0 0 0 0   0 0 0 0 0  0 0 0 0.197237319 0" type="matrix" in="shadowBlurOuter1"></feColorMatrix>
        </filter>
    </defs>
    <g id="Symbols" stroke="none" stroke-width="1" fill="none" fill-rule="evenodd">
        <g id="ic/git" transform="translate(4.000000, 2.000000)">
            <g id="Group-9">
                <g id="Oval">
                    <use fill="black" fill-opacity="1" filter="url(#filter-2)" xlink:href="#path-1"></use>
                    <use fill="#70A8F7" fill-rule="evenodd" xlink:href="#path-1"></use>
                </g>
                <g id="Git" transform="translate(12.000000, 12.000000)" fill="#FFFFFF" fill-rule="nonzero">
                    <g id="Group">
                        <g id="style_1_copy_2" transform="translate(0.319149, 0.316948)">
                            <path d="M14.1208511,22.6827645 L8.21900709,22.6827645 C8.21900709,22.6827645 8.22695035,20.9427909 8.21900709,19.7505033 C4.17929078,20.6137285 3.05248227,17.5518709 3.05248227,17.5518709 C2.31489362,16.0857403 1.57617021,15.3532384 1.57617021,15.3532384 C0.099858156,14.4821247 1.57617021,14.6207366 1.57617021,14.6207366 C3.05248227,14.6207366 3.79007092,16.0868672 3.79007092,16.0868672 C5.08595745,18.2708496 7.3906383,17.9192487 8.21900709,17.5529978 C8.21900709,16.820496 8.54241135,15.7116009 8.95659574,15.3543654 C5.73276596,14.9937491 3.04794326,13.1557329 3.04794326,9.48984299 C3.04794326,5.82395304 3.78893617,5.09145121 4.52765957,4.35894938 C4.37900709,3.99720616 3.76056738,2.66179897 4.55035461,0.694186354 C4.55035461,0.694186354 6.00056738,0.694186354 7.47687943,2.89281878 C8.20879433,2.16595158 10.4295035,2.16031695 11.168227,2.16031695 C11.9046809,2.16031695 14.1265248,2.1670785 14.857305,2.89281878 C16.333617,0.694186354 17.787234,0.694186354 17.787234,0.694186354 C18.5758865,2.6629259 17.9597163,3.99833309 17.8099291,4.35894938 C18.5475177,5.09145121 19.2862411,5.82507997 19.2862411,9.48984299 C19.2862411,13.154606 16.6059574,14.9937491 13.3809929,15.3543654 C13.7963121,15.7116009 14.1185816,16.9737579 14.1185816,17.5529978 L14.1208511,22.6827645 Z" id="Cat_3_"></path>
                        </g>
                    </g>
                </g>
            </g>
        </g>
    </g>
</svg>