<svg xmlns="http://www.w3.org/2000/svg" xmlns:xlink="http://www.w3.org/1999/xlink" width="54" height="54" viewBox="0 0 54 54">
    <defs>
        <circle id="b" cx="23" cy="23" r="23"/>
        <filter id="a" width="130.4%" height="130.4%" x="-15.2%" y="-10.9%" filterUnits="objectBoundingBox">
            <feOffset dy="2" in="SourceAlpha" result="shadowOffsetOuter1"/>
            <feGaussianBlur in="shadowOffsetOuter1" result="shadowBlurOuter1" stdDeviation="2"/>
            <feColorMatrix in="shadowBlurOuter1" values="0 0 0 0 0 0 0 0 0 0 0 0 0 0 0 0 0 0 0.197237319 0"/>
        </filter>
    </defs>
    <g fill="none" fill-rule="evenodd">
        <g transform="translate(4 2)">
            <use fill="#000" filter="url(#a)" xlink:href="#b"/>
            <use fill="#70A8F7" xlink:href="#b"/>
        </g>
        <path fill="#FFF" fill-rule="nonzero" d="M15.667 18.836s1.095-2.834 5.515-2.834a5.705 5.705 0 0 1 5.554 3.702v15.867s-1.398-4.231-5.516-4.231c-2.984 0-5.1 1.927-5.1 1.927-.227.189-.453.075-.453-.227V18.836zm22.666 0v14.166c0 .302-.189.416-.453.227 0 0-2.116-1.927-5.1-1.927-4.08 0-5.478 4.231-5.478 4.231V19.667s1.134-3.703 5.554-3.703c4.382 0 5.477 2.872 5.477 2.872z"/>
    </g>
</svg>
