<?xml version="1.0" encoding="UTF-8"?>
<svg width="54px" height="54px" viewBox="0 0 54 54" version="1.1" xmlns="http://www.w3.org/2000/svg" xmlns:xlink="http://www.w3.org/1999/xlink">
    <!-- Generator: sketchtool 50.2 (55047) - http://www.bohemiancoding.com/sketch -->
    <title>39F86465-E594-40DE-B336-149CCF8670A3</title>
    <desc>Created with sketchtool.</desc>
    <defs>
        <circle id="path-1" cx="23" cy="23" r="23"></circle>
        <filter x="-15.2%" y="-10.9%" width="130.4%" height="130.4%" filterUnits="objectBoundingBox" id="filter-2">
            <feOffset dx="0" dy="2" in="SourceAlpha" result="shadowOffsetOuter1"></feOffset>
            <feGaussianBlur stdDeviation="2" in="shadowOffsetOuter1" result="shadowBlurOuter1"></feGaussianBlur>
            <feColorMatrix values="0 0 0 0 0   0 0 0 0 0   0 0 0 0 0  0 0 0 0.197237319 0" type="matrix" in="shadowBlurOuter1"></feColorMatrix>
        </filter>
    </defs>
    <g id="Symbols" stroke="none" stroke-width="1" fill="none" fill-rule="evenodd">
        <g id="ic/know" transform="translate(4.000000, 2.000000)">
            <g id="Group-18">
                <g id="Group-17">
                    <g id="Oval">
                        <use fill="black" fill-opacity="1" filter="url(#filter-2)" xlink:href="#path-1"></use>
                        <use fill="#5E91D9" fill-rule="evenodd" xlink:href="#path-1"></use>
                    </g>
                    <g id="Apple-IBooks" transform="translate(11.000000, 13.000000)" fill="#FFFFFF" fill-rule="nonzero">
                        <g id="Layer_1">
                            <g id="Symbols_5_">
                                <g id="Graphics-_x2F_-App-Icons-_x2F_-iBooks">
                                    <g id="iBooks-Icon">
                                        <path d="M0.666666667,3.83555556 C0.666666667,3.83555556 1.76222222,1.00222222 6.18222222,1.00222222 C10.5644444,1.00222222 11.7355556,4.70444444 11.7355556,4.70444444 L11.7355556,20.5711111 C11.7355556,20.5711111 10.3377778,16.34 6.22,16.34 C3.23555556,16.34 1.12,18.2666667 1.12,18.2666667 C0.893333333,18.4555556 0.666666667,18.3422222 0.666666667,18.04 L0.666666667,3.83555556 Z M23.3333333,3.83555556 L23.3333333,18.0022222 C23.3333333,18.3044444 23.1444444,18.4177778 22.88,18.2288889 C22.88,18.2288889 20.7644444,16.3022222 17.78,16.3022222 C13.7,16.3022222 12.3022222,20.5333333 12.3022222,20.5333333 L12.3022222,4.66666667 C12.3022222,4.66666667 13.4355556,0.964444444 17.8555556,0.964444444 C22.2377778,0.964444444 23.3333333,3.83555556 23.3333333,3.83555556 Z" id="Icon_3_"></path>
                                    </g>
                                </g>
                            </g>
                        </g>
                    </g>
                </g>
            </g>
        </g>
    </g>
</svg>