<svg xmlns="http://www.w3.org/2000/svg" xmlns:xlink="http://www.w3.org/1999/xlink" width="208" height="213" viewBox="0 0 208 213">
    <defs>
        <path id="a" d="M.313 0h208.799v217.859H.313z"/>
    </defs>
    <g fill="none" fill-rule="evenodd" transform="translate(-1.313 -4.436)">
        <mask id="b" fill="#fff">
            <use xlink:href="#a"/>
        </mask>
        <path fill="#FFF" d="M128.517 204.646c-28.973-.36-51.757-23.591-51.398-52.654.538-28.525 23.233-51.219 51.129-51.129 29.332.09 52.295 23.412 51.577 52.564-.806 31.664-26.282 51.577-51.308 51.219m67.993-119.3c3.588.537 5.74 3.497 5.203 7.265-3.14 20.63-6.548 41.262-9.51 61.982-1.165 8.342-2.332 16.505-5.83 24.309-10.673 23.95-35.431 39.378-61.085 37.853-30.318-1.794-54.985-24.398-59.47-54.537-4.934-33.1 15.876-63.866 48.438-71.67 26.64-6.369 55.165 5.92 68.888 29.78.538.628.987 1.525 1.884 3.05 1.076-6.907 2.064-13.096 3.05-19.286.717-4.485 1.345-8.97 2.063-13.365.539-3.498 3.408-5.83 6.37-5.382zm-61.803-54.449c-2.691 1.166-5.114 2.153-7.445 3.23-21.528 9.418-43.056 18.747-64.584 28.165-5.023 2.153-9.778-.897-9.239-5.92.27-2.691 2.063-4.216 4.485-5.203 14.621-6.368 29.332-12.737 43.953-19.106 17.94-7.803 35.88-15.607 53.82-23.5 23.59-10.316 50.949 5.202 54.089 30.676 2.6 20.99-10.585 39.289-31.307 43.594-21.437 4.485-43.413-11.84-45.656-33.637-.539-5.651-.18-11.212 1.524-16.594.09-.27.18-.808.36-1.705zm35.79-13.365c-14.083.27-26.283 12.917-26.013 27.09.27 15.248 12.468 27.358 27.268 27.089 14.352-.36 26.193-12.827 25.924-27.18-.269-15.428-12.11-27.268-27.179-26.999zM61.781 92.252c3.14 18.568-9.957 33.906-25.206 35.97-.448.09-.807.268-1.614.538a13485.57 13485.57 0 0 1 17.132 18.209c1.166 1.255 2.332 2.421 3.409 3.677 2.87 3.14 2.87 6.459.09 9.06-2.512 2.332-5.831 2.063-8.612-.897a4350.537 4350.537 0 0 1-27.807-29.69c-4.126-4.486-8.7-8.701-12.199-13.635C-6.75 96.019 5.898 69.199 29.668 67.046c15.07-1.345 29.601 10.226 32.113 25.206zM31.014 116.65c10.584.27 18.926-7.804 19.196-18.388.269-10.047-7.894-18.837-17.761-19.106-10.405-.449-18.657 7.624-18.927 18.478-.269 10.046 7.715 18.747 17.492 19.016z" mask="url(#b)"/>
    </g>
</svg>
