<svg xmlns="http://www.w3.org/2000/svg" width="208" height="262" viewBox="0 0 208 262">
    <g fill="#FFF" fill-rule="evenodd">
        <path d="M126.593 199.28c-28.835-.356-51.51-23.483-51.153-52.413.536-28.395 23.123-50.986 50.885-50.897 29.192.09 52.046 23.305 51.332 52.325-.803 31.52-26.157 51.343-51.064 50.986m67.67-118.758c3.57.536 5.712 3.482 5.177 7.232-3.124 20.538-6.517 41.075-9.463 61.701-1.16 8.304-2.321 16.43-5.803 24.198-10.623 23.841-35.263 39.2-60.795 37.681-30.173-1.785-54.723-24.287-59.186-54.29-4.91-32.948 15.8-63.575 48.207-71.343 26.514-6.34 54.902 5.893 68.56 29.645.536.625.982 1.518 1.875 3.036 1.071-6.876 2.054-13.037 3.035-19.198.714-4.465 1.34-8.93 2.053-13.305.537-3.482 3.393-5.804 6.34-5.357zm-61.51-54.2c-2.677 1.16-5.089 2.143-7.409 3.214-21.425 9.376-42.85 18.662-64.276 28.038-5 2.143-9.732-.893-9.195-5.894.268-2.678 2.053-4.196 4.463-5.178 14.552-6.34 29.193-12.68 43.744-19.02 17.854-7.768 35.709-15.536 53.563-23.394 23.48-10.269 50.707 5.179 53.832 30.538 2.588 20.894-10.534 39.11-31.157 43.396-21.335 4.464-43.207-11.787-45.439-33.485-.537-5.625-.179-11.161 1.517-16.519.09-.268.178-.804.358-1.696zm35.62-13.305c-14.015.268-26.157 12.858-25.889 26.966.268 15.18 12.408 27.234 27.138 26.966 14.284-.357 26.069-12.768 25.8-27.055-.267-15.358-12.05-27.145-27.049-26.877zM60.175 87.398c3.124 18.484-9.91 33.752-25.086 35.806-.446.09-.803.268-1.607.536 5.892 6.25 11.516 12.233 17.051 18.126 1.16 1.25 2.321 2.411 3.393 3.661 2.856 3.125 2.856 6.43.089 9.019-2.5 2.321-5.803 2.053-8.57-.893a4330.366 4330.366 0 0 1-27.675-29.556c-4.106-4.464-8.66-8.661-12.14-13.572C-8.03 91.148 4.557 64.45 28.214 62.307c14.998-1.34 29.46 10.18 31.96 25.091zm-30.62 24.288c10.533.267 18.836-7.769 19.104-18.305.267-10.001-7.856-18.752-17.676-19.02-10.356-.446-18.569 7.59-18.837 18.395-.268 10 7.678 18.662 17.408 18.93zM15.132 261.36c-6.552 0-9.828-2.112-9.828-6.336v-11.088c0-4.464 3.276-6.696 9.828-6.696 2.232 0 4.368.228 6.408.684v2.592c-2.304-.576-4.416-.864-6.336-.864-.936 0-1.752.054-2.448.162a8.97 8.97 0 0 0-2.016.558c-1.392.6-2.088 1.776-2.088 3.528v10.944c0 2.688 2.232 4.032 6.696 4.032 1.92 0 4.032-.288 6.336-.864v2.664c-2.04.456-4.224.684-6.552.684zm11.196-23.724h3.492v10.08h12.42v-10.08h3.492V261H42.24v-10.836H29.82V261h-3.492v-23.364zm32.256 0h4.032L71.688 261h-3.636l-2.664-7.092H55.38L52.752 261h-3.456l9.288-23.364zm5.94 13.86l-3.96-10.548h-.324l-3.96 10.548h8.244zm10.728-13.86h3.492V261h-3.492v-23.364zm9.54 0h4.212l12.708 19.296v-19.296h3.06V261h-4.212l-12.708-19.62V261h-3.06v-23.364zm36.072 23.724a26.49 26.49 0 0 1-2.934-.144 16.855 16.855 0 0 1-2.682-.54c-1.056-.288-1.944-.654-2.664-1.098a5.23 5.23 0 0 1-1.764-1.818c-.48-.816-.72-1.728-.72-2.736v-11.052c0-1.344.348-2.496 1.044-3.456.696-.96 1.656-1.656 2.88-2.088a20.903 20.903 0 0 1 3.366-.882c1.068-.18 2.226-.27 3.474-.27 2.976 0 5.664.192 8.064.576v2.7c-.912-.216-2.214-.414-3.906-.594-1.692-.18-3.054-.27-4.086-.27-4.92 0-7.38 1.416-7.38 4.248v11.016c0 .768.234 1.44.702 2.016.468.576 1.11.996 1.926 1.26.768.288 1.536.486 2.304.594a18.74 18.74 0 0 0 2.592.162c1.608 0 3.324-.216 5.148-.648v-8.172h-5.472v-2.448h8.712v12.564c-3.12.72-5.988 1.08-8.604 1.08zm13.932-23.724h15.696v2.448h-12.204v7.632h11.016v2.448h-11.016v8.388h12.564V261h-16.056v-23.364zm27.684 0h4.032L175.584 261h-3.636l-2.664-7.092h-10.008L156.648 261h-3.456l9.288-23.364zm5.94 13.86l-3.96-10.548h-.324l-3.96 10.548h8.244zm10.728-13.86h8.208c2.064 0 3.678.126 4.842.378 1.164.252 2.016.702 2.556 1.35.54.648.81 1.596.81 2.844v4.032c0 1.392-.57 2.466-1.71 3.222-1.14.756-2.586 1.134-4.338 1.134L197.004 261h-4.284l-6.696-9.972h-3.384V261h-3.492v-23.364zm8.064 11.088c1.728 0 2.97-.21 3.726-.63.756-.42 1.134-1.182 1.134-2.286v-3.24c0-1.752-1.512-2.628-4.536-2.628h-4.896v8.784h4.572z"/>
    </g>
</svg>
