<?xml version="1.0" encoding="UTF-8"?>
<svg width="54px" height="54px" viewBox="0 0 54 54" version="1.1" xmlns="http://www.w3.org/2000/svg" xmlns:xlink="http://www.w3.org/1999/xlink">
    <!-- Generator: sketchtool 50.2 (55047) - http://www.bohemiancoding.com/sketch -->
    <title>500117B4-19E6-4D43-85AB-364AC65FC5DA</title>
    <desc>Created with sketchtool.</desc>
    <defs>
        <circle id="path-1" cx="23" cy="23" r="23"></circle>
        <filter x="-15.2%" y="-10.9%" width="130.4%" height="130.4%" filterUnits="objectBoundingBox" id="filter-2">
            <feOffset dx="0" dy="2" in="SourceAlpha" result="shadowOffsetOuter1"></feOffset>
            <feGaussianBlur stdDeviation="2" in="shadowOffsetOuter1" result="shadowBlurOuter1"></feGaussianBlur>
            <feColorMatrix values="0 0 0 0 0   0 0 0 0 0   0 0 0 0 0  0 0 0 0.197237319 0" type="matrix" in="shadowBlurOuter1"></feColorMatrix>
        </filter>
    </defs>
    <g id="Symbols" stroke="none" stroke-width="1" fill="none" fill-rule="evenodd">
        <g id="ic/medium" transform="translate(4.000000, 2.000000)">
            <g id="Group-6">
                <g id="Oval">
                    <use fill="black" fill-opacity="1" filter="url(#filter-2)" xlink:href="#path-1"></use>
                    <use fill="#70A8F7" fill-rule="evenodd" xlink:href="#path-1"></use>
                </g>
                <g id="Medium_logo_Wordmark_Black" transform="translate(12.000000, 14.000000)" fill="#FFFFFF" fill-rule="nonzero">
                    <path d="M21.2598425,17.049036 L23,18.729254 L23,18.7849958 L14.1732283,18.7849958 L14.1732283,18.729254 L15.9448819,17.049036 C16.1338254,16.8935295 16.2243009,16.6464815 16.1811024,16.4040235 L16.1811024,5.66177703 C16.1811024,5.2078793 16.1811024,4.59471921 16.2598425,4.06915339 L10.3070866,19 L10.2362205,19 L4.07086614,5.26362112 C3.93700789,4.92120704 3.8976378,4.89731768 3.81102361,4.66638726 L3.81102361,13.6726739 C3.73721147,14.2754527 3.83843966,14.8869279 4.10236219,15.432523 L6.58267717,18.729254 L6.58267717,18.7849958 L0,18.7849958 L0,18.729254 L2.48031496,15.4245599 C2.74228853,14.8811782 2.84345745,14.2728262 2.77165354,13.6726739 L2.77165354,3.71877621 C2.81198271,3.22866918 2.66549947,2.74151373 2.36220472,2.35708298 L0.606299212,0.0557418273 L0.606299212,0 L6.90551181,0 L12.1811024,11.6341157 L16.8267717,0 L22.992126,0 L22.992126,0.0557418273 L21.2598425,2.00670579 C21.0522619,2.16018319 20.9485469,2.41932001 20.992126,2.67560771 L20.992126,16.4040235 C20.9462171,16.6537787 21.05142,16.9072453 21.2598425,17.049036 Z" id="Shape"></path>
                </g>
            </g>
        </g>
    </g>
</svg>