<svg xmlns="http://www.w3.org/2000/svg" xmlns:xlink="http://www.w3.org/1999/xlink" width="290" height="300" viewBox="0 0 290 300">
    <defs>
        <filter id="a" width="112.5%" height="122.1%" x="-6.3%" y="-11%" filterUnits="objectBoundingBox">
            <feGaussianBlur in="SourceGraphic" stdDeviation=".5"/>
        </filter>
        <path id="b" d="M0 .03h11.972v20.39H0z"/>
        <path id="d" d="M.026.063h11.97V27.25H.026z"/>
        <path id="f" d="M0 .063h11.97V27.25H0z"/>
        <filter id="h" width="119.6%" height="134.5%" x="-9.8%" y="-17.2%" filterUnits="objectBoundingBox">
            <feGaussianBlur in="SourceGraphic" stdDeviation=".5"/>
        </filter>
        <path id="i" d="M0 .02h7.662v13.049H0z"/>
        <path id="k" d="M.017.04h7.66v17.4H.018z"/>
        <path id="m" d="M0 .04h7.66v17.4H0z"/>
        <linearGradient id="o" x1="50.008%" x2="50.008%" y1="99.984%" y2="-.016%">
            <stop offset="0%" stop-color="#FFF" stop-opacity="0"/>
            <stop offset="100%" stop-color="#98D1FF"/>
        </linearGradient>
    </defs>
    <g fill="none" fill-rule="evenodd">
        <g fill-rule="nonzero">
            <path fill="#CD6116" stroke="#CD6116" stroke-linecap="round" stroke-linejoin="round" d="M114.82 191.66l-7.782 1.132-27.665 18.397-12.878 20.165 11.533 10.471h24.764l15-.283"/>
            <path fill="#E4761B" stroke="#E4761B" stroke-linecap="round" stroke-linejoin="round" d="M157.91 248.9l-22.57-17.122-32.548 10.047H78.028l-11.533-10.471"/>
            <path fill="#E4761B" stroke="#E4761B" stroke-linecap="round" stroke-linejoin="round" d="M66.495 231.354l.99 20.377L82.91 270.34l34.882 12.382h47.477l28.373-14.293-41.675-22.924z"/>
            <path fill="#E0C8BD" d="M215.505 248.9l-3.326-9.41-55.4-12.24-21.44 4.528 4.741 11.18 10.26 4.882 16.485 10.542 8.35 5.873 18.467 4.174z"/>
            <path fill="#CD6116" stroke="#CD6116" stroke-linecap="round" stroke-linejoin="round" d="M165.269 282.722l9.906-18.467 18.467 4.174zM117.792 282.722l-16.132-17.547-18.75 5.165z"/>
            <path fill="#F6851B" stroke="#F6851B" stroke-linecap="round" stroke-linejoin="round" d="M101.66 265.175l73.515-.92-9.906 18.467h-47.477z"/>
            <path fill="#D6C0B3" d="M175.175 264.255l22.358-28.02-25.4-5.589-32.053 12.312z"/>
            <path fill="#F6851B" stroke="#F6851B" stroke-linecap="round" stroke-linejoin="round" d="M140.08 242.958l-4.74-11.18 21.438-4.528 5.59 6.863zM101.66 265.175l33.68-33.397-32.548 10.047zM69.82 249.113l8.208-7.288-11.533-10.471.99 20.377zM79.373 211.189l-12.878 20.165 40.543-38.562z"/>
            <path fill="#E4761B" stroke="#E4761B" stroke-linecap="round" stroke-linejoin="round" d="M66.495 231.354l48.326-39.694-7.783 1.132z"/>
            <path fill="#D6C0B3" d="M215.505 248.9l-3.326-9.41-19.599 4.458 11.462 15.212z"/>
        </g>
        <path fill="#DF6B26" fill-rule="nonzero" d="M110.788 158.618l-6.722-36.51 32.83 17.76-16.486 23.774zM172.84 157.203l6.085-36.51-32.83 17.76 16.414 23.773z"/>
        <path fill="#DF6B26" fill-rule="nonzero" d="M113.406 148.925l7.146-13.16 41.391-1.274 8.279 12.31 1.273 77.053-56.957-1.698z"/>
        <path fill="#D6C0B3" fill-rule="nonzero" d="M123.311 167.18l15.354-34.034 8.208.212 15.636 35.59v34.811l-39.198-1.485z"/>
        <path fill="#3A210D" fill-rule="nonzero" d="M142.91 144.962l12.524 27.524-13.231 21.014-13.373-21.014z"/>
        <path fill="#F98CC5" fill-rule="nonzero" d="M142.132 176.377l7.43 5.095-7.36 12.028-7.57-12.028z"/>
        <path fill="#3A210D" fill-rule="nonzero" d="M138.311 135.552l4.246 3.82 3.962-3.608v-4.104h-8.208z"/>
        <path fill="#DF6B26" fill-rule="nonzero" d="M114.538 222.156l-1.132 40.684h58.09v-38.986z"/>
        <path fill="#D6C0B3" fill-rule="nonzero" d="M123.311 223.854l19.6 13.372 19.598-13.372v-20.095l-39.198-1.485z"/>
        <path fill="#F9AFDA" fill-rule="nonzero" d="M142.203 193.5l-.07-17.123 7.428 5.095z"/>
        <path fill="#511BE2" fill-rule="nonzero" d="M203.193 44.35c0 6.508-26.674 25.258-59.575 25.258S84.042 50.858 84.042 44.35c0-6.51 26.675-5.448 59.576-5.448 32.9 0 59.575-1.061 59.575 5.448z"/>
        <path fill="#9816FF" fill-rule="nonzero" d="M203.193 43.642c0 6.509-26.674 11.816-59.575 11.816S84.042 50.15 84.042 43.642c0-6.51 26.675-16.062 59.576-16.062 32.9 0 59.575 9.552 59.575 16.062z"/>
        <path fill="#1D1D26" d="M132.005 101.388l11.97 6.796 11.963-6.795-11.972-6.795z"/>
        <path fill="#00FFFB" d="M.005 22.21l11.97 6.796 11.963-6.795-11.972-6.795z" filter="url(#a)" transform="translate(132 78)"/>
        <path fill="#454A75" d="M132 98.452l11.97 6.796 11.962-6.795-11.971-6.795z"/>
        <g transform="translate(132 101.358)">
            <mask id="c" fill="#fff">
                <use xlink:href="#b"/>
            </mask>
            <path fill="#B4EBF3" d="M11.97 6.826L0 .03l11.972 20.39z" mask="url(#c)"/>
        </g>
        <path fill="#4BB7B5" d="M155.932 101.389l-11.96 20.39-.002-13.595z"/>
        <g transform="translate(143.936 78.002)">
            <mask id="e" fill="#fff">
                <use xlink:href="#d"/>
            </mask>
            <path fill="#4BB7B5" d="M.034 27.249l11.962-6.795L.026.064z" mask="url(#e)"/>
        </g>
        <g transform="translate(132 78.002)">
            <mask id="g" fill="#fff">
                <use xlink:href="#f"/>
            </mask>
            <path fill="#B4EBF3" d="M0 20.453L11.962.063l.008 27.186z" mask="url(#g)"/>
        </g>
        <g>
            <path fill="#1D1D26" d="M136.003 25.968l7.661 4.35 7.656-4.35-7.662-4.348z"/>
            <path fill="#00FFFB" d="M.003 14.215l7.661 4.349 7.656-4.349-7.662-4.349z" filter="url(#h)" transform="translate(136 11)"/>
            <path fill="#454A75" d="M136 24.09l7.66 4.349 7.657-4.35-7.662-4.348z"/>
            <g transform="translate(136 25.95)">
                <mask id="j" fill="#fff">
                    <use xlink:href="#i"/>
                </mask>
                <path fill="#B4EBF3" d="M7.66 4.368L0 .02l7.662 13.05z" mask="url(#j)"/>
            </g>
            <path fill="#4BB7B5" d="M151.317 25.969l-7.655 13.05-.001-8.701z"/>
            <g transform="translate(143.639 11.001)">
                <mask id="l" fill="#fff">
                    <use xlink:href="#k"/>
                </mask>
                <path fill="#4BB7B5" d="M.022 17.44l7.656-4.35L.017.04z" mask="url(#l)"/>
            </g>
            <g transform="translate(136 11.001)">
                <mask id="n" fill="#fff">
                    <use xlink:href="#m"/>
                </mask>
                <path fill="#B4EBF3" d="M0 13.09L7.655.04l.006 17.4z" mask="url(#n)"/>
            </g>
        </g>
        <path fill="#D8CCC3" fill-rule="nonzero" d="M165.269 30.198c0 13.019-9.906 12.028-22.076 12.028s-22.075.991-22.075-12.028 9.906-23.632 22.075-23.632c12.17 0 22.076 10.613 22.076 23.632z" opacity=".3"/>
        <path fill="#F7E8DF" fill-rule="nonzero" d="M163.288 30.552c0 12.594-9.128 11.604-20.448 11.604-11.321 0-20.448.99-20.448-11.604s9.127-22.854 20.448-22.854c11.25.07 20.448 10.26 20.448 22.854z" opacity=".3"/>
        <path fill="url(#o)" fill-rule="nonzero" d="M11.816 258.255l57.1-194.576h19.386l49.74 189.481z" opacity=".3" transform="translate(66 6)"/>
        <path d="M0 0h290v300H0z"/>
    </g>
</svg>
