<?xml version="1.0" encoding="UTF-8"?>
<svg width="54px" height="54px" viewBox="0 0 54 54" version="1.1" xmlns="http://www.w3.org/2000/svg" xmlns:xlink="http://www.w3.org/1999/xlink">
    <!-- Generator: sketchtool 50.2 (55047) - http://www.bohemiancoding.com/sketch -->
    <title>D07A61CC-31A9-4FA3-BCC2-1A3B79AC8FAB</title>
    <desc>Created with sketchtool.</desc>
    <defs>
        <circle id="path-1" cx="23" cy="23" r="23"></circle>
        <filter x="-15.2%" y="-10.9%" width="130.4%" height="130.4%" filterUnits="objectBoundingBox" id="filter-2">
            <feOffset dx="0" dy="2" in="SourceAlpha" result="shadowOffsetOuter1"></feOffset>
            <feGaussianBlur stdDeviation="2" in="shadowOffsetOuter1" result="shadowBlurOuter1"></feGaussianBlur>
            <feColorMatrix values="0 0 0 0 0   0 0 0 0 0   0 0 0 0 0  0 0 0 0.197237319 0" type="matrix" in="shadowBlurOuter1"></feColorMatrix>
        </filter>
    </defs>
    <g id="Symbols" stroke="none" stroke-width="1" fill="none" fill-rule="evenodd">
        <g id="ic/reddit" transform="translate(4.000000, 2.000000)">
            <g id="Group-12">
                <g id="Oval">
                    <use fill="black" fill-opacity="1" filter="url(#filter-2)" xlink:href="#path-1"></use>
                    <use fill="#70A8F7" fill-rule="evenodd" xlink:href="#path-1"></use>
                </g>
                <g id="Reddit" transform="translate(10.000000, 11.000000)" fill="#FFFFFF" fill-rule="nonzero">
                    <path d="M17.58915,15.3819265 C16.5485223,15.3774573 15.7051868,14.5255372 15.6978,13.4713235 C15.6978,12.4141324 16.56045,11.5306324 17.58915,11.5306324 C18.6165,11.5306324 19.44945,12.4141324 19.44945,13.4713235 C19.44945,14.5271471 18.61785,15.3819265 17.58915,15.3819265 M17.85105,18.9145588 C16.9425,19.8459265 15.51825,20.2999853 13.49865,20.2999853 C11.4777,20.2999853 10.0548,19.8459265 9.1476,18.9145588 C8.9498233,18.7107462 8.9498233,18.383945 9.1476,18.1801324 C9.24152225,18.0832343 9.3699482,18.0286481 9.504,18.0286481 C9.6380518,18.0286481 9.76647775,18.0832343 9.8604,18.1801324 C10.56915,18.9090882 11.7585,19.2633088 13.49865,19.2633088 C15.23745,19.2633088 16.42815,18.9077206 17.13825,18.1801324 C17.2321723,18.0832343 17.3605982,18.0286481 17.49465,18.0286481 C17.6287018,18.0286481 17.7571277,18.0832343 17.85105,18.1801324 C18.0488267,18.383945 18.0488267,18.7107462 17.85105,18.9145588 M7.5492,13.4713235 C7.5492,12.4155 8.4105,11.5306324 9.43785,11.5306324 C10.4652,11.5306324 11.29815,12.4155 11.29815,13.4713235 C11.29815,14.5271471 10.4652,15.3819265 9.43785,15.3819265 C8.39797238,15.376703 7.5558437,14.5247858 7.5492,13.4713235 M27,11.36925 C27,9.63780882 25.6284,8.22776471 23.94225,8.22776471 C23.16465,8.22776471 22.4316,8.52591176 21.87,9.06066176 C19.85175,7.71079412 17.14905,6.83823529 14.1561,6.71925 L15.80715,1.54133824 L20.14335,2.59032353 C20.1447,4.01541176 21.2733,5.17380882 22.6611,5.17380882 C24.0489,5.17380882 25.17885,4.01267647 25.17885,2.58622059 C25.17885,1.16113235 24.0489,9.09494702e-13 22.6611,9.09494702e-13 C21.6216,9.09494702e-13 20.72925,0.649632353 20.3445,1.57416176 L15.1362,0.313191176 L13.0977,6.70830882 C9.99135,6.76711765 7.1766,7.63557353 5.08275,9.01689706 C4.5270641,8.50872057 3.80500454,8.22752504 3.0564,8.22776471 C1.3716,8.22776471 2.13162821e-14,9.63644118 2.13162821e-14,11.36925 C2.13162821e-14,12.4702059 0.5589,13.4781618 1.4526,14.0443676 C0.63855,18.9843088 6.3045,23.25 13.4433,23.25 C20.5524,23.25 26.19945,19.0226029 25.44615,14.1059118 C26.4134599,13.5450989 27.0073392,12.4996733 27,11.3706176" id="reddit-[#143]"></path>
                </g>
            </g>
        </g>
    </g>
</svg>