<?xml version="1.0" encoding="UTF-8"?>
<svg width="54px" height="54px" viewBox="0 0 54 54" version="1.1" xmlns="http://www.w3.org/2000/svg" xmlns:xlink="http://www.w3.org/1999/xlink">
    <!-- Generator: sketchtool 50.2 (55047) - http://www.bohemiancoding.com/sketch -->
    <title>0DA2D3D0-FCC8-4B93-984E-635CB45DBC54</title>
    <desc>Created with sketchtool.</desc>
    <defs>
        <circle id="path-1" cx="23" cy="23" r="23"></circle>
        <filter x="-15.2%" y="-10.9%" width="130.4%" height="130.4%" filterUnits="objectBoundingBox" id="filter-2">
            <feOffset dx="0" dy="2" in="SourceAlpha" result="shadowOffsetOuter1"></feOffset>
            <feGaussianBlur stdDeviation="2" in="shadowOffsetOuter1" result="shadowBlurOuter1"></feGaussianBlur>
            <feColorMatrix values="0 0 0 0 0   0 0 0 0 0   0 0 0 0 0  0 0 0 0.197237319 0" type="matrix" in="shadowBlurOuter1"></feColorMatrix>
        </filter>
        <linearGradient x1="61.3438559%" y1="47.150188%" x2="80.4983437%" y2="83.7095963%" id="linearGradient-3">
            <stop stop-color="#EFF7FC" offset="0%"></stop>
            <stop stop-color="#FFFFFF" offset="100%"></stop>
        </linearGradient>
    </defs>
    <g id="Symbols" stroke="none" stroke-width="1" fill="none" fill-rule="evenodd">
        <g id="ic/telegram" transform="translate(4.000000, 2.000000)">
            <g id="Group-10">
                <g id="Oval">
                    <use fill="black" fill-opacity="1" filter="url(#filter-2)" xlink:href="#path-1"></use>
                    <use fill="#70A8F7" fill-rule="evenodd" xlink:href="#path-1"></use>
                </g>
                <g id="Telegram" transform="translate(10.333333, 15.000000)" fill-rule="nonzero">
                    <g id="svg2">
                        <path d="M8.33333333,17.1666667 C7.68333333,17.1666667 7.8,16.9166667 7.56666667,16.3 L5.66666667,10.0333333 L17.4666667,2.66666667 L18.85,3.03333333 L17.7,6.16666667 L8.33333333,17.1666667 Z" id="path2993" fill="#C8DAEA"></path>
                        <path d="M8.33333333,17.1666667 C8.83333333,17.1666667 9.05,16.9333333 9.33333333,16.6666667 C9.76666667,16.25 15.3333333,10.8333333 15.3333333,10.8333333 L11.9166667,10 L8.75,12 L8.33333333,17 L8.33333333,17.1666667 Z" id="path2989" fill="#A9C9DD"></path>
                        <path d="M8.66666667,12.0666667 L16.7333333,18.0166667 C17.65,18.5166667 18.3166667,18.2666667 18.55,17.1666667 L21.8333333,1.7 C22.1666667,0.35 21.3166667,-0.25 20.4333333,0.15 L1.16666667,7.58333333 C-0.15,8.11666667 -0.133333333,8.85 0.933333333,9.16666667 L5.88333333,10.7166667 L17.3333333,3.5 C17.8666667,3.16666667 18.3666667,3.35 17.9666667,3.71666667 L8.66666667,12.0666667 Z" id="path2991" fill="url(#linearGradient-3)"></path>
                    </g>
                </g>
            </g>
        </g>
    </g>
</svg>