<?xml version="1.0" encoding="UTF-8"?>
<svg width="54px" height="54px" viewBox="0 0 54 54" version="1.1" xmlns="http://www.w3.org/2000/svg" xmlns:xlink="http://www.w3.org/1999/xlink">
    <!-- Generator: sketchtool 50.2 (55047) - http://www.bohemiancoding.com/sketch -->
    <title>A6331ECA-C807-47C6-B3D0-5CBF8D314533</title>
    <desc>Created with sketchtool.</desc>
    <defs>
        <circle id="path-1" cx="23" cy="23" r="23"></circle>
        <filter x="-15.2%" y="-10.9%" width="130.4%" height="130.4%" filterUnits="objectBoundingBox" id="filter-2">
            <feOffset dx="0" dy="2" in="SourceAlpha" result="shadowOffsetOuter1"></feOffset>
            <feGaussianBlur stdDeviation="2" in="shadowOffsetOuter1" result="shadowBlurOuter1"></feGaussianBlur>
            <feColorMatrix values="0 0 0 0 0   0 0 0 0 0   0 0 0 0 0  0 0 0 0.197237319 0" type="matrix" in="shadowBlurOuter1"></feColorMatrix>
        </filter>
    </defs>
    <g id="Symbols" stroke="none" stroke-width="1" fill="none" fill-rule="evenodd">
        <g id="ic/twitter" transform="translate(4.000000, 2.000000)">
            <g id="Group-12">
                <g id="Oval">
                    <use fill="black" fill-opacity="1" filter="url(#filter-2)" xlink:href="#path-1"></use>
                    <use fill="#70A8F7" fill-rule="evenodd" xlink:href="#path-1"></use>
                </g>
                <g id="Twitter" transform="translate(11.666667, 13.000000)" fill="#FFFFFF" fill-rule="nonzero">
                    <path d="M14.7825,1.1075 C12.795,1.83125 11.53875,3.69625 11.68125,5.7375 L11.72875,6.525 L10.93375,6.42875 C8.04,6.05875 5.51125,4.805 3.36375,2.69875 L2.31375,1.65375 L2.045,2.425 C1.4725,4.145 1.83875,5.9625 3.03125,7.185 C3.6675,7.86 3.52375,7.95625 2.4275,7.555 C2.04625,7.42625 1.71125,7.33 1.68,7.37875 C1.56875,7.49125 1.95,8.95375 2.2525,9.53375 C2.66625,10.33875 3.50875,11.125 4.43125,11.5925 L5.21125,11.9625 L4.2875,11.97625 C3.3975,11.97625 3.365,11.9925 3.46125,12.33125 C3.77875,13.37625 5.035,14.48625 6.435,14.96875 L7.42125,15.30625 L6.5625,15.82125 C5.26436419,16.569939 3.79823882,16.9788203 2.3,17.01 C1.58375,17.02625 0.995,17.09 0.995,17.13875 C0.995,17.29875 2.93625,18.19875 4.06375,18.55375 C7.45125,19.59875 11.475,19.1475 14.49625,17.36375 C16.64375,16.09375 18.79,13.56875 19.7925,11.12375 C20.33375,9.8225 20.87375,7.4425 20.87375,6.30125 C20.87375,5.56125 20.92125,5.465 21.81125,4.58125 C22.33625,4.06625 22.82875,3.50375 22.925,3.34375 C23.085,3.0375 23.0675,3.0375 22.2575,3.31125 C20.90625,3.79375 20.715,3.73 21.38375,3.00625 C21.87625,2.49125 22.465,1.55875 22.465,1.28625 C22.465,1.23875 22.22625,1.31875 21.95625,1.4625 C21.67,1.62375 21.03375,1.865 20.55625,2.00875 L19.6975,2.2825 L18.91875,1.75 C18.48875,1.46125 17.88625,1.13875 17.5675,1.0425 C16.755,0.8175 15.515,0.85 14.7825,1.1075 Z" id="Shape"></path>
                </g>
            </g>
        </g>
    </g>
</svg>